<?xml version="1.0" standalone="no"?>
<!DOCTYPE svg PUBLIC "-//W3C//DTD SVG 1.1//EN" "http://www.w3.org/Graphics/SVG/1.1/DTD/svg11.dtd" >
<svg xmlns="http://www.w3.org/2000/svg">
<metadata></metadata>
<defs>
<font id="alicelight" horiz-adv-x="1064" >
<font-face units-per-em="2048" ascent="1638" descent="-410" />
<missing-glyph horiz-adv-x="634" />
<glyph unicode="fi" horiz-adv-x="1273" d="M592 1403q-86 0 -138.5 -56t-52.5 -161v-162h349v-98h-349v-926h-112v926h-205v98h205v172q0 141 79 225t214 84q69 0 109 -16t73 -49l-29 -101q-30 33 -62 48.5t-81 15.5zM1022 1415q39 0 66.5 -27.5t27.5 -66.5q0 -40 -27 -68t-67 -28t-67 28t-27 68q0 39 27.5 66.5 t66.5 27.5zM967 0v1024h112v-1024h-112z" />
<glyph unicode="fl" horiz-adv-x="1380" d="M592 1403q-86 0 -138.5 -56t-52.5 -161v-162h349v-98h-349v-926h-112v926h-205v98h205v172q0 141 79 225t214 84q69 0 109 -16t73 -49l-29 -101q-30 33 -62 48.5t-81 15.5zM1210 86q66 0 140 31l-17 -109q-58 -28 -139 -28q-116 0 -171.5 63.5t-55.5 196.5v1255h112 v-1243q0 -90 30 -128t101 -38z" />
<glyph unicode=" "  horiz-adv-x="634" />
<glyph unicode="&#x09;" horiz-adv-x="634" />
<glyph unicode="&#xa0;" horiz-adv-x="634" />
<glyph unicode="!" horiz-adv-x="487" d="M303 709l-16 -314h-86l-17 314v643h119v-643zM244 186q41 0 70.5 -29.5t29.5 -72.5q0 -41 -29.5 -70.5t-70.5 -29.5q-42 0 -71.5 29t-29.5 71q0 43 29 72.5t72 29.5z" />
<glyph unicode="&#x22;" horiz-adv-x="690" d="M242 969h-92v436h122zM524 969h-90v436h123z" />
<glyph unicode="#" horiz-adv-x="1222" d="M915 874l-71 -382h246v-89h-263l-75 -403h-99l76 403h-340l-76 -403h-98l76 403h-258v89h274l74 382h-248v89h264l74 389h96l-73 -389h340l73 389h99l-74 -389h258v-89h-275zM817 874h-340l-71 -382h339z" />
<glyph unicode="$" horiz-adv-x="1273" d="M1153 360q0 -156 -121 -252.5t-325 -105.5v-174h-97v174q-187 11 -314.5 100t-176.5 248l104 53q27 -129 133.5 -210.5t253.5 -96.5v535q-58 12 -96 20.5t-89.5 24.5t-84.5 32.5t-69.5 42.5t-57.5 57t-35 73.5t-14 93.5q0 153 120.5 260t325.5 117v172h97v-174 q165 -10 270.5 -81t167.5 -210l-92 -72q-47 129 -129.5 192t-216.5 74v-544q57 -12 95.5 -21t89.5 -24.5t85 -32.5t70 -43.5t57 -58t35 -74.5t14 -95zM270 983q0 -49 19 -87.5t47.5 -64t76.5 -46t91 -32.5t106 -26v528q-162 -9 -251 -82t-89 -190zM707 610v-516 q156 8 248 73.5t92 184.5q0 49 -19 88t-47.5 64.5t-76 46.5t-91.5 33.5t-106 25.5z" />
<glyph unicode="%" horiz-adv-x="1662" d="M381 1362q146 0 227.5 -101.5t81.5 -261.5q0 -159 -81 -258.5t-228 -99.5q-145 0 -227 100t-82 258q0 160 81.5 261.5t227.5 101.5zM438 0h-108l882 1352h111zM381 1272q-101 0 -155 -75t-54 -198q0 -122 54 -195t155 -73t154 72.5t53 195.5t-53 198t-154 75zM1284 713 q145 0 226 -101t81 -260t-81 -259.5t-226 -100.5q-147 0 -229 100.5t-82 259.5t82.5 260t228.5 101zM1284 623q-103 0 -157 -74t-54 -197t54 -196.5t157 -73.5q101 0 154 73.5t53 196.5t-53 197t-154 74z" />
<glyph unicode="&#x26;" horiz-adv-x="1302" d="M1038 209q78 -82 128 -109t118 -32l-27 -88q-77 5 -135 33.5t-149 121.5q-162 -149 -408 -149q-190 0 -309 94.5t-119 241.5q0 128 75 228t249 195q-95 121 -130.5 190.5t-35.5 145.5q0 120 82 200.5t223 80.5q132 0 216.5 -64t84.5 -194q0 -111 -63.5 -201.5 t-223.5 -181.5l154 -191q130 -161 203 -245q112 160 100 389l103 -10q5 -126 -30 -244t-106 -211zM604 1264q-89 0 -143.5 -50.5t-54.5 -132.5q0 -58 27.5 -111t121.5 -175q138 75 190 146.5t52 156.5q0 79 -52 122.5t-141 43.5zM559 80q208 0 346 129q-71 77 -225 266 l-158 195q-154 -88 -213 -166t-59 -174q0 -109 88.5 -179.5t220.5 -70.5z" />
<glyph unicode="'" horiz-adv-x="407" d="M242 969h-92v436h122z" />
<glyph unicode="(" horiz-adv-x="780" d="M631 1530l69 -70q-196 -171 -280 -380.5t-84 -499.5q0 -292 84 -502t280 -379l-69 -72q-416 359 -416 953q0 591 416 950z" />
<glyph unicode=")" horiz-adv-x="780" d="M80 1460l70 70q415 -358 415 -950q0 -595 -415 -953l-70 72q197 170 281.5 380t84.5 501q0 290 -84.5 499.5t-281.5 380.5z" />
<glyph unicode="*" horiz-adv-x="1236" d="M811 870l256 -147l-49 -86l-256 147l-117 95h-2l25 -150v-295h-99v295l25 150v2l-119 -97l-256 -147l-49 86l256 147l139 54l-139 53l-256 149l49 86l256 -149l119 -94l-25 149v295h99v-295l-23 -149l117 94l256 149l49 -86l-256 -149l-141 -53z" />
<glyph unicode="+" horiz-adv-x="1234" d="M1106 569h-434v-446h-107v446h-436v105h436v444h107v-444h434v-105z" />
<glyph unicode="," horiz-adv-x="444" d="M229 186q57 0 89 -45t32 -116q0 -91 -46.5 -170t-137.5 -123l-62 57q73 25 119.5 86.5t46.5 122.5l-6 4q-12 -18 -49 -18q-34 0 -61 26t-27 72q0 43 29.5 73.5t72.5 30.5z" />
<glyph unicode="-" horiz-adv-x="919" d="M778 483h-637v117h637v-117z" />
<glyph unicode="." horiz-adv-x="485" d="M242 186q42 0 72 -30t30 -72q0 -41 -30.5 -70.5t-71.5 -29.5t-71 29.5t-30 70.5q0 42 29.5 72t71.5 30z" />
<glyph unicode="/" horiz-adv-x="786" d="M152 -143h-107l590 1638h106z" />
<glyph unicode="0" horiz-adv-x="1222" d="M610 1372q241 0 368.5 -179t127.5 -517t-127.5 -517t-368.5 -179q-239 0 -366 179t-127 517t127 517t366 179zM610 1268q-183 0 -280 -152.5t-97 -439.5t97 -439.5t280 -152.5t280 152.5t97 439.5t-97 439.5t-280 152.5z" />
<glyph unicode="1" horiz-adv-x="722" d="M551 1352v-1352h-113v1047l6 159q-72 -86 -172.5 -148.5t-201.5 -80.5v113q93 22 211 99t170 163h100z" />
<glyph unicode="2" horiz-adv-x="1142" d="M1051 104v-104h-924v92q54 45 154 128q282 235 381 332q176 172 216 306q15 49 15 100q0 140 -88 225t-238 85q-154 0 -248 -98.5t-106 -264.5l-98 58q21 187 140 298t316 111q202 0 321.5 -113t117.5 -301q1 -174 -143 -347q-102 -123 -349 -324q-25 -20 -237 -189 l114 6h656z" />
<glyph unicode="3" horiz-adv-x="1075" d="M694 684q92 -11 158 -61t95.5 -118t29.5 -147q0 -168 -126 -273t-325 -105q-176 0 -293.5 82t-169.5 235l109 59q67 -272 363 -272q148 0 237 79.5t88 209.5q-2 124 -83.5 190t-241.5 66h-72v104h72q142 0 217 70t75 192q1 131 -74.5 202t-215.5 71q-123 0 -204.5 -61.5 t-111.5 -168.5l-106 49q47 132 160 208.5t262 76.5q191 0 299 -98.5t108 -253.5q0 -128 -66.5 -223t-183.5 -113z" />
<glyph unicode="4" horiz-adv-x="1171" d="M1106 381h-256v-381h-113v381h-649v84l119 170l330 483l161 234h152v-875h256v-96zM737 477v578l4 215l-118 -199l-344 -493l-80 -107l141 6h397z" />
<glyph unicode="5" horiz-adv-x="1144" d="M604 848q190 0 307 -118.5t117 -309.5q0 -201 -122 -320.5t-328 -119.5q-369 0 -467 315l108 55q61 -266 354 -266q155 0 247 89.5t91 240.5q0 155 -87 242t-238 87q-233 0 -338 -147h-101l74 756h750v-105h-654l-57 -534q118 135 344 135z" />
<glyph unicode="6" horiz-adv-x="1185" d="M625 -20q-249 0 -378.5 180t-129.5 516q0 168 40 301.5t111 219t166.5 130.5t208.5 45q156 0 254.5 -67t151.5 -203l-105 -49q-68 215 -307 215q-113 0 -198 -62.5t-132 -168.5t-65.5 -238t-8.5 -279h13q11 98 73 172.5t144.5 110t169.5 35.5q205 0 325.5 -116.5 t120.5 -313.5q0 -196 -123.5 -312t-330.5 -116zM623 86q158 0 248 87.5t90 238.5q0 148 -89 234.5t-245 86.5q-150 0 -245 -93.5t-95 -227.5q0 -143 93 -234.5t243 -91.5z" />
<glyph unicode="7" horiz-adv-x="1044" d="M1004 1352v-105q-238 -273 -365 -590.5t-141 -656.5h-123q13 328 137.5 648.5t366.5 598.5h-852v105h977z" />
<glyph unicode="8" horiz-adv-x="1120" d="M760 711q130 -42 204 -134.5t74 -220.5q0 -170 -131.5 -273t-347.5 -103q-214 0 -346.5 103t-132.5 273q0 128 74 220.5t204 134.5q-104 40 -161.5 122t-57.5 193q0 158 114.5 251t305.5 93q193 0 307.5 -93t114.5 -251q0 -112 -58 -193.5t-163 -121.5zM256 1016 q0 -115 83 -184.5t220 -69.5q138 0 221.5 69.5t83.5 184.5q0 116 -82.5 183t-222.5 67q-139 0 -221 -67t-82 -183zM559 84q164 0 264.5 78t100.5 205q0 130 -101 209t-264 79q-162 0 -262 -79t-100 -209q0 -128 99 -205.5t263 -77.5z" />
<glyph unicode="9" horiz-adv-x="1193" d="M569 1372q245 0 376.5 -183t131.5 -513q0 -340 -133 -518t-373 -178q-177 0 -291 77t-161 219l112 62q30 -122 110 -188t230 -66q84 0 151 29.5t110.5 81.5t74.5 123.5t43.5 154.5t17 175t-4.5 186h-9q-7 -79 -45 -142t-94.5 -101t-122 -57.5t-133.5 -19.5 q-201 0 -322.5 117t-121.5 313t123.5 312t330.5 116zM571 1266q-158 0 -248 -87.5t-90 -238.5q0 -148 90 -235t246 -87q149 0 243.5 94t94.5 228q0 143 -93 234.5t-243 91.5z" />
<glyph unicode=":" horiz-adv-x="499" d="M258 821q-42 0 -72 30.5t-30 72.5q0 41 30.5 70.5t71.5 29.5q42 0 71 -29t29 -71q0 -43 -29 -73t-71 -30zM242 186q42 0 72 -30t30 -72q0 -41 -30.5 -70.5t-71.5 -29.5t-71 29.5t-30 70.5q0 42 29.5 72t71.5 30z" />
<glyph unicode=";" horiz-adv-x="491" d="M238 821q-41 0 -71 30t-30 73q0 41 30 70.5t71 29.5q42 0 71 -29t29 -71q0 -43 -29 -73t-71 -30zM227 186q57 0 89 -45t32 -116q0 -91 -46 -170t-136 -123l-64 57q73 25 119.5 86.5t46.5 122.5l-6 4q-12 -18 -49 -18q-34 0 -60 26t-26 72q0 43 29 73.5t71 30.5z" />
<glyph unicode="&#x3c;" horiz-adv-x="1234" d="M1112 1006l-876 -408l876 -414v-118l-956 464v138l956 456v-118z" />
<glyph unicode="=" horiz-adv-x="1234" d="M1096 760h-957v104h957v-104zM1096 334h-957v104h957v-104z" />
<glyph unicode="&#x3e;" horiz-adv-x="1234" d="M1079 668v-138l-956 -464v118l876 414l-876 408v118z" />
<glyph unicode="?" horiz-adv-x="1071" d="M535 1372q200 0 316 -93t116 -255q0 -68 -21.5 -125.5t-56.5 -99t-77.5 -78.5t-85 -71.5t-77.5 -70.5t-58 -83t-24 -101h-116q2 66 24.5 123.5t58 98.5t78 78.5t84.5 71.5t76.5 69t56 80t21.5 96q0 120 -84 188t-240 68q-145 0 -237 -79.5t-109 -219.5l-100 55 q31 161 151.5 254.5t303.5 93.5zM502 186q43 0 72.5 -29.5t29.5 -72.5q0 -41 -29.5 -70.5t-72.5 -29.5q-41 0 -71 29.5t-30 70.5q0 42 29.5 72t71.5 30z" />
<glyph unicode="@" horiz-adv-x="1961" d="M997 1372q184 0 331.5 -49.5t243.5 -132t159.5 -196t90.5 -235.5t27 -257q0 -239 -81 -377.5t-222 -138.5q-90 0 -146.5 58.5t-72.5 150.5q-45 -102 -138 -158.5t-224 -56.5q-192 0 -320.5 137t-128.5 364q0 225 128.5 358.5t320.5 133.5q132 0 224.5 -56t137.5 -157 l14 192h93v-673q0 -96 32 -148.5t97 -52.5q184 0 184 422q0 124 -24.5 235t-81.5 212t-141.5 174t-213.5 116t-289 43q-238 0 -415 -100t-271 -282t-94 -423q0 -367 215 -586t582 -219q130 0 255.5 40t209.5 108l53 -78q-99 -76 -235.5 -119t-282.5 -43q-270 0 -475.5 112.5 t-316.5 316t-111 468.5q0 198 63.5 364.5t178 284t280 183t364.5 65.5zM987 72q150 0 243 103.5t93 279.5v49q0 173 -93 275t-243 102q-165 0 -262.5 -107t-97.5 -293q0 -188 97.5 -298.5t262.5 -110.5z" />
<glyph unicode="A" horiz-adv-x="1302" d="M973 416h-643l-164 -416h-121l539 1352h135l538 -1352h-120zM932 520l-281 713l-280 -713h561z" />
<glyph unicode="B" horiz-adv-x="1325" d="M920 684q127 -34 195.5 -116t68.5 -201q0 -173 -124 -270t-355 -97h-478v1352h480q222 0 332 -93.5t110 -267.5q0 -111 -59.5 -189.5t-169.5 -117.5zM340 1247v-514h367q323 0 323 256q0 258 -323 258h-367zM340 104h389q168 0 253 67.5t85 195.5t-85 195t-253 67h-389 v-525z" />
<glyph unicode="C" horiz-adv-x="1396" d="M1198 385l111 -43q-58 -171 -201 -266.5t-340 -95.5q-282 0 -449 188t-167 508t167.5 508t446.5 188q402 0 524 -332l-110 -51q-96 279 -406 279q-229 0 -366.5 -159t-137.5 -433t135 -433t363 -159q160 0 272.5 77.5t157.5 223.5z" />
<glyph unicode="D" horiz-adv-x="1480" d="M227 1352h428q324 0 499 -172.5t175 -495.5q0 -330 -175 -507t-499 -177h-428v1352zM340 104h326q262 0 404 151t142 429q0 270 -142 416.5t-404 146.5h-326v-1143z" />
<glyph unicode="E" horiz-adv-x="1280" d="M1186 104v-104h-959v1352h928v-105h-815v-508h641v-104h-641v-531h846z" />
<glyph unicode="F" horiz-adv-x="1230" d="M340 1247v-508h641v-104h-641v-635h-113v1352h926v-105h-813z" />
<glyph unicode="G" horiz-adv-x="1447" d="M1315 664v-664h-78l-14 229q-58 -120 -174 -184.5t-283 -64.5q-282 0 -448 188t-166 508q0 319 169 507.5t449 188.5q204 0 335.5 -81.5t199.5 -246.5l-103 -55q-46 137 -156.5 208t-275.5 71q-226 0 -363 -159.5t-137 -432.5q0 -277 131.5 -434.5t366.5 -157.5 q203 0 324.5 111.5t121.5 316.5v47h-458v105h559z" />
<glyph unicode="H" horiz-adv-x="1499" d="M1272 1352v-1352h-113v635h-819v-635h-113v1352h113v-613h819v613h113z" />
<glyph unicode="I" horiz-adv-x="567" d="M340 0h-113v1352h113v-1352z" />
<glyph unicode="J" horiz-adv-x="1165" d="M958 1352l-2 -903q0 -220 -113 -344.5t-319 -124.5q-217 0 -320 122.5t-67 329.5l105 25q-50 -373 278 -373q172 0 249 99t77 292v877h112z" />
<glyph unicode="K" horiz-adv-x="1316" d="M604 721l-264 -268v-453h-113v1352h113v-746l731 746h150l-537 -547l547 -805h-135z" />
<glyph unicode="L" horiz-adv-x="1189" d="M1145 104v-104h-918v1352h113v-1248h805z" />
<glyph unicode="M" horiz-adv-x="1728" d="M1501 1352v-1352h-112v999l12 246l-53 -160l-424 -1085h-119l-424 1087l-53 158l12 -246v-999h-113v1352h170l467 -1205l467 1205h170z" />
<glyph unicode="N" horiz-adv-x="1499" d="M1272 1352v-1352h-137l-707 1051l-94 172l6 -144v-1079h-113v1352h138l704 -1049l96 -174l-6 158v1065h113z" />
<glyph unicode="O" horiz-adv-x="1548" d="M774 1372q287 0 455 -187.5t168 -508.5t-168 -508.5t-455 -187.5t-454.5 187.5t-167.5 508.5t167.5 508.5t454.5 187.5zM774 1268q-234 0 -369 -158.5t-135 -433.5t135 -433.5t369 -158.5t370 158.5t136 433.5t-136 433.5t-370 158.5z" />
<glyph unicode="P" horiz-adv-x="1228" d="M227 1352h453q211 0 335 -107.5t124 -292.5t-123.5 -291t-335.5 -106h-340v-555h-113v1352zM340 659h326q175 0 264.5 75.5t89.5 217.5q0 143 -89.5 219t-264.5 76h-326v-588z" />
<glyph unicode="Q" horiz-adv-x="1548" d="M1104 -299q154 0 231 74l39 -94q-111 -83 -276 -80q-75 1 -139.5 22.5t-118.5 65.5t-87.5 119t-39.5 174q-261 22 -411 207t-150 487q0 321 167.5 508.5t454.5 187.5t455 -187.5t168 -508.5q0 -310 -157 -496t-427 -200q11 -145 89.5 -212t201.5 -67zM270 676 q0 -275 135 -433.5t369 -158.5t370 158.5t136 433.5t-136 433.5t-370 158.5t-369 -158.5t-135 -433.5z" />
<glyph unicode="R" horiz-adv-x="1366" d="M1116 0l-385 582h-2h-389v-582h-113v1352h502q205 0 326 -103.5t121 -281.5q0 -146 -84 -244t-232 -129l389 -594h-133zM340 686h389q160 0 245 72.5t85 208.5t-85 208t-245 72h-389v-561z" />
<glyph unicode="S" horiz-adv-x="1351" d="M680 1372q379 0 510 -297l-96 -78q-54 142 -152.5 206.5t-261.5 64.5q-174 0 -276.5 -77t-102.5 -194q0 -83 50 -137t129.5 -80.5t176 -45.5t193.5 -42t176.5 -58.5t129.5 -107t50 -176.5q0 -166 -139 -268t-369 -102q-210 0 -357 94.5t-202 259.5l113 59 q27 -139 153.5 -224t294.5 -85q174 0 282 69t108 193q0 80 -50 132.5t-130 78.5t-176.5 45t-193 42.5t-176.5 59t-130 106.5t-50 175q0 162 135.5 274.5t360.5 112.5z" />
<glyph unicode="T" horiz-adv-x="1265" d="M1180 1247h-490v-1247h-112v1247h-492v105h1094v-105z" />
<glyph unicode="U" horiz-adv-x="1460" d="M1253 1352v-856q0 -252 -135.5 -384t-386.5 -132t-386.5 132t-135.5 384v856h113v-832q0 -436 409 -436q410 0 410 436v832h112z" />
<glyph unicode="V" horiz-adv-x="1302" d="M1237 1352l-518 -1352h-135l-518 1352h120l465 -1227l465 1227h121z" />
<glyph unicode="W" horiz-adv-x="1947" d="M1888 1352l-418 -1352h-141l-344 1210l-342 -1210h-143l-418 1352h121l311 -1035l57 -221l37 150l314 1106h131l311 -1096l39 -160l59 228l312 1028h114z" />
<glyph unicode="X" horiz-adv-x="1191" d="M993 0l-395 602l-397 -602h-133l473 692l-432 660h135l368 -566l375 566h123l-438 -656l452 -696h-131z" />
<glyph unicode="Y" horiz-adv-x="1169" d="M1122 1352l-481 -826v-526h-113v526l-479 826h133l404 -711l401 711h135z" />
<glyph unicode="Z" horiz-adv-x="1241" d="M1163 104v-104h-1046v104l884 1143h-862v105h998v-105l-883 -1143h909z" />
<glyph unicode="[" horiz-adv-x="780" d="M367 1397v-1643h323v-98h-428v1839h428v-98h-323z" />
<glyph unicode="\" horiz-adv-x="786" d="M152 1495l589 -1638h-106l-590 1638h107z" />
<glyph unicode="]" horiz-adv-x="780" d="M518 1495v-1839h-428v98h324v1643h-324v98h428z" />
<glyph unicode="^" horiz-adv-x="1054" d="M836 713l-308 549l-309 -549h-117l371 639h109l370 -639h-116z" />
<glyph unicode="_" horiz-adv-x="1071" d="M1071 -303h-1071v104h1071v-104z" />
<glyph unicode="`" d="M573 1194h-94l-205 342h132z" />
<glyph unicode="a" horiz-adv-x="1134" d="M1028 76q46 0 80 12l-6 -88q-42 -20 -105 -20q-75 0 -119.5 37t-52.5 130q-48 -79 -149 -123t-213 -44q-151 0 -243.5 68.5t-92.5 193.5q0 243 389 309l307 55v84q0 120 -70.5 188t-201.5 68q-234 0 -322 -213l-84 62q43 120 149 184.5t257 64.5q179 0 282 -87t103 -255 v-524q0 -102 92 -102zM471 78q85 0 164 28t133.5 87t54.5 137v182l-272 -49q-161 -33 -235 -85t-74 -136q0 -78 60.5 -121t168.5 -43z" />
<glyph unicode="b" horiz-adv-x="1282" d="M678 1044q218 0 343.5 -141.5t125.5 -390.5t-125.5 -390.5t-343.5 -141.5q-132 0 -230.5 59t-144.5 162l-14 -201h-92v1495h112v-661q50 98 146 154t223 56zM666 78q173 0 270.5 116t97.5 318t-97.5 318t-270.5 116q-163 0 -260 -114t-97 -310v-20q0 -195 97.5 -309.5 t259.5 -114.5z" />
<glyph unicode="c" horiz-adv-x="1148" d="M623 1044q153 0 259 -72t154 -204l-106 -49q-32 109 -112 168t-197 59q-174 0 -272.5 -115.5t-98.5 -318.5t97 -318.5t271 -115.5q124 0 211 63t115 176l100 -34q-40 -142 -152 -222.5t-271 -80.5q-228 0 -356 141t-128 391q0 249 129 390.5t357 141.5z" />
<glyph unicode="d" horiz-adv-x="1282" d="M1087 1495v-1495h-94l-12 205q-46 -105 -144.5 -165t-232.5 -60q-218 0 -342.5 141t-124.5 391t124.5 391t342.5 141q127 0 224 -56t147 -154v661h112zM618 78q162 0 259.5 114.5t97.5 309.5v20q0 195 -97.5 309.5t-259.5 114.5q-173 0 -270.5 -116t-97.5 -318t97.5 -318 t270.5 -116z" />
<glyph unicode="e" horiz-adv-x="1175" d="M1061 465h-813q10 -183 109.5 -285t265.5 -102q119 0 204.5 47.5t120.5 134.5l94 -49q-123 -231 -419 -231q-228 0 -357 141.5t-129 390.5q0 250 124 391t349 141q214 0 332.5 -140.5t118.5 -389.5v-49zM610 946q-161 0 -255.5 -99.5t-106.5 -279.5h704 q-11 179 -99.5 279t-242.5 100z" />
<glyph unicode="f" horiz-adv-x="770" d="M401 1186v-162h349v-98h-349v-926h-112v926h-205v98h205v172q0 141 79 225t214 84q69 0 109 -16t73 -49l-29 -101q-30 33 -62 48.5t-81 15.5q-86 0 -138.5 -56t-52.5 -161z" />
<glyph unicode="g" horiz-adv-x="1093" d="M477 109h279q138 0 219.5 -65.5t81.5 -170.5q0 -92 -66 -164t-178 -110.5t-250 -38.5q-224 0 -344.5 75t-120.5 195q0 77 51.5 134.5t137.5 82.5q-60 28 -97.5 74.5t-37.5 105.5q0 70 46 120.5t126 74.5q-85 43 -131 117.5t-46 169.5q0 147 114.5 241t293.5 94 q123 0 223 -49q22 106 91.5 161.5t179.5 55.5l26 -100q-210 0 -241 -151q129 -93 129 -252q0 -148 -115 -243t-293 -95q-72 0 -141 16q-76 -17 -116 -53t-40 -86q0 -62 58.5 -100.5t160.5 -38.5zM555 952q-126 0 -209.5 -68.5t-83.5 -174.5q0 -108 83.5 -177t209.5 -69 q127 0 209 69t82 177q0 107 -82 175t-209 68zM575 -346q169 0 270 60t101 147q0 71 -54 111t-165 40h-289q-102 0 -166.5 -44.5t-64.5 -114.5q0 -91 94.5 -145t273.5 -54z" />
<glyph unicode="h" horiz-adv-x="1255" d="M668 1044q177 0 290 -99.5t113 -280.5v-664h-113v627q0 160 -82.5 239.5t-220.5 79.5q-142 0 -244 -100.5t-102 -274.5v-571h-112v1495h112v-661q50 103 144 156.5t215 53.5z" />
<glyph unicode="i" horiz-adv-x="503" d="M252 1415q39 0 66.5 -27.5t27.5 -66.5q0 -40 -27 -68t-67 -28t-67 28t-27 68q0 39 27.5 66.5t66.5 27.5zM309 0h-112v1024h112v-1024z" />
<glyph unicode="j" horiz-adv-x="524" d="M272 1415q38 0 66.5 -28t28.5 -66q0 -39 -28.5 -67.5t-66.5 -28.5q-40 0 -67 28t-27 68q0 39 27.5 66.5t66.5 27.5zM328 1024v-1139q0 -83 -24.5 -147t-67 -102t-94 -57t-109.5 -19q-111 0 -180 59l24 105q63 -56 156 -56q84 0 133 58t49 170v1128h113z" />
<glyph unicode="k" horiz-adv-x="1093" d="M561 551l-252 -254v-297h-112v1495h112v-1055l578 584h143l-389 -391l428 -633h-137z" />
<glyph unicode="l" horiz-adv-x="610" d="M309 1495v-1243q0 -90 30 -128t101 -38q66 0 140 31l-17 -109q-58 -28 -139 -28q-116 0 -171.5 63.5t-55.5 196.5v1255h112z" />
<glyph unicode="m" horiz-adv-x="1986" d="M1405 1044q109 0 197.5 -41t144 -129t55.5 -210v-662h-112v649q0 144 -81.5 219.5t-215.5 75.5q-140 0 -239 -101.5t-99 -260.5v-584h-113v651q0 144 -81.5 219.5t-215.5 75.5q-64 0 -123.5 -25.5t-107 -71.5t-76.5 -118t-29 -158v-573h-112v1024h92l12 -195 q51 102 147 158.5t209 56.5q130 0 231 -60t142 -173q43 110 148.5 171.5t226.5 61.5z" />
<glyph unicode="n" horiz-adv-x="1255" d="M668 1044q177 0 290 -99.5t113 -280.5v-664h-113v627q0 160 -82.5 239.5t-220.5 79.5q-142 0 -244 -100t-102 -273v-573h-112v1024h92l12 -199q50 107 147 163t220 56z" />
<glyph unicode="o" horiz-adv-x="1257" d="M629 1044q232 0 362.5 -141.5t130.5 -390.5t-130.5 -390.5t-362.5 -141.5q-230 0 -361 141.5t-131 390.5t131 390.5t361 141.5zM629 946q-175 0 -275 -116t-100 -318t100 -318t275 -116q177 0 277 115.5t100 318.5t-100 318.5t-277 115.5z" />
<glyph unicode="p" horiz-adv-x="1282" d="M678 1044q218 0 343.5 -141.5t125.5 -390.5t-125.5 -390.5t-343.5 -141.5q-127 0 -223 55t-146 153v-618h-112v1454h92l14 -203q48 104 146.5 163.5t228.5 59.5zM666 78q173 0 270.5 116t97.5 318t-97.5 318t-270.5 116q-163 0 -260 -114t-97 -310v-20 q0 -195 97.5 -309.5t259.5 -114.5z" />
<glyph unicode="q" horiz-adv-x="1282" d="M1087 1024v-1454h-112v623q-48 -100 -145 -156.5t-226 -56.5q-218 0 -342.5 141t-124.5 391t124.5 391t342.5 141q132 0 230.5 -59t146.5 -162l12 201h94zM618 78q162 0 259.5 114.5t97.5 309.5v20q0 195 -97.5 309.5t-259.5 114.5q-173 0 -270.5 -116t-97.5 -318 t97.5 -318t270.5 -116z" />
<glyph unicode="r" horiz-adv-x="794" d="M635 1044q79 0 125 -30l-27 -109q-54 35 -131 35q-121 0 -207 -104t-86 -267v-569h-112v1024h92l14 -205q40 107 125.5 166t206.5 59z" />
<glyph unicode="s" d="M547 1044q163 0 261 -60.5t134 -188.5l-96 -56q-58 207 -299 207q-120 0 -201.5 -55t-81.5 -131q0 -48 23.5 -83t63.5 -55.5t92 -35t109.5 -25.5t115 -23t109.5 -32t92 -48.5t63.5 -75.5t23.5 -110q0 -133 -111.5 -212.5t-301.5 -79.5q-166 0 -280 63t-154 193l98 47 q32 -99 124 -152t224 -53q136 0 212.5 52t76.5 136q0 44 -23.5 76.5t-63.5 51.5t-92 33t-109.5 25.5t-115 24.5t-109.5 34t-92 50t-63.5 76.5t-23.5 110.5q0 126 110 211t285 85z" />
<glyph unicode="t" horiz-adv-x="833" d="M719 160l43 -94q-93 -86 -240 -86q-123 0 -195 68.5t-73 207.5v670h-205v98h205v254l113 31v-285h372v-98h-372v-654q0 -93 45 -140.5t131 -47.5q103 0 176 76z" />
<glyph unicode="u" horiz-adv-x="1247" d="M1053 1024v-1024h-95l-12 197q-50 -106 -151.5 -161.5t-239.5 -55.5q-164 0 -267.5 93.5t-103.5 276.5v674h113v-647q0 -154 73.5 -226.5t204.5 -72.5q156 0 260.5 99t104.5 267v580h113z" />
<glyph unicode="v" horiz-adv-x="1038" d="M1010 1024l-435 -1024h-112l-434 1024h125l366 -887l365 887h125z" />
<glyph unicode="w" horiz-adv-x="1642" d="M1597 1024l-350 -1024h-112l-320 883l-307 -883h-113l-350 1024h125l289 -877l305 877h115l315 -877l279 877h124z" />
<glyph unicode="x" horiz-adv-x="972" d="M788 0l-303 438l-299 -438h-135l375 524l-346 500h137l281 -406l268 406h127l-336 -489l369 -535h-138z" />
<glyph unicode="y" horiz-adv-x="1048" d="M1020 1024l-506 -1210q-59 -141 -128.5 -197.5t-176.5 -56.5q-132 0 -201 78l43 96q53 -76 158 -76q68 0 118.5 40t90.5 144l65 160l-444 1022h127l371 -891l362 891h121z" />
<glyph unicode="z" horiz-adv-x="1081" d="M993 96v-96h-882v90l743 842l-94 -2h-647v94h872v-88l-741 -842l104 2h645z" />
<glyph unicode="{" horiz-adv-x="819" d="M453 1292v-469q0 -195 -205 -243q205 -48 205 -246v-469q0 -71 46.5 -108.5t135.5 -37.5v-92q-289 0 -289 246v453q0 105 -56 154.5t-175 49.5v99q119 0 175 49.5t56 155.5v450q0 246 289 246v-92q-89 0 -135.5 -37.5t-46.5 -108.5z" />
<glyph unicode="|" horiz-adv-x="512" d="M305 -344h-98v1839h98v-1839z" />
<glyph unicode="}" horiz-adv-x="819" d="M473 1284v-450q0 -105 56.5 -155t175.5 -50v-99q-119 0 -175.5 -49.5t-56.5 -154.5v-453q0 -246 -289 -246v92q89 0 136 37.5t47 108.5v469q0 198 204 246q-204 48 -204 243v469q0 71 -47 108.5t-136 37.5v92q289 0 289 -246z" />
<glyph unicode="~" horiz-adv-x="1234" d="M1036 774h117q-35 -315 -299 -315q-62 0 -117 21t-96.5 50.5t-80 59.5t-83 51t-90.5 21q-77 0 -124 -53.5t-62 -151.5h-119q35 315 299 315q59 0 112.5 -21t94.5 -51t80 -59.5t85 -50.5t93 -21q153 0 190 205z" />
<glyph unicode="&#xa1;" horiz-adv-x="487" d="M244 838q-42 0 -71.5 30t-29.5 72q0 41 30 70.5t71 29.5q42 0 71 -29t29 -71q0 -43 -28.5 -72.5t-71.5 -29.5zM184 315l17 314h86l16 -314v-643h-119v643z" />
<glyph unicode="&#xa2;" horiz-adv-x="1134" d="M932 481l100 -35q-38 -136 -143.5 -216.5t-255.5 -86.5v-143h-86v145q-201 20 -311.5 159.5t-110.5 371.5q0 230 111.5 370t310.5 160v146h86v-144q145 -6 245 -77.5t146 -198.5l-106 -49q-31 107 -104.5 167t-180.5 66v-880q116 8 194.5 71t104.5 174zM231 676 q0 -190 82 -303.5t234 -132.5v872q-151 -20 -233.5 -133.5t-82.5 -302.5z" />
<glyph unicode="&#xa3;" horiz-adv-x="1214" d="M1079 193l72 -68q-71 -145 -258 -145q-87 0 -157.5 32t-153.5 92q-111 -124 -295 -124q-97 0 -155 44t-58 115t62.5 118.5t166.5 47.5q129 0 252 -78q18 50 18 103q0 126 -96 260h-309v92h238q-59 79 -90 144t-31 147q0 177 116 288t301 111q157 0 255.5 -79.5 t132.5 -231.5l-99 -51q-24 124 -97.5 192t-197.5 68q-134 0 -215.5 -77t-81.5 -204q0 -46 10 -86.5t34.5 -83.5t40.5 -66t53 -71h397v-92h-336q74 -120 74 -256q0 -86 -41 -160q48 -33 78 -50t80 -32.5t102 -15.5q136 0 188 117zM299 57q133 0 213 97q-112 73 -207 73 q-61 0 -94 -24t-33 -64q0 -38 33 -60t88 -22z" />
<glyph unicode="&#xa4;" horiz-adv-x="1234" d="M1020 678q0 -150 -78 -258l195 -193l-74 -71l-193 190q-107 -80 -252 -80q-151 0 -256 82l-190 -192l-74 73l193 193q-78 108 -78 256q0 144 78 252l-193 190l74 72l190 -188q108 81 256 81t256 -84l189 191l74 -72l-191 -194q74 -104 74 -248zM618 367q129 0 209 86 t80 225q0 137 -80 222t-209 85q-130 0 -211 -85t-81 -222q0 -139 80.5 -225t211.5 -86z" />
<glyph unicode="&#xa5;" horiz-adv-x="1169" d="M743 705l-79 -125l127 6h239v-86h-266l-127 6l4 -55v-166h389v-86h-389v-199h-113v199h-409v86h409v166l7 55l-119 -6h-297v86h260l129 -6l-72 112l-387 660h133l342 -615l58 -137h6l57 135l342 617h135z" />
<glyph unicode="&#xa6;" horiz-adv-x="512" d="M305 774h-98v721h98v-721zM305 -344h-98v721h98v-721z" />
<glyph unicode="&#xa7;" horiz-adv-x="1236" d="M913 172q114 -39 179 -108t65 -185q0 -143 -135 -231t-360 -88q-211 0 -352 77t-193 228l108 51q44 -135 151.5 -196.5t289.5 -59.5q172 0 275 55t103 162q0 57 -30 99t-81 67t-117.5 43.5t-139.5 33t-146 30.5t-139.5 41.5t-117.5 60t-81 91.5t-30 132q0 95 60.5 168.5 t166.5 112.5q-108 39 -167.5 104.5t-59.5 175.5q0 142 131 239t350 97q195 0 314 -59t186 -191l-94 -71q-52 122 -146 172.5t-258 50.5q-173 0 -272 -63t-99 -164q0 -59 30 -102t81.5 -68t117.5 -42.5t139.5 -31t146.5 -28t139 -38.5t117.5 -58.5t81.5 -92.5t30 -135 q0 -100 -65 -170.5t-179 -108.5zM274 485q0 -34 8.5 -62.5t27.5 -50.5t40 -39t54.5 -31.5t62.5 -24.5t72.5 -20t75 -16.5t80 -15.5t79.5 -16q270 53 270 240q0 43 -16 76.5t-49 57t-69.5 41t-91 31t-100 23t-109.5 22t-107 23.5q-106 -32 -167 -92t-61 -146z" />
<glyph unicode="&#xa8;" d="M336 1403q37 0 63.5 -27t26.5 -65q0 -37 -26.5 -63.5t-63.5 -26.5q-38 0 -65 26.5t-27 63.5q0 38 27 65t65 27zM727 1403q38 0 65 -27t27 -65q0 -37 -27 -63.5t-65 -26.5q-37 0 -63.5 26.5t-26.5 63.5q0 38 26.5 65t63.5 27z" />
<glyph unicode="&#xa9;" horiz-adv-x="1589" d="M795 1372q319 0 509.5 -189.5t190.5 -506.5t-190.5 -506.5t-509.5 -189.5t-510 189.5t-191 506.5t191 506.5t510 189.5zM795 1280q-274 0 -437 -164t-163 -440q0 -275 163 -439.5t437 -164.5q273 0 435.5 164t162.5 440q0 277 -162 440.5t-436 163.5zM813 1051 q236 0 313 -199l-84 -41q-56 154 -231 154q-129 0 -201.5 -77.5t-72.5 -215.5t72.5 -215.5t201.5 -77.5q91 0 155 43.5t89 122.5l80 -33q-34 -102 -118.5 -160.5t-203.5 -58.5q-175 0 -274 101t-99 278t99 278t274 101z" />
<glyph unicode="&#xaa;" horiz-adv-x="886" d="M776 717q29 0 47 6v-76q-32 -12 -69 -12q-59 0 -96.5 35.5t-43.5 99.5q-35 -63 -103 -99t-161 -36q-110 0 -173.5 46t-63.5 142q0 87 69.5 138t204.5 75l225 41v37q0 176 -188 176q-168 0 -219 -139l-78 45q27 80 108.5 128t184.5 48q130 0 208.5 -63t78.5 -181v-325 q0 -86 69 -86zM362 717q114 0 182 52.5t68 135.5v101l-198 -37q-102 -20 -154.5 -55t-52.5 -93q0 -51 41.5 -77.5t113.5 -26.5zM119 451h676v-78h-676v78z" />
<glyph unicode="&#xab;" horiz-adv-x="1212" d="M586 936l73 -82l-397 -342l397 -342l-73 -82l-461 424zM1065 936l72 -82l-398 -342l398 -342l-72 -82l-461 424z" />
<glyph unicode="&#xac;" horiz-adv-x="1234" d="M1106 674v-406h-113v301h-864v105h977z" />
<glyph unicode="&#xad;" horiz-adv-x="1079" d="M778 483h-637v117h637v-117z" />
<glyph unicode="&#xae;" horiz-adv-x="1589" d="M795 1372q319 0 509.5 -189.5t190.5 -506.5t-190.5 -506.5t-509.5 -189.5t-510 189.5t-191 506.5t191 506.5t510 189.5zM795 72q273 0 435.5 164t162.5 440q0 277 -162 440.5t-436 163.5t-437 -164t-163 -440q0 -275 163 -439.5t437 -164.5zM1120 823q0 -91 -50.5 -147.5 t-143.5 -75.5l209 -307h-111l-197 301h-194v-301h-96v758h313q125 0 197.5 -60.5t72.5 -167.5zM633 668h215q176 3 176 155t-176 152h-215v-307z" />
<glyph unicode="&#xaf;" d="M864 1257h-698v95h698v-95z" />
<glyph unicode="&#xb0;" horiz-adv-x="835" d="M418 1372q141 0 230 -88t89 -225q0 -138 -89 -227t-230 -89t-230.5 89t-89.5 227q0 137 89.5 225t230.5 88zM418 1280q-98 0 -158.5 -62t-60.5 -159t60.5 -159t158.5 -62q97 0 158 62t61 159t-61 159t-158 62z" />
<glyph unicode="&#xb1;" horiz-adv-x="1234" d="M1106 854v-104h-434v-398h-107v398h-436v104h436v395h107v-395h434zM129 156h977v-105h-977v105z" />
<glyph unicode="&#xb2;" horiz-adv-x="626" d="M559 719v-82h-502v70q51 45 127 107.5t113 94.5t78 75.5t57.5 81t16.5 79.5q0 67 -40 106t-114 39q-72 0 -117 -46t-49 -128l-76 29q12 107 76.5 167t169.5 60q115 0 179.5 -60.5t64.5 -166.5q0 -30 -7.5 -58t-18.5 -51t-33 -50.5t-41.5 -47.5t-54.5 -50.5t-61 -51.5 t-72 -58t-77 -63l74 4h307z" />
<glyph unicode="&#xb3;" horiz-adv-x="708" d="M406 999q91 0 140.5 -46t49.5 -119q0 -97 -70.5 -152t-185.5 -55q-117 0 -182 44.5t-95 139.5l76 41q26 -78 73 -112.5t124 -34.5q84 0 126.5 35.5t39.5 97.5q-3 118 -185 118h-51v80h51q168 0 168 127q0 61 -40 94t-113 33q-137 0 -166 -121l-74 35q23 83 81.5 125.5 t168.5 42.5q108 0 173 -53t65 -145q0 -78 -48.5 -126.5t-125.5 -48.5z" />
<glyph unicode="&#xb4;" d="M791 1536l-205 -342h-97l168 342h134z" />
<glyph unicode="&#xb5;" horiz-adv-x="1257" d="M1063 1024v-1024h-94l-13 195q-50 -102 -151 -158.5t-240 -56.5q-173 0 -256 131v-541h-112v1454h112v-647q0 -154 73 -226.5t204 -72.5q151 0 251.5 87.5t112.5 223.5v635h113z" />
<glyph unicode="&#xb6;" horiz-adv-x="1316" d="M1090 1352v-1782h-101v1687h-272v-1687h-101l-6 967q-232 1 -359.5 107.5t-127.5 297.5q0 195 131.5 302t380.5 108h455z" />
<glyph unicode="&#xb7;" horiz-adv-x="485" d="M242 655q41 0 71.5 -29.5t30.5 -70.5q0 -42 -30 -72t-72 -30t-71.5 29.5t-29.5 72.5q0 41 30 70.5t71 29.5z" />
<glyph unicode="&#xb8;" horiz-adv-x="1277" d="M526 6l72 27q242 -90 242 -262q0 -86 -58.5 -143.5t-156.5 -57.5q-135 0 -213 78l43 78q64 -70 157 -70q56 0 91.5 35t35.5 92q0 67 -44.5 115t-168.5 108z" />
<glyph unicode="&#xb9;" horiz-adv-x="432" d="M322 1352v-725h-95v483l6 158q-87 -96 -215 -133v92q55 10 122 46.5t98 78.5h84z" />
<glyph unicode="&#xba;" horiz-adv-x="886" d="M459 1372q154 0 248 -98t94 -266t-94 -266.5t-248 -98.5t-248 98.5t-94 266.5t94 266t248 98zM459 1290q-115 0 -181.5 -73t-66.5 -209t66.5 -209.5t181.5 -73.5t181.5 73.5t66.5 209.5t-66.5 209t-181.5 73zM795 373h-670v78h670v-78z" />
<glyph unicode="&#xbb;" horiz-adv-x="1212" d="M147 88l-73 82l397 342l-397 342l73 82l461 -424zM625 88l-72 82l397 342l-397 342l72 82l462 -424z" />
<glyph unicode="&#xbc;" horiz-adv-x="1441" d="M346 1110l6 158q-87 -96 -215 -133v92q54 10 121 46.5t98 78.5h84v-725h-94v483zM1255 1352l-884 -1352h-109l883 1352h110zM1374 195h-155v-195h-89v195h-309v67l295 463h103v-453h155v-77zM985 272h148l12 381l-39 -75l-152 -234l-57 -78z" />
<glyph unicode="&#xbd;" horiz-adv-x="1507" d="M319 1110l7 156q-89 -96 -215 -131v92q54 10 121 46.5t98 78.5h84v-725h-95v483zM1229 1352l-885 -1352h-108l882 1352h111zM1440 82v-82h-502v70q46 41 108 92t97.5 80.5t75.5 67.5t61 66t35 62.5t14 69.5q0 67 -39.5 106t-113.5 39q-72 0 -117 -46t-49 -128l-76 29 q12 107 76.5 167t169.5 60q115 0 179 -60.5t64 -166.5q0 -34 -7.5 -64t-28 -61t-38.5 -54t-57 -57.5t-65 -56.5t-80.5 -66t-87.5 -71l74 4h307z" />
<glyph unicode="&#xbe;" horiz-adv-x="1507" d="M672 834q0 -97 -71 -152t-187 -55q-117 0 -182 44.5t-93 139.5l74 41q26 -77 73.5 -112t123.5 -35q86 0 128.5 35.5t39.5 97.5q-3 118 -185 118h-51v80h51q168 0 168 127q0 61 -40.5 94t-114.5 33q-137 0 -166 -121l-74 35q24 84 82.5 126t167.5 42q108 0 173.5 -53.5 t65.5 -144.5q0 -78 -48.5 -126.5t-125.5 -48.5q90 0 140.5 -46t50.5 -119zM1354 1352l-883 -1352h-109l883 1352h109zM1454 195h-158v-195h-88v195h-309v67l297 463h100v-453h158v-77zM1065 272h145l13 379l-37 -73l-152 -234l-59 -78z" />
<glyph unicode="&#xbf;" horiz-adv-x="1071" d="M569 838q-43 0 -72.5 29.5t-29.5 72.5q0 41 29.5 70.5t72.5 29.5q41 0 71 -29.5t30 -70.5q0 -42 -30 -72t-71 -30zM537 -348q-200 0 -316.5 93t-116.5 255q0 68 21.5 125.5t56.5 99t77.5 78.5t85 71.5t77.5 70.5t58 83t24 101h117q-2 -66 -25 -123.5t-58 -98.5 t-77.5 -78.5t-84.5 -71.5t-77 -69t-56.5 -80t-21.5 -96q0 -120 83.5 -188t238.5 -68q146 0 238.5 79.5t109.5 219.5l100 -55q-31 -161 -151 -254.5t-303 -93.5z" />
<glyph unicode="&#xc0;" horiz-adv-x="1302" d="M600 1522l-162 303h133l123 -303h-94zM973 416h-643l-164 -416h-121l539 1352h135l538 -1352h-120zM932 520l-281 713l-280 -713h561z" />
<glyph unicode="&#xc1;" horiz-adv-x="1302" d="M692 1522h-94l123 303h133zM973 416h-643l-164 -416h-121l539 1352h135l538 -1352h-120zM932 520l-281 713l-280 -713h561z" />
<glyph unicode="&#xc2;" horiz-adv-x="1302" d="M461 1534h-107l234 321h127l233 -321h-106l-191 246zM973 416h-643l-164 -416h-121l539 1352h135l538 -1352h-120zM932 520l-281 713l-280 -713h561z" />
<glyph unicode="&#xc3;" horiz-adv-x="1302" d="M506 1712q-56 0 -81 -35.5t-38 -113.5h-90q14 123 64.5 183t146.5 60q38 0 72.5 -15t59.5 -37t48 -43.5t50 -36.5t55 -15q58 0 83.5 35.5t38.5 113.5h91q-14 -122 -65 -182.5t-146 -60.5q-39 0 -73 15t-59 36.5t-48 43.5t-51 37t-58 15zM973 416h-643l-164 -416h-121 l539 1352h135l538 -1352h-120zM932 520l-281 713l-280 -713h561z" />
<glyph unicode="&#xc4;" horiz-adv-x="1302" d="M451 1548q-38 0 -65.5 26.5t-27.5 63.5q0 38 27.5 65.5t65.5 27.5q37 0 63.5 -27.5t26.5 -65.5q0 -37 -26.5 -63.5t-63.5 -26.5zM842 1548q-37 0 -63.5 26.5t-26.5 63.5q0 38 26.5 65.5t63.5 27.5q38 0 65 -27.5t27 -65.5q0 -37 -27 -63.5t-65 -26.5zM973 416h-643 l-164 -416h-121l539 1352h135l538 -1352h-120zM932 520l-281 713l-280 -713h561z" />
<glyph unicode="&#xc5;" horiz-adv-x="1302" d="M973 416h-643l-164 -416h-121l516 1296q-69 22 -109 78.5t-40 132.5q0 99 64.5 161.5t168.5 62.5t169 -62.5t65 -161.5q0 -73 -37.5 -128.5t-102.5 -78.5l518 -1300h-120zM494 1507q0 -65 42.5 -107t108.5 -42q67 0 110.5 42t43.5 107q0 66 -43.5 109t-110.5 43 q-66 0 -108.5 -43t-42.5 -109zM932 520l-281 713l-280 -713h561z" />
<glyph unicode="&#xc6;" horiz-adv-x="1896" d="M1804 104v-104h-897v416h-538l-248 -416h-133l819 1352h965v-105h-752v-510h584v-104h-584v-529h784zM907 520v727h-41l-434 -727h475z" />
<glyph unicode="&#xc7;" horiz-adv-x="1396" d="M1198 385l111 -43q-52 -155 -174.5 -248t-294.5 -110q137 -84 137 -213q0 -86 -58.5 -143.5t-156.5 -57.5q-135 0 -213 78l43 78q64 -70 158 -70q56 0 91.5 35t35.5 92q0 60 -35 104t-129 95q-259 19 -410 204.5t-151 489.5q0 320 167.5 508t446.5 188q402 0 524 -332 l-110 -51q-96 279 -406 279q-229 0 -366.5 -159t-137.5 -433t135 -433t363 -159q160 0 272.5 77.5t157.5 223.5z" />
<glyph unicode="&#xc8;" horiz-adv-x="1280" d="M639 1522l-162 303h133l123 -303h-94zM1186 104v-104h-959v1352h928v-105h-815v-508h641v-104h-641v-531h846z" />
<glyph unicode="&#xc9;" horiz-adv-x="1280" d="M731 1522h-94l123 303h133zM1186 104v-104h-959v1352h928v-105h-815v-508h641v-104h-641v-531h846z" />
<glyph unicode="&#xca;" horiz-adv-x="1280" d="M500 1534h-107l234 321h127l233 -321h-106l-191 246zM1186 104v-104h-959v1352h928v-105h-815v-508h641v-104h-641v-531h846z" />
<glyph unicode="&#xcb;" horiz-adv-x="1280" d="M489 1548q-38 0 -65 26.5t-27 63.5q0 38 27 65.5t65 27.5q37 0 64 -27.5t27 -65.5q0 -37 -27 -63.5t-64 -26.5zM881 1548q-37 0 -63.5 26.5t-26.5 63.5q0 38 26.5 65.5t63.5 27.5q38 0 65 -27.5t27 -65.5q0 -37 -27 -63.5t-65 -26.5zM1186 104v-104h-959v1352h928v-105 h-815v-508h641v-104h-641v-531h846z" />
<glyph unicode="&#xcc;" horiz-adv-x="567" d="M326 1522h-95l-161 303h133zM340 0h-113v1352h113v-1352z" />
<glyph unicode="&#xcd;" horiz-adv-x="567" d="M485 1825l-161 -303h-95l123 303h133zM340 0h-113v1352h113v-1352z" />
<glyph unicode="&#xce;" horiz-adv-x="567" d="M473 1534l-190 246l-191 -246h-106l233 321h127l234 -321h-107zM340 0h-113v1352h113v-1352z" />
<glyph unicode="&#xcf;" horiz-adv-x="567" d="M82 1731q37 0 63.5 -27.5t26.5 -65.5q0 -37 -26.5 -63.5t-63.5 -26.5q-38 0 -65 26.5t-27 63.5q0 38 27 65.5t65 27.5zM473 1731q38 0 65 -27.5t27 -65.5q0 -37 -27 -63.5t-65 -26.5q-37 0 -63.5 26.5t-26.5 63.5q0 38 26.5 65.5t63.5 27.5zM340 0h-113v1352h113v-1352z " />
<glyph unicode="&#xd0;" horiz-adv-x="1480" d="M227 1352h428q324 0 499 -172.5t175 -495.5q0 -330 -175 -507t-499 -177h-428v680h-207v86h207v586zM340 104h326q262 0 404 151t142 429q0 270 -142 416.5t-404 146.5h-326v-481h408v-86h-408v-576z" />
<glyph unicode="&#xd1;" horiz-adv-x="1499" d="M608 1712q-56 0 -81 -35.5t-38 -113.5h-90q14 123 64.5 183t146.5 60q38 0 72.5 -15t59.5 -37t48 -43.5t50 -36.5t55 -15q58 0 84 36t39 113h90q-14 -122 -65 -182.5t-146 -60.5q-39 0 -73 15t-59 36.5t-48 43.5t-51 37t-58 15zM1272 1352v-1352h-137l-707 1051l-94 172 l6 -144v-1079h-113v1352h138l704 -1049l96 -174l-6 158v1065h113z" />
<glyph unicode="&#xd2;" horiz-adv-x="1548" d="M817 1522h-94l-162 303h133zM774 1372q287 0 455 -187.5t168 -508.5t-168 -508.5t-455 -187.5t-454.5 187.5t-167.5 508.5t167.5 508.5t454.5 187.5zM774 1268q-234 0 -369 -158.5t-135 -433.5t135 -433.5t369 -158.5t370 158.5t136 433.5t-136 433.5t-370 158.5z" />
<glyph unicode="&#xd3;" horiz-adv-x="1548" d="M977 1825l-162 -303h-94l123 303h133zM774 1372q287 0 455 -187.5t168 -508.5t-168 -508.5t-455 -187.5t-454.5 187.5t-167.5 508.5t167.5 508.5t454.5 187.5zM774 1268q-234 0 -369 -158.5t-135 -433.5t135 -433.5t369 -158.5t370 158.5t136 433.5t-136 433.5 t-370 158.5z" />
<glyph unicode="&#xd4;" horiz-adv-x="1548" d="M965 1534l-191 246l-190 -246h-107l234 321h127l233 -321h-106zM774 1372q287 0 455 -187.5t168 -508.5t-168 -508.5t-455 -187.5t-454.5 187.5t-167.5 508.5t167.5 508.5t454.5 187.5zM774 1268q-234 0 -369 -158.5t-135 -433.5t135 -433.5t369 -158.5t370 158.5 t136 433.5t-136 433.5t-370 158.5z" />
<glyph unicode="&#xd5;" horiz-adv-x="1548" d="M1038 1808h90q-14 -122 -64.5 -182.5t-145.5 -60.5q-39 0 -73 15t-59 36.5t-48 43.5t-51 37t-58 15q-56 0 -81 -35.5t-38 -113.5h-90q14 123 64.5 183t146.5 60q47 0 88.5 -23t67.5 -50.5t60 -50.5t68 -23q58 0 84 36t39 113zM774 1372q287 0 455 -187.5t168 -508.5 t-168 -508.5t-455 -187.5t-454.5 187.5t-167.5 508.5t167.5 508.5t454.5 187.5zM774 1268q-234 0 -369 -158.5t-135 -433.5t135 -433.5t369 -158.5t370 158.5t136 433.5t-136 433.5t-370 158.5z" />
<glyph unicode="&#xd6;" horiz-adv-x="1548" d="M573 1731q37 0 64 -27.5t27 -65.5q0 -37 -27 -63.5t-64 -26.5q-38 0 -65 26.5t-27 63.5q0 38 27 65.5t65 27.5zM965 1731q38 0 65 -27.5t27 -65.5q0 -37 -27 -63.5t-65 -26.5q-37 0 -64 26.5t-27 63.5q0 38 27 65.5t64 27.5zM774 1372q287 0 455 -187.5t168 -508.5 t-168 -508.5t-455 -187.5t-454.5 187.5t-167.5 508.5t167.5 508.5t454.5 187.5zM774 1268q-234 0 -369 -158.5t-135 -433.5t135 -433.5t369 -158.5t370 158.5t136 433.5t-136 433.5t-370 158.5z" />
<glyph unicode="&#xd7;" horiz-adv-x="1234" d="M692 625l324 -328l-74 -74l-324 326l-323 -326l-76 74l324 328l-326 327l76 74l325 -328l324 328l74 -74z" />
<glyph unicode="&#xd8;" horiz-adv-x="1548" d="M1348 1425l-148 -211q197 -188 197 -538q0 -321 -168 -508.5t-455 -187.5q-210 0 -358 102l-111 -158h-106l149 213q-196 187 -196 539q0 321 167.5 508.5t454.5 187.5q211 0 361 -104l108 157h105zM270 676q0 -283 144 -443l657 945q-122 90 -297 90q-234 0 -369 -158.5 t-135 -433.5zM774 84q234 0 370 158.5t136 433.5q0 287 -145 444l-656 -946q122 -90 295 -90z" />
<glyph unicode="&#xd9;" horiz-adv-x="1460" d="M797 1522h-95l-161 303h133zM1253 1352v-856q0 -252 -135.5 -384t-386.5 -132t-386.5 132t-135.5 384v856h113v-832q0 -436 409 -436q410 0 410 436v832h112z" />
<glyph unicode="&#xda;" horiz-adv-x="1460" d="M934 1825l-162 -303h-94l123 303h133zM1253 1352v-856q0 -252 -135.5 -384t-386.5 -132t-386.5 132t-135.5 384v856h113v-832q0 -436 409 -436q410 0 410 436v832h112z" />
<glyph unicode="&#xdb;" horiz-adv-x="1460" d="M922 1534l-191 246l-190 -246h-107l234 321h127l233 -321h-106zM1253 1352v-856q0 -252 -135.5 -384t-386.5 -132t-386.5 132t-135.5 384v856h113v-832q0 -436 409 -436q410 0 410 436v832h112z" />
<glyph unicode="&#xdc;" horiz-adv-x="1460" d="M530 1731q37 0 64 -27.5t27 -65.5q0 -37 -27 -63.5t-64 -26.5q-38 0 -65 26.5t-27 63.5q0 38 27 65.5t65 27.5zM922 1731q38 0 65 -27.5t27 -65.5q0 -37 -27 -63.5t-65 -26.5q-37 0 -64 26.5t-27 63.5q0 38 27 65.5t64 27.5zM1253 1352v-856q0 -252 -135.5 -384 t-386.5 -132t-386.5 132t-135.5 384v856h113v-832q0 -436 409 -436q410 0 410 436v832h112z" />
<glyph unicode="&#xdd;" horiz-adv-x="1169" d="M627 1522h-95l123 303h133zM1122 1352l-481 -826v-526h-113v526l-479 826h133l404 -711l401 711h135z" />
<glyph unicode="&#xde;" horiz-adv-x="1300" d="M340 1096h315q246 0 370 -103t124 -301q0 -197 -124.5 -300t-369.5 -103h-315v-289h-113v1352h113v-256zM340 393h334q358 0 358 299t-358 299h-334v-598z" />
<glyph unicode="&#xdf;" horiz-adv-x="1218" d="M750 793q119 -7 203.5 -64t123.5 -144t39 -194q0 -176 -114 -293.5t-312 -117.5q-66 0 -125 21t-90 54l37 90q66 -63 184 -63q145 0 227.5 87.5t82.5 233.5q0 160 -98.5 243t-276.5 83h-84v105h84q142 0 227.5 80t85.5 214q0 133 -78 203t-223 70q-177 0 -256.5 -100.5 t-79.5 -305.5v-995h-110v1032q0 473 456 473q102 0 182 -30.5t127.5 -83.5t72 -118t24.5 -138q0 -139 -84.5 -235.5t-224.5 -106.5z" />
<glyph unicode="&#xe0;" horiz-adv-x="1134" d="M528 1194l-204 342h131l168 -342h-95zM1028 76q46 0 80 12l-6 -88q-42 -20 -105 -20q-75 0 -119.5 37t-52.5 130q-48 -79 -149 -123t-213 -44q-151 0 -243.5 68.5t-92.5 193.5q0 243 389 309l307 55v84q0 120 -70.5 188t-201.5 68q-234 0 -322 -213l-84 62 q43 120 149 184.5t257 64.5q179 0 282 -87t103 -255v-524q0 -102 92 -102zM471 78q85 0 164 28t133.5 87t54.5 137v182l-272 -49q-161 -33 -235 -85t-74 -136q0 -78 60.5 -121t168.5 -43z" />
<glyph unicode="&#xe1;" horiz-adv-x="1134" d="M588 1194h-94l168 342h131zM1028 76q46 0 80 12l-6 -88q-42 -20 -105 -20q-75 0 -119.5 37t-52.5 130q-48 -79 -149 -123t-213 -44q-151 0 -243.5 68.5t-92.5 193.5q0 243 389 309l307 55v84q0 120 -70.5 188t-201.5 68q-234 0 -322 -213l-84 62q43 120 149 184.5 t257 64.5q179 0 282 -87t103 -255v-524q0 -102 92 -102zM471 78q85 0 164 28t133.5 87t54.5 137v182l-272 -49q-161 -33 -235 -85t-74 -136q0 -78 60.5 -121t168.5 -43z" />
<glyph unicode="&#xe2;" horiz-adv-x="1134" d="M367 1206h-107l234 322h127l233 -322h-106l-191 246zM1028 76q46 0 80 12l-6 -88q-42 -20 -105 -20q-75 0 -119.5 37t-52.5 130q-48 -79 -149 -123t-213 -44q-151 0 -243.5 68.5t-92.5 193.5q0 243 389 309l307 55v84q0 120 -70.5 188t-201.5 68q-234 0 -322 -213l-84 62 q43 120 149 184.5t257 64.5q179 0 282 -87t103 -255v-524q0 -102 92 -102zM471 78q85 0 164 28t133.5 87t54.5 137v182l-272 -49q-161 -33 -235 -85t-74 -136q0 -78 60.5 -121t168.5 -43z" />
<glyph unicode="&#xe3;" horiz-adv-x="1134" d="M412 1384q-56 0 -81 -35.5t-38 -113.5h-90q14 123 64.5 183.5t146.5 60.5q47 0 88.5 -23t67.5 -51t60 -51t68 -23q58 0 84 36.5t39 113.5h90q-14 -122 -65 -183t-146 -61q-39 0 -73 15t-58.5 36.5t-48 43.5t-51 37t-57.5 15zM1028 76q46 0 80 12l-6 -88q-42 -20 -105 -20 q-75 0 -119.5 37t-52.5 130q-48 -79 -149 -123t-213 -44q-151 0 -243.5 68.5t-92.5 193.5q0 243 389 309l307 55v84q0 120 -70.5 188t-201.5 68q-234 0 -322 -213l-84 62q43 120 149 184.5t257 64.5q179 0 282 -87t103 -255v-524q0 -102 92 -102zM471 78q85 0 164 28 t133.5 87t54.5 137v182l-272 -49q-161 -33 -235 -85t-74 -136q0 -78 60.5 -121t168.5 -43z" />
<glyph unicode="&#xe4;" horiz-adv-x="1134" d="M356 1221q-38 0 -65 26.5t-27 63.5q0 38 27 65t65 27q37 0 63.5 -27t26.5 -65q0 -37 -26.5 -63.5t-63.5 -26.5zM748 1221q-37 0 -64 26.5t-27 63.5q0 38 27 65t64 27q38 0 65 -27t27 -65q0 -37 -27 -63.5t-65 -26.5zM1028 76q46 0 80 12l-6 -88q-42 -20 -105 -20 q-75 0 -119.5 37t-52.5 130q-48 -79 -149 -123t-213 -44q-151 0 -243.5 68.5t-92.5 193.5q0 243 389 309l307 55v84q0 120 -70.5 188t-201.5 68q-234 0 -322 -213l-84 62q43 120 149 184.5t257 64.5q179 0 282 -87t103 -255v-524q0 -102 92 -102zM471 78q85 0 164 28 t133.5 87t54.5 137v182l-272 -49q-161 -33 -235 -85t-74 -136q0 -78 60.5 -121t168.5 -43z" />
<glyph unicode="&#xe5;" horiz-adv-x="1134" d="M551 1184q-104 0 -169 61.5t-65 161.5q0 99 65 161t169 62t168.5 -62t64.5 -161q0 -100 -64.5 -161.5t-168.5 -61.5zM551 1556q-66 0 -109 -41.5t-43 -107.5t43 -108t109 -42q68 0 111 42t43 108t-43 107.5t-111 41.5zM1028 76q46 0 80 12l-6 -88q-42 -20 -105 -20 q-75 0 -119.5 37t-52.5 130q-48 -79 -149 -123t-213 -44q-151 0 -243.5 68.5t-92.5 193.5q0 243 389 309l307 55v84q0 120 -70.5 188t-201.5 68q-234 0 -322 -213l-84 62q43 120 149 184.5t257 64.5q179 0 282 -87t103 -255v-524q0 -102 92 -102zM471 78q85 0 164 28 t133.5 87t54.5 137v182l-272 -49q-161 -33 -235 -85t-74 -136q0 -78 60.5 -121t168.5 -43z" />
<glyph unicode="&#xe6;" horiz-adv-x="1816" d="M1702 479h-772q8 -189 100 -295t250 -106q124 0 197 45.5t108 136.5l94 -49q-55 -113 -152.5 -172t-252.5 -59q-147 0 -248 72t-149 204q-35 -137 -153 -206.5t-273 -69.5q-149 0 -236.5 69.5t-87.5 192.5q0 121 93.5 199.5t281.5 101.5l327 39v106q0 121 -73 189.5 t-207 68.5q-230 0 -316 -215l-88 64q46 121 150.5 185t255.5 64q133 0 224.5 -59.5t127.5 -173.5q55 108 149 170.5t220 62.5q210 0 320 -133.5t110 -380.5v-51zM934 582h661q-8 175 -91.5 269.5t-233.5 94.5q-142 0 -231.5 -96.5t-104.5 -267.5zM471 78q51 0 101 11.5 t96.5 37t82 61.5t57 90t21.5 119v95l-292 -37q-157 -21 -226 -73.5t-69 -139.5q0 -81 60.5 -122.5t168.5 -41.5z" />
<glyph unicode="&#xe7;" horiz-adv-x="1148" d="M944 317l100 -34q-35 -126 -129 -205t-227 -94q137 -86 137 -213q0 -86 -58.5 -143.5t-156.5 -57.5q-135 0 -213 78l43 78q64 -70 158 -70q56 0 91.5 35t35.5 92q0 60 -35 104t-131 95q-201 20 -311.5 159t-110.5 371q0 249 129 390.5t357 141.5q153 0 259 -72t154 -204 l-106 -49q-32 109 -112 168t-197 59q-174 0 -272.5 -115.5t-98.5 -318.5t97 -318.5t271 -115.5q124 0 211 63t115 176z" />
<glyph unicode="&#xe8;" horiz-adv-x="1175" d="M575 1194l-204 342h131l168 -342h-95zM1061 465h-813q10 -183 109.5 -285t265.5 -102q119 0 204.5 47.5t120.5 134.5l94 -49q-123 -231 -419 -231q-228 0 -357 141.5t-129 390.5q0 250 124 391t349 141q214 0 332.5 -140.5t118.5 -389.5v-49zM610 946 q-161 0 -255.5 -99.5t-106.5 -279.5h704q-11 179 -99.5 279t-242.5 100z" />
<glyph unicode="&#xe9;" horiz-adv-x="1175" d="M635 1194h-94l168 342h131zM1061 465h-813q10 -183 109.5 -285t265.5 -102q119 0 204.5 47.5t120.5 134.5l94 -49q-123 -231 -419 -231q-228 0 -357 141.5t-129 390.5q0 250 124 391t349 141q214 0 332.5 -140.5t118.5 -389.5v-49zM610 946q-161 0 -255.5 -99.5 t-106.5 -279.5h704q-11 179 -99.5 279t-242.5 100z" />
<glyph unicode="&#xea;" horiz-adv-x="1175" d="M414 1206h-107l234 322h127l233 -322h-106l-191 246zM1061 465h-813q10 -183 109.5 -285t265.5 -102q119 0 204.5 47.5t120.5 134.5l94 -49q-123 -231 -419 -231q-228 0 -357 141.5t-129 390.5q0 250 124 391t349 141q214 0 332.5 -140.5t118.5 -389.5v-49zM610 946 q-161 0 -255.5 -99.5t-106.5 -279.5h704q-11 179 -99.5 279t-242.5 100z" />
<glyph unicode="&#xeb;" horiz-adv-x="1175" d="M403 1221q-38 0 -65 26.5t-27 63.5q0 38 27 65t65 27q37 0 64 -27t27 -65q0 -37 -27 -63.5t-64 -26.5zM795 1221q-37 0 -63.5 26.5t-26.5 63.5q0 38 26.5 65t63.5 27q38 0 65 -27t27 -65q0 -37 -27 -63.5t-65 -26.5zM1061 465h-813q10 -183 109.5 -285t265.5 -102 q119 0 204.5 47.5t120.5 134.5l94 -49q-123 -231 -419 -231q-228 0 -357 141.5t-129 390.5q0 250 124 391t349 141q214 0 332.5 -140.5t118.5 -389.5v-49zM610 946q-161 0 -255.5 -99.5t-106.5 -279.5h704q-11 179 -99.5 279t-242.5 100z" />
<glyph unicode="&#xec;" horiz-adv-x="503" d="M317 1194h-94l-205 342h132zM309 0h-112v1024h112v-1024z" />
<glyph unicode="&#xed;" horiz-adv-x="503" d="M489 1536l-204 -342h-95l168 342h131zM309 0h-112v1024h112v-1024z" />
<glyph unicode="&#xee;" horiz-adv-x="503" d="M442 1206l-190 246l-191 -246h-106l233 322h127l234 -322h-107zM309 0h-112v1024h112v-1024z" />
<glyph unicode="&#xef;" horiz-adv-x="503" d="M113 1415q38 0 65 -26.5t27 -63.5q0 -38 -27 -66t-65 -28t-65.5 28t-27.5 66q0 37 27.5 63.5t65.5 26.5zM391 1415q38 0 65 -26.5t27 -63.5q0 -38 -27 -66t-65 -28t-65 28t-27 66q0 37 27 63.5t65 26.5zM309 0h-112v1024h112v-1024z" />
<glyph unicode="&#xf0;" horiz-adv-x="1224" d="M977 1477l-170 -113q145 -127 220 -331.5t75 -454.5q0 -276 -129 -437t-367 -161q-223 0 -353 136t-130 371q0 230 132.5 368t342.5 138q146 0 245.5 -68.5t143.5 -197.5q-44 405 -256 588l-278 -185l-45 68l254 166q-137 83 -320 80l-149 -6l28 92h113q234 0 403 -115 l193 127zM612 78q177 0 282 120.5t105 303.5q-8 182 -108.5 287.5t-278.5 105.5q-172 0 -272 -110t-100 -298q0 -190 100 -299.5t272 -109.5z" />
<glyph unicode="&#xf1;" horiz-adv-x="1255" d="M498 1384q-56 0 -81 -35.5t-38 -113.5h-90q14 123 64.5 183.5t146.5 60.5q47 0 88.5 -23t67.5 -51t60 -51t68 -23q58 0 84 36.5t39 113.5h90q-14 -122 -65 -183t-146 -61q-39 0 -73 15t-58.5 36.5t-48 43.5t-51 37t-57.5 15zM668 1044q177 0 290 -99.5t113 -280.5v-664 h-113v627q0 160 -82.5 239.5t-220.5 79.5q-142 0 -244 -100t-102 -273v-573h-112v1024h92l12 -199q50 107 147 163t220 56z" />
<glyph unicode="&#xf2;" horiz-adv-x="1257" d="M696 1194h-94l-205 342h131zM629 1044q232 0 362.5 -141.5t130.5 -390.5t-130.5 -390.5t-362.5 -141.5q-230 0 -361 141.5t-131 390.5t131 390.5t361 141.5zM629 946q-175 0 -275 -116t-100 -318t100 -318t275 -116q177 0 277 115.5t100 318.5t-100 318.5t-277 115.5z " />
<glyph unicode="&#xf3;" horiz-adv-x="1257" d="M866 1536l-204 -342h-95l168 342h131zM629 1044q232 0 362.5 -141.5t130.5 -390.5t-130.5 -390.5t-362.5 -141.5q-230 0 -361 141.5t-131 390.5t131 390.5t361 141.5zM629 946q-175 0 -275 -116t-100 -318t100 -318t275 -116q177 0 277 115.5t100 318.5t-100 318.5 t-277 115.5z" />
<glyph unicode="&#xf4;" horiz-adv-x="1257" d="M819 1206l-190 246l-191 -246h-106l233 322h127l234 -322h-107zM629 1044q232 0 362.5 -141.5t130.5 -390.5t-130.5 -390.5t-362.5 -141.5q-230 0 -361 141.5t-131 390.5t131 390.5t361 141.5zM629 946q-175 0 -275 -116t-100 -318t100 -318t275 -116q177 0 277 115.5 t100 318.5t-100 318.5t-277 115.5z" />
<glyph unicode="&#xf5;" horiz-adv-x="1257" d="M893 1481h90q-14 -122 -65 -183t-146 -61q-39 0 -73 15t-59 36.5t-48 43.5t-51 37t-58 15q-56 0 -80.5 -35.5t-37.5 -113.5h-91q14 123 64.5 183.5t146.5 60.5q38 0 72.5 -15t59.5 -37t48 -44t50 -37t55 -15q58 0 84 36.5t39 113.5zM629 1044q232 0 362.5 -141.5 t130.5 -390.5t-130.5 -390.5t-362.5 -141.5q-230 0 -361 141.5t-131 390.5t131 390.5t361 141.5zM629 946q-175 0 -275 -116t-100 -318t100 -318t275 -116q177 0 277 115.5t100 318.5t-100 318.5t-277 115.5z" />
<glyph unicode="&#xf6;" horiz-adv-x="1257" d="M428 1403q37 0 63.5 -27t26.5 -65q0 -37 -26.5 -63.5t-63.5 -26.5q-38 0 -65 26.5t-27 63.5q0 38 27 65t65 27zM819 1403q38 0 65 -27t27 -65q0 -37 -27 -63.5t-65 -26.5q-37 0 -63.5 26.5t-26.5 63.5q0 38 26.5 65t63.5 27zM629 1044q232 0 362.5 -141.5t130.5 -390.5 t-130.5 -390.5t-362.5 -141.5q-230 0 -361 141.5t-131 390.5t131 390.5t361 141.5zM629 946q-175 0 -275 -116t-100 -318t100 -318t275 -116q177 0 277 115.5t100 318.5t-100 318.5t-277 115.5z" />
<glyph unicode="&#xf7;" horiz-adv-x="1218" d="M610 922q-42 0 -71 29t-29 71q0 43 28.5 72.5t71.5 29.5q42 0 71.5 -30t29.5 -72q0 -41 -30 -70.5t-71 -29.5zM1098 569h-977v105h977v-105zM610 322q41 0 71 -30t30 -71t-30 -70.5t-71 -29.5q-42 0 -71 29t-29 71t29 71.5t71 29.5z" />
<glyph unicode="&#xf8;" horiz-adv-x="1271" d="M1126 1106l-145 -195q139 -142 139 -399q0 -249 -130.5 -390.5t-360.5 -141.5q-169 0 -285 75l-98 -131h-101l136 182q-146 143 -146 406q0 249 132 390.5t362 141.5q172 0 291 -81l106 143h100zM252 512q0 -198 98 -313l504 678q-90 69 -225 69q-175 0 -276 -116 t-101 -318zM1004 512q0 193 -91 307l-503 -676q89 -65 219 -65q175 0 275 116t100 318z" />
<glyph unicode="&#xf9;" horiz-adv-x="1247" d="M588 1194l-205 342h131l168 -342h-94zM1053 1024v-1024h-95l-12 197q-50 -106 -151.5 -161.5t-239.5 -55.5q-164 0 -267.5 93.5t-103.5 276.5v674h113v-647q0 -154 73.5 -226.5t204.5 -72.5q156 0 260.5 99t104.5 267v580h113z" />
<glyph unicode="&#xfa;" horiz-adv-x="1247" d="M647 1194h-94l168 342h131zM1053 1024v-1024h-95l-12 197q-50 -106 -151.5 -161.5t-239.5 -55.5q-164 0 -267.5 93.5t-103.5 276.5v674h113v-647q0 -154 73.5 -226.5t204.5 -72.5q156 0 260.5 99t104.5 267v580h113z" />
<glyph unicode="&#xfb;" horiz-adv-x="1247" d="M426 1206h-107l234 322h127l233 -322h-106l-191 246zM1053 1024v-1024h-95l-12 197q-50 -106 -151.5 -161.5t-239.5 -55.5q-164 0 -267.5 93.5t-103.5 276.5v674h113v-647q0 -154 73.5 -226.5t204.5 -72.5q156 0 260.5 99t104.5 267v580h113z" />
<glyph unicode="&#xfc;" horiz-adv-x="1247" d="M416 1221q-38 0 -65 26.5t-27 63.5q0 38 27 65t65 27q37 0 63.5 -27t26.5 -65q0 -37 -26.5 -63.5t-63.5 -26.5zM807 1221q-37 0 -63.5 26.5t-26.5 63.5q0 38 26.5 65t63.5 27q38 0 65 -27t27 -65q0 -37 -27 -63.5t-65 -26.5zM1053 1024v-1024h-95l-12 197 q-50 -106 -151.5 -161.5t-239.5 -55.5q-164 0 -267.5 93.5t-103.5 276.5v674h113v-647q0 -154 73.5 -226.5t204.5 -72.5q156 0 260.5 99t104.5 267v580h113z" />
<glyph unicode="&#xfd;" horiz-adv-x="1048" d="M561 1194h-94l168 342h131zM1020 1024l-506 -1210q-59 -141 -128.5 -197.5t-176.5 -56.5q-132 0 -201 78l43 96q53 -76 158 -76q68 0 118.5 40t90.5 144l65 160l-444 1022h127l371 -891l362 891h121z" />
<glyph unicode="&#xfe;" horiz-adv-x="1282" d="M678 1044q218 0 343.5 -141.5t125.5 -390.5t-125.5 -390.5t-343.5 -141.5q-127 0 -223 55t-146 153v-618h-112v1925h112v-661q50 98 146 154t223 56zM666 78q173 0 270.5 116t97.5 318t-97.5 318t-270.5 116q-163 0 -260 -114t-97 -310v-20q0 -195 97.5 -309.5 t259.5 -114.5z" />
<glyph unicode="&#xff;" horiz-adv-x="1048" d="M330 1221q-38 0 -65 26.5t-27 63.5q0 38 27 65t65 27q37 0 63.5 -27t26.5 -65q0 -37 -26.5 -63.5t-63.5 -26.5zM721 1221q-37 0 -63.5 26.5t-26.5 63.5q0 38 26.5 65t63.5 27q38 0 65 -27t27 -65q0 -37 -27 -63.5t-65 -26.5zM1020 1024l-506 -1210 q-59 -141 -128.5 -197.5t-176.5 -56.5q-132 0 -201 78l43 96q53 -76 158 -76q68 0 118.5 40t90.5 144l65 160l-444 1022h127l371 -891l362 891h121z" />
<glyph unicode="&#x100;" horiz-adv-x="1302" d="M1001 1585h-698v94h698v-94zM973 416h-643l-164 -416h-121l539 1352h135l538 -1352h-120zM932 520l-281 713l-280 -713h561z" />
<glyph unicode="&#x101;" horiz-adv-x="1134" d="M907 1257h-698v95h698v-95zM1028 76q46 0 80 12l-6 -88q-42 -20 -105 -20q-75 0 -119.5 37t-52.5 130q-48 -79 -149 -123t-213 -44q-151 0 -243.5 68.5t-92.5 193.5q0 243 389 309l307 55v84q0 120 -70.5 188t-201.5 68q-234 0 -322 -213l-84 62q43 120 149 184.5 t257 64.5q179 0 282 -87t103 -255v-524q0 -102 92 -102zM471 78q85 0 164 28t133.5 87t54.5 137v182l-272 -49q-161 -33 -235 -85t-74 -136q0 -78 60.5 -121t168.5 -43z" />
<glyph unicode="&#x102;" horiz-adv-x="1302" d="M651 1522q-127 0 -203.5 76t-76.5 204h96q0 -85 50.5 -138.5t133.5 -53.5t134 53.5t51 138.5h96q0 -127 -76.5 -203.5t-204.5 -76.5zM973 416h-643l-164 -416h-121l539 1352h135l538 -1352h-120zM932 520l-281 713l-280 -713h561z" />
<glyph unicode="&#x103;" horiz-adv-x="1134" d="M557 1194q-127 0 -204 77t-77 204h97q0 -85 50.5 -139t133.5 -54t133.5 54t50.5 139h97q0 -127 -77 -204t-204 -77zM1028 76q46 0 80 12l-6 -88q-42 -20 -105 -20q-75 0 -119.5 37t-52.5 130q-48 -79 -149 -123t-213 -44q-151 0 -243.5 68.5t-92.5 193.5q0 243 389 309 l307 55v84q0 120 -70.5 188t-201.5 68q-234 0 -322 -213l-84 62q43 120 149 184.5t257 64.5q179 0 282 -87t103 -255v-524q0 -102 92 -102zM471 78q85 0 164 28t133.5 87t54.5 137v182l-272 -49q-161 -33 -235 -85t-74 -136q0 -78 60.5 -121t168.5 -43z" />
<glyph unicode="&#x104;" horiz-adv-x="1302" d="M1257 -315l25 -74q-57 -41 -160 -41q-97 0 -158 49t-61 135q0 84 56 144.5t174 111.5l-160 406h-643l-164 -416h-121l539 1352h135l538 -1352q-146 -53 -203 -107.5t-57 -123.5q0 -56 38 -86.5t100 -30.5q78 0 122 33zM932 520l-281 713l-280 -713h561z" />
<glyph unicode="&#x105;" horiz-adv-x="1134" d="M1102 -317l24 -74q-58 -39 -159 -39q-97 0 -158 48.5t-61 133.5q0 76 48.5 134t149.5 104q-101 34 -119 162q-48 -81 -149.5 -126.5t-214.5 -45.5q-151 0 -243.5 68.5t-92.5 193.5q0 243 389 309l307 55v84q0 120 -70.5 188t-201.5 68q-234 0 -322 -213l-84 62 q43 120 149 184.5t257 64.5q179 0 282 -87t103 -255v-524q0 -102 92 -102q46 0 80 12l-6 -88q-14 -9 -35 -12q-225 -88 -225 -219q0 -56 37.5 -86.5t99.5 -30.5q72 0 123 31zM471 78q85 0 164 28t133.5 87t54.5 137v182l-272 -49q-161 -33 -235 -85t-74 -136 q0 -78 60.5 -121t168.5 -43z" />
<glyph unicode="&#x106;" horiz-adv-x="1396" d="M961 1825l-162 -303h-94l122 303h134zM1198 385l111 -43q-58 -171 -201 -266.5t-340 -95.5q-282 0 -449 188t-167 508t167.5 508t446.5 188q402 0 524 -332l-110 -51q-96 279 -406 279q-229 0 -366.5 -159t-137.5 -433t135 -433t363 -159q160 0 272.5 77.5t157.5 223.5z " />
<glyph unicode="&#x107;" horiz-adv-x="1148" d="M860 1536l-205 -342h-94l168 342h131zM623 1044q153 0 259 -72t154 -204l-106 -49q-32 109 -112 168t-197 59q-174 0 -272.5 -115.5t-98.5 -318.5t97 -318.5t271 -115.5q124 0 211 63t115 176l100 -34q-40 -142 -152 -222.5t-271 -80.5q-228 0 -356 141t-128 391 q0 249 129 390.5t357 141.5z" />
<glyph unicode="&#x10c;" horiz-adv-x="1396" d="M821 1530h-127l-233 321h106l191 -245l190 245h107zM1198 385l111 -43q-58 -171 -201 -266.5t-340 -95.5q-282 0 -449 188t-167 508t167.5 508t446.5 188q402 0 524 -332l-110 -51q-96 279 -406 279q-229 0 -366.5 -159t-137.5 -433t135 -433t363 -159q160 0 272.5 77.5 t157.5 223.5z" />
<glyph unicode="&#x10d;" horiz-adv-x="1148" d="M686 1202h-127l-233 322h106l191 -246l190 246h107zM623 1044q153 0 259 -72t154 -204l-106 -49q-32 109 -112 168t-197 59q-174 0 -272.5 -115.5t-98.5 -318.5t97 -318.5t271 -115.5q124 0 211 63t115 176l100 -34q-40 -142 -152 -222.5t-271 -80.5q-228 0 -356 141 t-128 391q0 249 129 390.5t357 141.5z" />
<glyph unicode="&#x10e;" horiz-adv-x="1480" d="M602 1530l-233 321h106l191 -245l190 245h107l-234 -321h-127zM227 1352h428q324 0 499 -172.5t175 -495.5q0 -330 -175 -507t-499 -177h-428v1352zM340 104h326q262 0 404 151t142 429q0 270 -142 416.5t-404 146.5h-326v-1143z" />
<glyph unicode="&#x10f;" horiz-adv-x="1402" d="M975 1495h112v-1495h-94l-12 205q-46 -105 -144.5 -165t-232.5 -60q-218 0 -342.5 141t-124.5 391t124.5 391t342.5 141q127 0 224 -56t147 -154v661zM1415 1495l-82 -403h-73l40 403h115zM618 78q162 0 259.5 114.5t97.5 309.5v20q0 195 -97.5 309.5t-259.5 114.5 q-173 0 -270.5 -116t-97.5 -318t97.5 -318t270.5 -116z" />
<glyph unicode="&#x110;" horiz-adv-x="1480" d="M227 1352h428q324 0 499 -172.5t175 -495.5q0 -330 -175 -507t-499 -177h-428v680h-207v86h207v586zM340 104h326q262 0 404 151t142 429q0 270 -142 416.5t-404 146.5h-326v-481h408v-86h-408v-576z" />
<glyph unicode="&#x111;" horiz-adv-x="1282" d="M1253 1182h-166v-1182h-94l-12 205q-46 -105 -144.5 -165t-232.5 -60q-218 0 -342.5 141t-124.5 391t124.5 391t342.5 141q127 0 224 -56t147 -154v348h-348v86h348v227h112v-227h166v-86zM618 78q162 0 259.5 114.5t97.5 309.5v20q0 195 -97.5 309.5t-259.5 114.5 q-173 0 -270.5 -116t-97.5 -318t97.5 -318t270.5 -116z" />
<glyph unicode="&#x112;" horiz-adv-x="1280" d="M1040 1585h-698v94h698v-94zM1186 104v-104h-959v1352h928v-105h-815v-508h641v-104h-641v-531h846z" />
<glyph unicode="&#x113;" horiz-adv-x="1175" d="M954 1257h-698v95h698v-95zM1061 465h-813q10 -183 109.5 -285t265.5 -102q119 0 204.5 47.5t120.5 134.5l94 -49q-123 -231 -419 -231q-228 0 -357 141.5t-129 390.5q0 250 124 391t349 141q214 0 332.5 -140.5t118.5 -389.5v-49zM610 946q-161 0 -255.5 -99.5 t-106.5 -279.5h704q-11 179 -99.5 279t-242.5 100z" />
<glyph unicode="&#x116;" horiz-adv-x="1280" d="M690 1552q-40 0 -68 28.5t-28 68.5q0 38 28 66t68 28q38 0 66 -28t28 -66q0 -40 -28 -68.5t-66 -28.5zM1186 104v-104h-959v1352h928v-105h-815v-508h641v-104h-641v-531h846z" />
<glyph unicode="&#x117;" horiz-adv-x="1175" d="M604 1225q-40 0 -68 28t-28 68q0 38 28 66t68 28q38 0 66 -28t28 -66q0 -40 -28 -68t-66 -28zM1061 465h-813q10 -183 109.5 -285t265.5 -102q119 0 204.5 47.5t120.5 134.5l94 -49q-123 -231 -419 -231q-228 0 -357 141.5t-129 390.5q0 250 124 391t349 141 q214 0 332.5 -140.5t118.5 -389.5v-49zM610 946q-161 0 -255.5 -99.5t-106.5 -279.5h704q-11 179 -99.5 279t-242.5 100z" />
<glyph unicode="&#x118;" horiz-adv-x="1280" d="M1188 -315l24 -74q-61 -41 -159 -41q-99 0 -159 49t-60 135q0 85 57.5 144.5t177.5 101.5h-842v1352h928v-105h-815v-508h641v-104h-641v-531h846v-104q-146 -53 -203 -107.5t-57 -123.5q0 -56 38 -86.5t101 -30.5q76 0 123 33z" />
<glyph unicode="&#x119;" horiz-adv-x="1175" d="M1061 465h-813q10 -183 109.5 -285t265.5 -102q119 0 204.5 47.5t120.5 134.5l94 -49q-70 -134 -204 -191q-130 -66 -186 -124t-56 -121q0 -58 38 -90.5t99 -32.5q73 0 121 31l25 -74q-63 -39 -158 -39q-98 0 -158.5 51.5t-60.5 138.5q0 123 135 220h-14 q-228 0 -357 141.5t-129 390.5q0 250 124 391t349 141q214 0 332.5 -140.5t118.5 -389.5v-49zM610 946q-161 0 -255.5 -99.5t-106.5 -279.5h704q-11 179 -99.5 279t-242.5 100z" />
<glyph unicode="&#x11a;" horiz-adv-x="1280" d="M627 1530l-234 321h107l190 -245l191 245h106l-233 -321h-127zM1186 104v-104h-959v1352h928v-105h-815v-508h641v-104h-641v-531h846z" />
<glyph unicode="&#x11b;" horiz-adv-x="1175" d="M541 1202l-234 322h107l190 -246l191 246h106l-233 -322h-127zM1061 465h-813q10 -183 109.5 -285t265.5 -102q119 0 204.5 47.5t120.5 134.5l94 -49q-123 -231 -419 -231q-228 0 -357 141.5t-129 390.5q0 250 124 391t349 141q214 0 332.5 -140.5t118.5 -389.5v-49z M610 946q-161 0 -255.5 -99.5t-106.5 -279.5h704q-11 179 -99.5 279t-242.5 100z" />
<glyph unicode="&#x11e;" horiz-adv-x="1447" d="M762 1522q-128 0 -204.5 76.5t-76.5 203.5h97q0 -85 50.5 -138.5t133.5 -53.5t133.5 53.5t50.5 138.5h96q0 -128 -76 -204t-204 -76zM1315 664v-664h-78l-14 229q-58 -120 -174 -184.5t-283 -64.5q-282 0 -448 188t-166 508q0 319 169 507.5t449 188.5q204 0 335.5 -81.5 t199.5 -246.5l-103 -55q-46 137 -156.5 208t-275.5 71q-226 0 -363 -159.5t-137 -432.5q0 -277 131.5 -434.5t366.5 -157.5q203 0 324.5 111.5t121.5 316.5v47h-458v105h559z" />
<glyph unicode="&#x11f;" horiz-adv-x="1093" d="M561 1194q-127 0 -203.5 76.5t-76.5 204.5h96q0 -85 50.5 -139t133.5 -54t133.5 54t50.5 139h97q0 -127 -77 -204t-204 -77zM477 109h279q138 0 219.5 -65.5t81.5 -170.5q0 -92 -66 -164t-178 -110.5t-250 -38.5q-224 0 -344.5 75t-120.5 195q0 77 51.5 134.5t137.5 82.5 q-60 28 -97.5 74.5t-37.5 105.5q0 70 46 120.5t126 74.5q-85 43 -131 117.5t-46 169.5q0 147 114.5 241t293.5 94q123 0 223 -49q22 106 91.5 161.5t179.5 55.5l26 -100q-210 0 -241 -151q129 -93 129 -252q0 -148 -115 -243t-293 -95q-72 0 -141 16q-76 -17 -116 -53 t-40 -86q0 -62 58.5 -100.5t160.5 -38.5zM555 952q-126 0 -209.5 -68.5t-83.5 -174.5q0 -108 83.5 -177t209.5 -69q127 0 209 69t82 177q0 107 -82 175t-209 68zM575 -346q169 0 270 60t101 147q0 71 -54 111t-165 40h-289q-102 0 -166.5 -44.5t-64.5 -114.5 q0 -91 94.5 -145t273.5 -54z" />
<glyph unicode="&#x122;" horiz-adv-x="1447" d="M1315 664v-664h-78l-14 229q-58 -120 -174 -184.5t-283 -64.5q-282 0 -448 188t-166 508q0 319 169 507.5t449 188.5q204 0 335.5 -81.5t199.5 -246.5l-103 -55q-46 137 -156.5 208t-275.5 71q-226 0 -363 -159.5t-137 -432.5q0 -277 131.5 -434.5t366.5 -157.5 q203 0 324.5 111.5t121.5 316.5v47h-458v105h559zM760 -156h119l-125 -329h-88z" />
<glyph unicode="&#x123;" horiz-adv-x="1128" d="M625 1202h-125l135 391h86zM477 109h279q138 0 219.5 -65.5t81.5 -170.5q0 -92 -66 -164t-178 -110.5t-250 -38.5q-224 0 -344.5 75t-120.5 195q0 77 51.5 134.5t137.5 82.5q-60 28 -97.5 74.5t-37.5 105.5q0 70 46 120.5t126 74.5q-85 43 -131 117.5t-46 169.5 q0 147 114.5 241t293.5 94q123 0 223 -49q22 106 91.5 161.5t179.5 55.5l26 -100q-210 0 -241 -151q129 -93 129 -252q0 -148 -115 -243t-293 -95q-72 0 -141 16q-76 -17 -116 -53t-40 -86q0 -62 58.5 -100.5t160.5 -38.5zM555 952q-126 0 -209.5 -68.5t-83.5 -174.5 q0 -108 83.5 -177t209.5 -69q127 0 209 69t82 177q0 107 -82 175t-209 68zM575 -346q169 0 270 60t101 147q0 71 -54 111t-165 40h-289q-102 0 -166.5 -44.5t-64.5 -114.5q0 -91 94.5 -145t273.5 -54z" />
<glyph unicode="&#x12a;" horiz-adv-x="614" d="M524 1585h-430v94h430v-94zM340 0h-113v1352h113v-1352z" />
<glyph unicode="&#x12b;" horiz-adv-x="503" d="M438 1257h-368v95h368v-95zM309 0h-112v1024h112v-1024z" />
<glyph unicode="&#x12e;" horiz-adv-x="567" d="M377 -311l29 -74q-62 -45 -158 -45q-94 0 -153.5 51t-59.5 137q0 73 46 131.5t146 112.5v1350h113v-1352q-120 -65 -166.5 -116.5t-46.5 -108.5t35.5 -89t95.5 -32q70 0 119 35z" />
<glyph unicode="&#x12f;" horiz-adv-x="503" d="M252 1225q-40 0 -67 28t-27 68q0 39 27.5 66.5t66.5 27.5t66.5 -27.5t27.5 -66.5q0 -40 -27 -68t-67 -28zM365 -313l26 -74q-64 -43 -155 -43q-95 0 -154 50.5t-59 137.5q0 70 42 126.5t132 115.5v1024h112v-1024q-109 -70 -150.5 -120.5t-41.5 -110.5q0 -54 35 -85.5 t92 -31.5q72 0 121 35z" />
<glyph unicode="&#x130;" horiz-adv-x="567" d="M285 1743q38 0 66 -28t28 -66q0 -40 -28 -68.5t-66 -28.5q-40 0 -68.5 28.5t-28.5 68.5q0 38 28.5 66t68.5 28zM340 0h-113v1352h113v-1352z" />
<glyph unicode="&#x131;" horiz-adv-x="503" d="M309 0h-112v1024h112v-1024z" />
<glyph unicode="&#x136;" horiz-adv-x="1316" d="M1231 0h-135l-492 721l-264 -268v-453h-113v1352h113v-746l731 746h150l-537 -547zM653 -156h119l-125 -329h-88z" />
<glyph unicode="&#x137;" horiz-adv-x="1093" d="M1069 0h-137l-371 551l-252 -254v-297h-112v1495h112v-1055l578 584h143l-389 -391zM553 -156h119l-125 -329h-88z" />
<glyph unicode="&#x139;" horiz-adv-x="1189" d="M324 1522h-95l123 303h133zM1145 104v-104h-918v1352h113v-1248h805z" />
<glyph unicode="&#x13a;" horiz-adv-x="641" d="M406 1905l-113 -273h-92l80 273h125zM309 1495v-1243q0 -90 30 -128t101 -38q66 0 140 31l-17 -109q-58 -28 -139 -28q-116 0 -171.5 63.5t-55.5 196.5v1255h112z" />
<glyph unicode="&#x13b;" horiz-adv-x="1189" d="M1145 104v-104h-918v1352h113v-1248h805zM649 -156h119l-125 -329h-88z" />
<glyph unicode="&#x13c;" horiz-adv-x="610" d="M309 1495v-1243q0 -90 30 -128t101 -38q66 0 140 31l-17 -109q-58 -28 -139 -28q-116 0 -171.5 63.5t-55.5 196.5v1255h112zM369 -485h-88l94 329h119z" />
<glyph unicode="&#x13d;" horiz-adv-x="1189" d="M614 1030h-73l41 404h112zM1145 104v-104h-918v1352h113v-1248h805z" />
<glyph unicode="&#x13e;" horiz-adv-x="610" d="M309 1495v-1243q0 -90 30 -128t101 -38q66 0 140 31l-17 -109q-58 -28 -139 -28q-116 0 -171.5 63.5t-55.5 196.5v1255h112zM557 1092h-74l41 403h115z" />
<glyph unicode="&#x141;" horiz-adv-x="1189" d="M1145 104v-104h-918v584l-215 -148v119l215 147v650h113v-572l385 267v-119l-385 -266v-558h805z" />
<glyph unicode="&#x142;" horiz-adv-x="671" d="M494 86q30 0 55.5 4.5t39.5 9.5t44 17l-17 -109q-61 -28 -141 -28q-115 0 -171 63.5t-56 196.5v403l-197 -137v119l197 137v733h112v-653l250 174v-119l-250 -174v-471q0 -90 31.5 -128t102.5 -38z" />
<glyph unicode="&#x143;" horiz-adv-x="1499" d="M795 1522h-95l123 303h133zM1272 1352v-1352h-137l-707 1051l-94 172l6 -144v-1079h-113v1352h138l704 -1049l96 -174l-6 158v1065h113z" />
<glyph unicode="&#x144;" horiz-adv-x="1255" d="M676 1194h-94l168 342h131zM668 1044q177 0 290 -99.5t113 -280.5v-664h-113v627q0 160 -82.5 239.5t-220.5 79.5q-142 0 -244 -100t-102 -273v-573h-112v1024h92l12 -199q50 107 147 163t220 56z" />
<glyph unicode="&#x145;" horiz-adv-x="1499" d="M1272 1352v-1352h-137l-707 1051l-94 172l6 -144v-1079h-113v1352h138l704 -1049l96 -174l-6 158v1065h113zM731 -156h119l-125 -329h-88z" />
<glyph unicode="&#x146;" horiz-adv-x="1255" d="M668 1044q177 0 290 -99.5t113 -280.5v-664h-113v627q0 160 -82.5 239.5t-220.5 79.5q-142 0 -244 -100t-102 -273v-573h-112v1024h92l12 -199q50 107 147 163t220 56zM616 -156h119l-125 -329h-88z" />
<glyph unicode="&#x147;" horiz-adv-x="1499" d="M690 1530l-233 321h106l191 -245l190 245h107l-234 -321h-127zM1272 1352v-1352h-137l-707 1051l-94 172l6 -144v-1079h-113v1352h138l704 -1049l96 -174l-6 158v1065h113z" />
<glyph unicode="&#x148;" horiz-adv-x="1255" d="M580 1202l-234 322h107l190 -246l191 246h106l-233 -322h-127zM668 1044q177 0 290 -99.5t113 -280.5v-664h-113v627q0 160 -82.5 239.5t-220.5 79.5q-142 0 -244 -100t-102 -273v-573h-112v1024h92l12 -199q50 107 147 163t220 56z" />
<glyph unicode="&#x14c;" horiz-adv-x="1548" d="M1124 1585h-698v94h698v-94zM774 1372q287 0 455 -187.5t168 -508.5t-168 -508.5t-455 -187.5t-454.5 187.5t-167.5 508.5t167.5 508.5t454.5 187.5zM774 1268q-234 0 -369 -158.5t-135 -433.5t135 -433.5t369 -158.5t370 158.5t136 433.5t-136 433.5t-370 158.5z" />
<glyph unicode="&#x14d;" horiz-adv-x="1257" d="M981 1257h-698v95h698v-95zM629 1044q232 0 362.5 -141.5t130.5 -390.5t-130.5 -390.5t-362.5 -141.5q-230 0 -361 141.5t-131 390.5t131 390.5t361 141.5zM629 946q-175 0 -275 -116t-100 -318t100 -318t275 -116q177 0 277 115.5t100 318.5t-100 318.5t-277 115.5z" />
<glyph unicode="&#x150;" horiz-adv-x="1581" d="M807 1825l-162 -303h-92l121 303h133zM1139 1825l-162 -303h-94l121 303h135zM774 1372q287 0 455 -187.5t168 -508.5t-168 -508.5t-455 -187.5t-454.5 187.5t-167.5 508.5t167.5 508.5t454.5 187.5zM774 1268q-234 0 -369 -158.5t-135 -433.5t135 -433.5t369 -158.5 t370 158.5t136 433.5t-136 433.5t-370 158.5z" />
<glyph unicode="&#x151;" horiz-adv-x="1257" d="M690 1536l-205 -342h-94l168 342h131zM1014 1536l-205 -342h-94l168 342h131zM629 1044q232 0 362.5 -141.5t130.5 -390.5t-130.5 -390.5t-362.5 -141.5q-230 0 -361 141.5t-131 390.5t131 390.5t361 141.5zM629 946q-175 0 -275 -116t-100 -318t100 -318t275 -116 q177 0 277 115.5t100 318.5t-100 318.5t-277 115.5z" />
<glyph unicode="&#x152;" horiz-adv-x="2140" d="M2046 104v-104h-893v125q-133 -145 -391 -145q-281 0 -445.5 187.5t-164.5 508.5t164.5 508.5t445.5 187.5q266 0 391 -143v123h860v-105h-747v-508h585v-104h-585v-531h780zM762 84q261 0 391 195v792q-124 197 -391 197q-228 0 -360 -158.5t-132 -433.5t132 -433.5 t360 -158.5z" />
<glyph unicode="&#x153;" horiz-adv-x="2045" d="M1929 465h-811q10 -183 109 -285t264 -102q119 0 205 47.5t123 134.5l94 -49q-123 -231 -422 -231q-154 0 -264 70.5t-164 201.5q-54 -131 -165.5 -201.5t-268.5 -70.5q-230 0 -361 141.5t-131 390.5t131 390.5t361 141.5q157 0 268.5 -70t165.5 -200q51 130 158 200 t260 70q214 0 331 -140.5t117 -389.5v-49zM629 78q177 0 277 115.5t100 318.5t-100 318.5t-277 115.5q-175 0 -275 -116t-100 -318t100 -318t275 -116zM1481 946q-161 0 -256 -99.5t-107 -279.5h705q-9 178 -99 278.5t-243 100.5z" />
<glyph unicode="&#x154;" horiz-adv-x="1366" d="M690 1522h-94l123 303h133zM1116 0l-385 582h-2h-389v-582h-113v1352h502q205 0 326 -103.5t121 -281.5q0 -146 -84 -244t-232 -129l389 -594h-133zM340 686h389q160 0 245 72.5t85 208.5t-85 208t-245 72h-389v-561z" />
<glyph unicode="&#x155;" horiz-adv-x="794" d="M475 1194h-94l168 342h131zM635 1044q79 0 125 -30l-27 -109q-54 35 -131 35q-121 0 -207 -104t-86 -267v-569h-112v1024h92l14 -205q40 107 125.5 166t206.5 59z" />
<glyph unicode="&#x156;" horiz-adv-x="1366" d="M1249 0h-133l-385 582h-2h-389v-582h-113v1352h502q205 0 326 -103.5t121 -281.5q0 -146 -84 -244t-232 -129zM340 686h389q160 0 245 72.5t85 208.5t-85 208t-245 72h-389v-561zM666 -156h118l-125 -329h-88z" />
<glyph unicode="&#x157;" horiz-adv-x="794" d="M635 1044q79 0 125 -30l-27 -109q-54 35 -131 35q-121 0 -207 -104t-86 -267v-569h-112v1024h92l14 -205q40 107 125.5 166t206.5 59zM205 -156h119l-125 -329h-88z" />
<glyph unicode="&#x158;" horiz-adv-x="1366" d="M586 1530l-234 321h107l190 -245l191 245h106l-233 -321h-127zM1116 0l-385 582h-2h-389v-582h-113v1352h502q205 0 326 -103.5t121 -281.5q0 -146 -84 -244t-232 -129l389 -594h-133zM340 686h389q160 0 245 72.5t85 208.5t-85 208t-245 72h-389v-561z" />
<glyph unicode="&#x159;" horiz-adv-x="794" d="M379 1202l-234 322h107l190 -246l191 246h106l-233 -322h-127zM635 1044q79 0 125 -30l-27 -109q-54 35 -131 35q-121 0 -207 -104t-86 -267v-569h-112v1024h92l14 -205q40 107 125.5 166t206.5 59z" />
<glyph unicode="&#x15a;" horiz-adv-x="1351" d="M885 1825l-162 -303h-94l123 303h133zM680 1372q379 0 510 -297l-96 -78q-54 142 -152.5 206.5t-261.5 64.5q-174 0 -276.5 -77t-102.5 -194q0 -83 50 -137t129.5 -80.5t176 -45.5t193.5 -42t176.5 -58.5t129.5 -107t50 -176.5q0 -166 -139 -268t-369 -102 q-210 0 -357 94.5t-202 259.5l113 59q27 -139 153.5 -224t294.5 -85q174 0 282 69t108 193q0 80 -50 132.5t-130 78.5t-176.5 45t-193 42.5t-176.5 59t-130 106.5t-50 175q0 162 135.5 274.5t360.5 112.5z" />
<glyph unicode="&#x15b;" d="M778 1536l-205 -342h-94l168 342h131zM547 1044q163 0 261 -60.5t134 -188.5l-96 -56q-58 207 -299 207q-120 0 -201.5 -55t-81.5 -131q0 -48 23.5 -83t63.5 -55.5t92 -35t109.5 -25.5t115 -23t109.5 -32t92 -48.5t63.5 -75.5t23.5 -110q0 -133 -111.5 -212.5 t-301.5 -79.5q-166 0 -280 63t-154 193l98 47q32 -99 124 -152t224 -53q136 0 212.5 52t76.5 136q0 44 -23.5 76.5t-63.5 51.5t-92 33t-109.5 25.5t-115 24.5t-109.5 34t-92 50t-63.5 76.5t-23.5 110.5q0 126 110 211t285 85z" />
<glyph unicode="&#x15e;" horiz-adv-x="1351" d="M1206 350q0 -146 -108 -243.5t-293 -120.5q141 -85 141 -215q0 -86 -58.5 -143.5t-156.5 -57.5q-135 0 -213 78l43 78q64 -70 158 -70q56 0 91.5 35t35.5 92q0 59 -34.5 103t-125.5 94q-205 3 -349.5 98t-197.5 256l113 59q27 -139 153.5 -224t294.5 -85q174 0 282 69 t108 193q0 80 -50 132.5t-130 78.5t-176.5 45t-193 42.5t-176.5 59t-130 106.5t-50 175q0 162 135.5 274.5t360.5 112.5q379 0 510 -297l-96 -78q-54 142 -152.5 206.5t-261.5 64.5q-174 0 -276.5 -77t-102.5 -194q0 -83 50 -137t129.5 -80.5t176 -45.5t193.5 -42 t176.5 -58.5t129.5 -107t50 -176.5z" />
<glyph unicode="&#x15f;" d="M956 272q0 -118 -88.5 -194.5t-244.5 -93.5q139 -85 139 -213q0 -86 -58.5 -143.5t-156.5 -57.5q-135 0 -213 78l43 78q64 -70 158 -70q56 0 91.5 35t35.5 92q0 59 -35 103.5t-127 95.5q-149 6 -251.5 69t-139.5 185l98 47q32 -99 124 -152t224 -53q136 0 212.5 52 t76.5 136q0 44 -23.5 76.5t-63.5 51.5t-92 33t-109.5 25.5t-115 24.5t-109.5 34t-92 50t-63.5 76.5t-23.5 110.5q0 126 110 211t285 85q163 0 261 -60.5t134 -188.5l-96 -56q-58 207 -299 207q-120 0 -201.5 -55t-81.5 -131q0 -48 23.5 -83t63.5 -55.5t92 -35t109.5 -25.5 t115 -23t109.5 -32t92 -48.5t63.5 -75.5t23.5 -110z" />
<glyph unicode="&#x160;" horiz-adv-x="1351" d="M745 1530h-127l-233 321h107l190 -245l190 245h107zM680 1372q379 0 510 -297l-96 -78q-54 142 -152.5 206.5t-261.5 64.5q-174 0 -276.5 -77t-102.5 -194q0 -83 50 -137t129.5 -80.5t176 -45.5t193.5 -42t176.5 -58.5t129.5 -107t50 -176.5q0 -166 -139 -268t-369 -102 q-210 0 -357 94.5t-202 259.5l113 59q27 -139 153.5 -224t294.5 -85q174 0 282 69t108 193q0 80 -50 132.5t-130 78.5t-176.5 45t-193 42.5t-176.5 59t-130 106.5t-50 175q0 162 135.5 274.5t360.5 112.5z" />
<glyph unicode="&#x161;" d="M606 1202h-127l-233 322h106l191 -246l190 246h107zM547 1044q163 0 261 -60.5t134 -188.5l-96 -56q-58 207 -299 207q-120 0 -201.5 -55t-81.5 -131q0 -48 23.5 -83t63.5 -55.5t92 -35t109.5 -25.5t115 -23t109.5 -32t92 -48.5t63.5 -75.5t23.5 -110 q0 -133 -111.5 -212.5t-301.5 -79.5q-166 0 -280 63t-154 193l98 47q32 -99 124 -152t224 -53q136 0 212.5 52t76.5 136q0 44 -23.5 76.5t-63.5 51.5t-92 33t-109.5 25.5t-115 24.5t-109.5 34t-92 50t-63.5 76.5t-23.5 110.5q0 126 110 211t285 85z" />
<glyph unicode="&#x162;" horiz-adv-x="1265" d="M690 1247v-1245q156 -84 156 -231q0 -84 -60 -142.5t-157 -58.5q-129 0 -209 80l43 78q62 -72 151 -72q58 0 94.5 35.5t36.5 93.5q0 64 -36 110t-131 105v1247h-492v105h1094v-105h-490z" />
<glyph unicode="&#x163;" horiz-adv-x="833" d="M559 -18q131 -84 131 -211q0 -86 -58 -143.5t-155 -57.5q-137 0 -215 78l45 78q64 -70 156 -70q56 0 92.5 35.5t36.5 91.5q0 62 -40 109t-149 108q-146 57 -149 256v670h-205v98h205v254l113 31v-285h372v-98h-372v-654q0 -93 45 -140.5t131 -47.5q103 0 176 76l43 -94 q-82 -76 -203 -84z" />
<glyph unicode="&#x164;" horiz-adv-x="1265" d="M571 1530l-233 321h106l191 -245l190 245h107l-234 -321h-127zM1180 1247h-490v-1247h-112v1247h-492v105h1094v-105z" />
<glyph unicode="&#x165;" horiz-adv-x="833" d="M604 1167h-74l41 404h115zM719 160l43 -94q-93 -86 -240 -86q-123 0 -195 68.5t-73 207.5v670h-205v98h205v254l113 31v-285h372v-98h-372v-654q0 -93 45 -140.5t131 -47.5q103 0 176 76z" />
<glyph unicode="&#x16a;" horiz-adv-x="1460" d="M1081 1585h-698v94h698v-94zM1253 1352v-856q0 -252 -135.5 -384t-386.5 -132t-386.5 132t-135.5 384v856h113v-832q0 -436 409 -436q410 0 410 436v832h112z" />
<glyph unicode="&#x16b;" horiz-adv-x="1247" d="M967 1257h-699v95h699v-95zM1053 1024v-1024h-95l-12 197q-50 -106 -151.5 -161.5t-239.5 -55.5q-164 0 -267.5 93.5t-103.5 276.5v674h113v-647q0 -154 73.5 -226.5t204.5 -72.5q156 0 260.5 99t104.5 267v580h113z" />
<glyph unicode="&#x16e;" horiz-adv-x="1460" d="M731 1755q104 0 169 -61.5t65 -159.5q0 -100 -65 -162.5t-169 -62.5t-168.5 62.5t-64.5 162.5q0 98 64.5 159.5t168.5 61.5zM731 1683q-66 0 -108.5 -42t-42.5 -107q0 -66 42.5 -109t108.5 -43q67 0 110.5 43t43.5 109q0 65 -43.5 107t-110.5 42zM1253 1352v-856 q0 -252 -135.5 -384t-386.5 -132t-386.5 132t-135.5 384v856h113v-832q0 -436 409 -436q410 0 410 436v832h112z" />
<glyph unicode="&#x16f;" horiz-adv-x="1247" d="M610 1184q-104 0 -168.5 61.5t-64.5 161.5q0 99 64.5 161t168.5 62t169 -62t65 -161q0 -100 -65 -161.5t-169 -61.5zM610 1556q-66 0 -108.5 -41.5t-42.5 -107.5t42.5 -108t108.5 -42q68 0 111 42t43 108t-43 107.5t-111 41.5zM1053 1024v-1024h-95l-12 197 q-50 -106 -151.5 -161.5t-239.5 -55.5q-164 0 -267.5 93.5t-103.5 276.5v674h113v-647q0 -154 73.5 -226.5t204.5 -72.5q156 0 260.5 99t104.5 267v580h113z" />
<glyph unicode="&#x170;" horiz-adv-x="1460" d="M760 1827l-162 -303h-94l121 303h135zM1085 1825l-161 -303h-95l123 303h133zM1253 1352v-856q0 -252 -135.5 -384t-386.5 -132t-386.5 132t-135.5 384v856h113v-832q0 -436 409 -436q410 0 410 436v832h112z" />
<glyph unicode="&#x171;" horiz-adv-x="1247" d="M473 1194h-94l168 342h131zM797 1194h-95l168 342h131zM1053 1024v-1024h-95l-12 197q-50 -106 -151.5 -161.5t-239.5 -55.5q-164 0 -267.5 93.5t-103.5 276.5v674h113v-647q0 -154 73.5 -226.5t204.5 -72.5q156 0 260.5 99t104.5 267v580h113z" />
<glyph unicode="&#x172;" horiz-adv-x="1460" d="M1253 1352v-856q0 -194 -81 -318t-236 -170q-128 -61 -183 -118t-55 -119q0 -56 39 -87.5t101 -31.5q77 0 125 31l24 -74q-63 -39 -164 -39q-97 0 -157 50.5t-60 135.5q0 65 36.5 119t115.5 105h-27q-251 0 -386.5 132t-135.5 384v856h113v-832q0 -436 409 -436 q410 0 410 436v832h112z" />
<glyph unicode="&#x173;" horiz-adv-x="1261" d="M1059 -315l26 -70q-62 -45 -159 -45t-150 48t-53 132q0 88 54 148t179 120l-10 197q-54 -108 -160 -171.5t-231 -63.5q-164 0 -267.5 93.5t-103.5 276.5v674h113v-647q0 -153 72.5 -226t197.5 -73q155 0 264 106.5t109 270.5v569h113v-1024q-137 -69 -189.5 -118 t-52.5 -118q0 -55 34 -83.5t93 -28.5q74 0 121 33z" />
<glyph unicode="&#x178;" horiz-adv-x="1169" d="M385 1548q-38 0 -65 26.5t-27 63.5q0 38 27 65.5t65 27.5q37 0 63.5 -27.5t26.5 -65.5q0 -37 -26.5 -63.5t-63.5 -26.5zM776 1548q-37 0 -63.5 26.5t-26.5 63.5q0 38 26.5 65.5t63.5 27.5q38 0 65 -27.5t27 -65.5q0 -37 -27 -63.5t-65 -26.5zM1122 1352l-481 -826v-526 h-113v526l-479 826h133l404 -711l401 711h135z" />
<glyph unicode="&#x179;" horiz-adv-x="1241" d="M668 1522h-95l123 303h133zM1163 104v-104h-1046v104l884 1143h-862v105h998v-105l-883 -1143h909z" />
<glyph unicode="&#x17a;" horiz-adv-x="1081" d="M573 1194h-94l168 342h131zM993 96v-96h-882v90l743 842l-94 -2h-647v94h872v-88l-741 -842l104 2h645z" />
<glyph unicode="&#x17b;" horiz-adv-x="1241" d="M629 1552q-40 0 -68.5 28.5t-28.5 68.5q0 38 28.5 66t68.5 28q38 0 66 -28t28 -66q0 -40 -28 -68.5t-66 -28.5zM1163 104v-104h-1046v104l884 1143h-862v105h998v-105l-883 -1143h909z" />
<glyph unicode="&#x17c;" horiz-adv-x="1081" d="M541 1225q-40 0 -68.5 28t-28.5 68q0 38 28.5 66t68.5 28q38 0 66 -28t28 -66q0 -40 -28 -68t-66 -28zM993 96v-96h-882v90l743 842l-94 -2h-647v94h872v-88l-741 -842l104 2h645z" />
<glyph unicode="&#x17d;" horiz-adv-x="1241" d="M563 1530l-233 321h106l191 -245l190 245h107l-234 -321h-127zM1163 104v-104h-1046v104l884 1143h-862v105h998v-105l-883 -1143h909z" />
<glyph unicode="&#x17e;" horiz-adv-x="1081" d="M477 1202l-233 322h106l191 -246l190 246h107l-234 -322h-127zM993 96v-96h-882v90l743 842l-94 -2h-647v94h872v-88l-741 -842l104 2h645z" />
<glyph unicode="&#x192;" horiz-adv-x="991" d="M834 1403q-80 0 -128 -50.5t-65 -158.5l-27 -170h328v-98h-344l-139 -887q-47 -301 -293 -301q-60 0 -93.5 10t-72.5 33l20 98q56 -39 136 -39q153 0 190 209l137 877h-290v98h305l28 180q24 147 94.5 224t196.5 77q42 0 74.5 -6t49.5 -13.5t42 -21.5l-18 -100 q-59 39 -131 39z" />
<glyph unicode="&#x218;" horiz-adv-x="1351" d="M680 1372q379 0 510 -297l-96 -78q-54 142 -152.5 206.5t-261.5 64.5q-174 0 -276.5 -77t-102.5 -194q0 -83 50 -137t129.5 -80.5t176 -45.5t193.5 -42t176.5 -58.5t129.5 -107t50 -176.5q0 -166 -139 -268t-369 -102q-210 0 -357 94.5t-202 259.5l113 59 q27 -139 153.5 -224t294.5 -85q174 0 282 69t108 193q0 80 -50 132.5t-130 78.5t-176.5 45t-193 42.5t-176.5 59t-130 106.5t-50 175q0 162 135.5 274.5t360.5 112.5zM655 -485h-88l95 329h118z" />
<glyph unicode="&#x219;" d="M547 1044q163 0 261 -60.5t134 -188.5l-96 -56q-58 207 -299 207q-120 0 -201.5 -55t-81.5 -131q0 -48 23.5 -83t63.5 -55.5t92 -35t109.5 -25.5t115 -23t109.5 -32t92 -48.5t63.5 -75.5t23.5 -110q0 -133 -111.5 -212.5t-301.5 -79.5q-166 0 -280 63t-154 193l98 47 q32 -99 124 -152t224 -53q136 0 212.5 52t76.5 136q0 44 -23.5 76.5t-63.5 51.5t-92 33t-109.5 25.5t-115 24.5t-109.5 34t-92 50t-63.5 76.5t-23.5 110.5q0 126 110 211t285 85zM471 -485h-88l94 329h119z" />
<glyph unicode="&#x21a;" horiz-adv-x="1265" d="M1180 1352v-105h-490v-1247h-112v1247h-492v105h1094zM578 -156h118l-125 -329h-88z" />
<glyph unicode="&#x21b;" horiz-adv-x="866" d="M719 160l43 -94q-93 -86 -240 -86q-123 0 -195 68.5t-73 207.5v670h-205v98h205v254l113 31v-285h372v-98h-372v-654q0 -93 45 -140.5t131 -47.5q103 0 176 76zM432 -156h119l-125 -329h-88z" />
<glyph unicode="&#x2c6;" horiz-adv-x="1024" d="M702 1206l-190 246l-190 -246h-107l234 322h126l234 -322h-107z" />
<glyph unicode="&#x2c7;" d="M575 1202h-126l-234 322h107l190 -246l190 246h107z" />
<glyph unicode="&#x2c9;" d="M864 1257h-698v95h698v-95z" />
<glyph unicode="&#x2d8;" d="M700 1475h97q0 -127 -76.5 -204t-204.5 -77q-127 0 -203.5 76.5t-76.5 204.5h96q0 -85 50.5 -139t133.5 -54t133.5 54t50.5 139z" />
<glyph unicode="&#x2d9;" d="M532 1415q38 0 66.5 -28t28.5 -66q0 -39 -28.5 -67.5t-66.5 -28.5q-40 0 -68 28t-28 68q0 38 28 66t68 28z" />
<glyph unicode="&#x2da;" d="M512 1630q104 0 168.5 -62t64.5 -161q0 -100 -64.5 -161.5t-168.5 -61.5t-168.5 61.5t-64.5 161.5q0 99 64.5 161t168.5 62zM512 1556q-66 0 -109 -41.5t-43 -107.5t43 -108t109 -42q68 0 111 42t43 108t-43 107.5t-111 41.5z" />
<glyph unicode="&#x2db;" horiz-adv-x="1275" d="M543 33l69 -33q-146 -53 -203 -107.5t-57 -123.5q0 -56 37.5 -86.5t99.5 -30.5q79 0 123 33l25 -74q-57 -41 -160 -41q-97 0 -158 49t-61 135q0 93 69 158t216 121z" />
<glyph unicode="&#x2dc;" d="M778 1481h90q-14 -122 -65 -183t-146 -61q-39 0 -73 15t-58.5 36.5t-48 43.5t-51 37t-57.5 15q-56 0 -81 -35.5t-38 -113.5h-90q14 123 64.5 183.5t146.5 60.5q47 0 88.5 -23t67.5 -51t60 -51t68 -23q58 0 84 36.5t39 113.5z" />
<glyph unicode="&#x2dd;" horiz-adv-x="1024" d="M516 1536l-205 -342h-94l168 342h131zM842 1536l-207 -342h-94l168 342h133z" />
<glyph unicode="&#x326;" horiz-adv-x="0" d="M197 -485h-88l94 329h119z" />
<glyph unicode="&#x3c0;" horiz-adv-x="1452" d="M1079 930v-684q0 -85 56 -118.5t170 -33.5l-23 -94q-164 0 -239.5 51.5t-75.5 179.5v699h-504v-930h-113v930h-303v94h1356v-94h-324z" />
<glyph unicode="&#x902;" horiz-adv-x="0" d="M-324 1907q54 0 88.5 -34.5t34.5 -88.5t-34.5 -88.5t-88.5 -34.5q-53 0 -87.5 34.5t-34.5 88.5t34.5 88.5t87.5 34.5z" />
<glyph unicode="&#x905;" horiz-adv-x="1638" d="M1659 1237h-285v-1237h-143v596q-109 -31 -230 -31q-50 0 -157 29q65 -77 65 -182q0 -167 -109.5 -255.5t-307.5 -88.5q-47 0 -94.5 10.5t-97 34.5t-90.5 60.5t-75 93t-51 126.5l121 51q22 -138 104 -196t215 -58q122 0 183 60t61 160q0 54 -19 98.5t-59.5 81t-111 57 t-166.5 21.5v110q88 1 150 23.5t94.5 61t46.5 82t14 95.5q0 86 -47 137.5t-150 51.5q-88 0 -131.5 -37.5t-62.5 -110.5l-121 43q15 97 109 162.5t210 65.5q152 0 244 -80.5t92 -235.5q0 -110 -60.5 -187t-176.5 -114q73 -9 205 -34t182 -25q123 0 221 35v526h-268v115h696 v-115z" />
<glyph unicode="&#x907;" horiz-adv-x="1220" d="M965 903h-521q-125 0 -125 -125q0 -82 72.5 -125t163.5 -43q60 0 165 31t161 31q71 0 137.5 -72.5t66.5 -187.5q0 -83 -33.5 -150.5t-85 -109.5t-119 -70t-131.5 -39.5t-126 -11.5h-33q200 -185 367 -162l-56 -117q-67 -14 -135.5 6t-139 76.5t-112.5 97.5t-110 115 q-107 22 -203 109q-58 52 -44.5 119t69.5 81t120 -41q8 -9 47 -58.5t70 -86.5q64 -20 160 -20q177 0 270.5 69.5t93.5 194.5q0 59 -30 91t-82 32q-27 0 -125.5 -28t-177.5 -28q-90 0 -170.5 35t-132.5 102.5t-52 153.5q0 109 63.5 177.5t186.5 68.5h387v219h-841v115h1261 v-115h-276v-334z" />
<glyph unicode="&#x908;" horiz-adv-x="1220" d="M965 903h-521q-125 0 -125 -125q0 -82 72.5 -125t163.5 -43q60 0 165 31t161 31q71 0 137.5 -72.5t66.5 -187.5q0 -83 -33.5 -150.5t-85 -109.5t-119 -70t-131.5 -39.5t-126 -11.5h-33q200 -185 367 -162l-56 -117q-67 -14 -135.5 6t-139 76.5t-112.5 97.5t-110 115 q-107 22 -203 109q-58 52 -44.5 119t69.5 81t120 -41q8 -9 47 -58.5t70 -86.5q64 -20 160 -20q177 0 270.5 69.5t93.5 194.5q0 59 -30 91t-82 32q-27 0 -125.5 -28t-177.5 -28q-90 0 -170.5 35t-132.5 102.5t-52 153.5q0 109 63.5 177.5t186.5 68.5h387v219h-841v115h839 l-119 182q-46 71 -48 146.5t32.5 135t95 102.5t131.5 58.5t150.5 -6t144.5 -82.5l-59 -106q-44 38 -96.5 53.5t-99.5 9t-86 -31t-60 -62t-17.5 -90t37.5 -107.5l125 -202h291v-115h-276v-334z" />
<glyph unicode="&#x909;" horiz-adv-x="1126" d="M1147 1237h-344q123 -79 123 -244q0 -92 -58.5 -160.5t-169.5 -103.5q271 -70 271 -330q0 -144 -104.5 -237.5t-301.5 -93.5q-94 0 -179 31.5t-164.5 109.5t-129.5 197l115 63q97 -279 373 -279q262 0 262 218q0 113 -98 186.5t-259 73.5v110q305 5 305 232 q0 101 -70.5 164t-187.5 63h-550v115h1167v-115z" />
<glyph unicode="&#x90f;" horiz-adv-x="1200" d="M1221 1237h-355q79 -58 126.5 -151.5t47.5 -206.5q0 -76 -18.5 -136.5t-46.5 -99.5t-74.5 -72t-87 -52t-100.5 -40l-80 113q68 19 111.5 38t83.5 50t58.5 78t18.5 112q0 118 -61 215t-172 152h-305l2 -645q0 -49 5.5 -80t24 -67.5t59.5 -68t107 -63.5 q150 -70 246.5 -127.5t143 -105t62 -83.5t15.5 -79q0 -126 -119 -211l-104 60q84 76 84 141q0 59 -85.5 118.5t-383.5 219.5q-115 63 -158 133t-43 162v696h-243v115h1241v-115z" />
<glyph unicode="&#x913;" horiz-adv-x="2310" d="M2331 1237h-285v-1237h-143v1237h-529v-1237h-143v596q-109 -31 -230 -31q-50 0 -157 29q65 -77 65 -182q0 -167 -109.5 -255.5t-307.5 -88.5q-47 0 -94.5 10.5t-97 34.5t-90.5 60.5t-75 93t-51 126.5l121 51q22 -138 104 -196t215 -58q122 0 183 60t61 160 q0 54 -19 98.5t-59.5 81t-111 57t-166.5 21.5v110q88 1 150 23.5t94.5 61t46.5 82t14 95.5q0 86 -47 137.5t-150 51.5q-88 0 -131.5 -37.5t-62.5 -110.5l-121 43q15 97 109 162.5t210 65.5q152 0 244 -80.5t92 -235.5q0 -110 -60.5 -187t-176.5 -114q73 -9 205 -34t182 -25 q123 0 221 35v526h-268v115h944l-613 549l105 100l651 -649h281v-115z" />
<glyph unicode="&#x914;" horiz-adv-x="2310" d="M2331 1237h-285v-1237h-143v1237h-529v-1237h-143v596q-109 -31 -230 -31q-50 0 -157 29q65 -77 65 -182q0 -167 -109.5 -255.5t-307.5 -88.5q-47 0 -94.5 10.5t-97 34.5t-90.5 60.5t-75 93t-51 126.5l121 51q22 -138 104 -196t215 -58q122 0 183 60t61 160 q0 54 -19 98.5t-59.5 81t-111 57t-166.5 21.5v110q88 1 150 23.5t94.5 61t46.5 82t14 95.5q0 86 -47 137.5t-150 51.5q-88 0 -131.5 -37.5t-62.5 -110.5l-121 43q15 97 109 162.5t210 65.5q152 0 244 -80.5t92 -235.5q0 -110 -60.5 -187t-176.5 -114q73 -9 205 -34t182 -25 q123 0 221 35v526h-268v115h835l-594 469l94 114l621 -561l-322 641l144 64l303 -727h287v-115z" />
<glyph unicode="&#x915;" horiz-adv-x="1867" d="M1016 1237v-387q112 172 336 172q152 0 259 -102.5t107 -264.5q0 -184 -102.5 -293.5t-253.5 -109.5q-65 0 -106 13t-78 42l57 115q52 -49 129 -49q85 0 150 70t65 186q0 128 -69.5 199t-184.5 71q-108 0 -184.5 -65t-124.5 -170v-664h-144v424q-56 -89 -140 -129.5 t-216 -40.5q-146 0 -256 103t-110 255q0 182 104.5 292t271.5 110q67 0 110.5 -16t82.5 -54l-57 -98q-47 47 -134 47q-99 0 -169 -66t-70 -190q0 -123 79 -191.5t193 -68.5q197 0 311 233v627h-892v115h1908v-115h-872z" />
<glyph unicode="&#x916;" horiz-adv-x="1931" d="M1952 1237h-283v-1227h-143v191q-95 -102 -209 -146.5t-277 -44.5t-307.5 57t-260.5 163t-208.5 246t-165.5 317l115 49l2 -6l2 2q37 -74 97.5 -110.5t119.5 -12.5q49 20 67.5 70t18.5 149v303h-540v115h1972v-115zM1526 1237h-862v-303q0 -121 -33 -194.5t-107 -112.5 q-106 -53 -198 -11q286 -483 729 -483q113 0 243.5 52t227.5 161v227q-126 -174 -330 -174q-151 0 -242.5 90.5t-91.5 239.5t95 238.5t253 89.5q120 0 179 -88l-62 -86q-52 59 -139 53q-85 -5 -136 -58.5t-51 -142.5q0 -100 58.5 -156.5t159.5 -56.5q191 0 307 223v492z" />
<glyph unicode="&#x921;" horiz-adv-x="1306" d="M1028 903h-520q-58 0 -91.5 -31t-33.5 -96q0 -93 68.5 -139.5t166.5 -46.5q63 0 164 30.5t150 30.5q82 0 149.5 -73.5t67.5 -190.5q0 -76 -30 -137.5t-80 -101.5t-119 -67t-143 -38.5t-156 -11.5q-184 0 -321.5 76t-207.5 229l115 74q55 -129 163 -194.5t246 -65.5 q193 0 297.5 62.5t104.5 176.5q0 60 -30 93.5t-81 33.5q-37 0 -136 -27.5t-177 -27.5q-140 0 -243 86t-103 223q0 109 63.5 178.5t186.5 69.5h387v219h-905v115h1347v-115h-299v-334z" />
<glyph unicode="&#x924;" horiz-adv-x="1402" d="M1423 1237h-282v-1237h-144v801h-442q-279 0 -279 -254q0 -280 402 -438l-72 -109q-234 87 -352.5 224t-118.5 349q0 165 93.5 253.5t277.5 88.5h491v322h-1017v115h1443v-115z" />
<glyph unicode="&#x925;" horiz-adv-x="1497" d="M1518 1237h-281v-1237h-143v438q-150 -213 -467 -213q-232 0 -372.5 108t-174.5 351q301 60 426 147t125 222q0 88 -44.5 137t-129.5 49q-78 0 -125 -44.5t-47 -100.5q0 -99 67 -166l-100 -41q-51 37 -79 90t-28 113q0 123 85 197.5t235 74.5q152 0 227.5 -85.5 t75.5 -221.5q0 -72 -29 -136t-90.5 -124.5t-169.5 -110.5t-256 -84q10 -99 124.5 -175.5t287.5 -76.5q163 0 290 89t169 227v573h-174v115h598v-115z" />
<glyph unicode="&#x926;" horiz-adv-x="1267" d="M991 856h-424q-145 0 -222 -66.5t-77 -183.5q0 -71 25.5 -125.5t69.5 -86t97 -47t113 -15.5q68 0 140 14.5t110 42.5q-10 52 -10 74q-4 85 57 130t125 18.5t68 -115.5q3 -104 -113 -187q11 -30 28 -63t28.5 -54.5t41 -64t38 -54.5t49 -65.5t45.5 -60.5l-152 -33 q-103 176 -166 348q-125 -53 -280 -53q-213 0 -336.5 105t-120.5 282q3 186 113 283.5t284 97.5h326v260h-868v115h1308v-115h-297v-381z" />
<glyph unicode="&#x927;" horiz-adv-x="1472" d="M1493 1237h-281v-1237h-143v410q-104 -86 -239.5 -137.5t-284.5 -51.5q-184 0 -295 80.5t-111 235.5q0 184 189 268q-96 41 -150.5 110t-54.5 162q0 123 83 204t218 81q119 0 179.5 -56t47.5 -171l-104 -48q3 61 -33 106.5t-102 45.5t-109 -44.5t-43 -107.5 q0 -101 91 -166.5t251 -66.5l35 -109q-363 -4 -363 -200q0 -96 72 -148.5t219 -52.5q158 0 278.5 50t225.5 153v690h-268v115h692v-115z" />
<glyph unicode="&#x92a;" horiz-adv-x="1357" d="M1378 1237h-280v-1237h-144v535q-124 -179 -374 -179q-154 0 -253.5 86.5t-99.5 251.5v543h-247v115h1398v-115zM954 1237h-583v-487q0 -143 65 -207t191 -64q106 0 194 75t133 200v483z" />
<glyph unicode="&#x92d;" horiz-adv-x="1515" d="M1536 1237h-285v-1237h-143v571h-520v-106q0 -29 -25 -50t-56.5 -23t-60.5 18q-32 27 -76.5 72t-64.5 73q-26 36 7 83.5t83 47.5h49v356q0 97 -28 138t-97 41q-55 0 -88.5 -33t-33.5 -78q0 -48 35.5 -78t105.5 -33l-43 -102q-104 1 -163.5 65t-59.5 160q0 109 73.5 169.5 t188.5 60.5q254 0 254 -312v-354h520v551h-289v115h717v-115z" />
<glyph unicode="&#x935;" horiz-adv-x="1335" d="M1356 1237h-281v-1237h-143v453q-63 -106 -153.5 -159.5t-225.5 -53.5q-175 0 -290.5 108.5t-115.5 286.5q0 173 114 281t282 108q150 0 229 -100l-86 -97q-55 70 -147 70q-102 0 -175 -68t-73 -190q0 -131 80.5 -204t195.5 -73q242 0 365 297v578h-952v115h1376v-115z " />
<glyph unicode="&#x937;" horiz-adv-x="1357" d="M1405 1237h-281v-1237h-143v535q-124 -179 -375 -179q-154 0 -253 86.5t-99 251.5v543h-248v115h1399v-115zM981 1237h-580l580 -479v479zM653 479q77 0 147 41.5t120 114.5l-523 432v-317q0 -143 65 -207t191 -64z" />
<glyph unicode="&#x93e;" horiz-adv-x="671" d="M692 1237h-284v-1237h-144v1237h-284v115h712v-115z" />
<glyph unicode="&#x947;" horiz-adv-x="0" d="M-938 2001l670 -668l-66 -67l-708 635z" />
<glyph unicode="&#x948;" horiz-adv-x="0" d="M-346 1290l-8 15l-37 -48l-713 564l94 114l621 -561l-322 641l144 64l313 -750z" />
<glyph unicode="&#x94b;" horiz-adv-x="671" d="M692 1237h-284v-1237h-144v1237h-284v115h288l-612 549l104 100l652 -649h280v-115z" />
<glyph unicode="&#x94c;" horiz-adv-x="671" d="M692 1237h-284v-1237h-144v1237h-284v115h180l-594 469l94 114l621 -561l-322 641l143 64l304 -727h286v-115z" />
<glyph unicode="&#x2000;" horiz-adv-x="1039" />
<glyph unicode="&#x2001;" horiz-adv-x="2079" />
<glyph unicode="&#x2002;" horiz-adv-x="1039" />
<glyph unicode="&#x2003;" horiz-adv-x="2079" />
<glyph unicode="&#x2004;" horiz-adv-x="693" />
<glyph unicode="&#x2005;" horiz-adv-x="519" />
<glyph unicode="&#x2006;" horiz-adv-x="346" />
<glyph unicode="&#x2007;" horiz-adv-x="346" />
<glyph unicode="&#x2008;" horiz-adv-x="259" />
<glyph unicode="&#x2009;" horiz-adv-x="415" />
<glyph unicode="&#x200a;" horiz-adv-x="115" />
<glyph unicode="&#x2010;" horiz-adv-x="919" d="M778 483h-637v117h637v-117z" />
<glyph unicode="&#x2011;" horiz-adv-x="919" d="M778 483h-637v117h637v-117z" />
<glyph unicode="&#x2012;" horiz-adv-x="919" d="M778 483h-637v117h637v-117z" />
<glyph unicode="&#x2013;" horiz-adv-x="1087" d="M1044 489h-1001v107h1001v-107z" />
<glyph unicode="&#x2014;" horiz-adv-x="1986" d="M1845 489h-1704v107h1704v-107z" />
<glyph unicode="&#x2018;" horiz-adv-x="419" d="M184 965q-57 0 -89 45t-32 116q0 89 46.5 168t136.5 123l63 -55q-73 -27 -120.5 -89t-47.5 -122l9 -2q13 16 49 16q33 0 59.5 -26t26.5 -72q0 -42 -29.5 -72t-71.5 -30z" />
<glyph unicode="&#x2019;" horiz-adv-x="419" d="M236 1411q57 0 88.5 -45.5t31.5 -116.5q0 -91 -46.5 -169t-137.5 -122l-61 56q73 27 119 88.5t46 122.5l-6 2q-15 -19 -49 -19t-61 27.5t-27 73.5q0 41 30.5 71.5t72.5 30.5z" />
<glyph unicode="&#x201a;" horiz-adv-x="475" d="M229 186q57 0 89 -45t32 -116q0 -91 -46.5 -170t-137.5 -123l-62 57q73 25 119.5 86.5t46.5 122.5l-6 4q-12 -18 -49 -18q-34 0 -61 26t-27 72q0 43 29.5 73.5t72.5 30.5z" />
<glyph unicode="&#x201c;" horiz-adv-x="753" d="M184 963q-57 0 -89 45t-32 116q0 91 47 170t138 123l61 -57q-73 -25 -119.5 -86.5t-46.5 -122.5l7 -4q12 18 49 18q34 0 61 -26t27 -72q0 -43 -30 -73.5t-73 -30.5zM518 963q-57 0 -89 45t-32 116q0 91 47 170t138 123l61 -57q-73 -25 -119.5 -86.5t-46.5 -122.5l6 -4 q12 18 49 18q34 0 61.5 -26t27.5 -72q0 -43 -30 -73.5t-73 -30.5z" />
<glyph unicode="&#x201d;" horiz-adv-x="753" d="M236 1411q57 0 88.5 -45.5t31.5 -116.5q0 -91 -46.5 -169t-137.5 -122l-61 56q73 27 119 88.5t46 122.5l-6 2q-15 -19 -49 -19t-61 27.5t-27 73.5q0 41 30.5 71.5t72.5 30.5zM569 1411q57 0 89 -45.5t32 -116.5q0 -91 -46.5 -169t-137.5 -122l-62 56q73 27 119.5 88.5 t46.5 122.5l-6 2q-15 -19 -49 -19t-61 27.5t-27 73.5q0 42 30 72t72 30z" />
<glyph unicode="&#x201e;" horiz-adv-x="808" d="M229 186q57 0 89 -45t32 -116q0 -91 -46.5 -170t-137.5 -123l-62 57q73 25 119.5 86.5t46.5 122.5l-6 4q-12 -18 -49 -18q-34 0 -61 26t-27 72q0 43 29.5 73.5t72.5 30.5zM563 186q57 0 89 -45t32 -116q0 -91 -46.5 -170t-137.5 -123l-62 57q73 25 119.5 86.5t46.5 122.5 l-6 4q-12 -18 -49 -18q-34 0 -61 26t-27 72q0 43 29.5 73.5t72.5 30.5z" />
<glyph unicode="&#x2020;" horiz-adv-x="1282" d="M1102 797h-404v-1227h-112v1227h-406v96h406v459h112v-459h404v-96z" />
<glyph unicode="&#x2021;" horiz-adv-x="1282" d="M698 797v-676h404v-98h-404v-453h-112v453h-406v98h406v676h-406v96h406v459h112v-459h404v-96h-404z" />
<glyph unicode="&#x2022;" horiz-adv-x="880" d="M440 872q86 0 141.5 -53.5t55.5 -136.5t-55.5 -136.5t-141.5 -53.5q-85 0 -140.5 53.5t-55.5 136.5t55.5 136.5t140.5 53.5z" />
<glyph unicode="&#x2026;" horiz-adv-x="1746" d="M256 186q41 0 70.5 -29.5t29.5 -72.5q0 -41 -29.5 -70.5t-70.5 -29.5q-42 0 -71 29t-29 71q0 43 28.5 72.5t71.5 29.5zM874 186q42 0 71.5 -30t29.5 -72q0 -41 -30 -70.5t-71 -29.5q-42 0 -71 29t-29 71q0 43 28.5 72.5t71.5 29.5zM1491 186q41 0 70.5 -29.5t29.5 -72.5 q0 -41 -29.5 -70.5t-70.5 -29.5q-42 0 -71 29t-29 71q0 43 28.5 72.5t71.5 29.5z" />
<glyph unicode="&#x202f;" horiz-adv-x="415" />
<glyph unicode="&#x2030;" horiz-adv-x="2406" d="M381 1362q146 0 227.5 -101.5t81.5 -261.5q0 -159 -81 -258.5t-228 -99.5q-145 0 -227 100t-82 258q0 160 81.5 261.5t227.5 101.5zM438 0h-108l882 1352h111zM381 1272q-101 0 -155 -75t-54 -198q0 -122 54 -195t155 -73t154 72.5t53 195.5t-53 198t-154 75zM2028 715 q145 0 226 -101t81 -260t-81 -259.5t-226 -100.5q-147 0 -229.5 100.5t-82.5 259.5t82.5 260t229.5 101zM1284 713q145 0 226 -101t81 -260t-81 -259.5t-226 -100.5q-147 0 -229 100.5t-82 259.5t82.5 260t228.5 101zM2028 625q-102 0 -155.5 -74t-53.5 -197t53.5 -196.5 t155.5 -73.5q101 0 153.5 73.5t52.5 196.5t-52.5 197t-153.5 74zM1284 623q-103 0 -157 -74t-54 -197t54 -196.5t157 -73.5q101 0 154 73.5t53 196.5t-53 197t-154 74z" />
<glyph unicode="&#x2039;" horiz-adv-x="733" d="M586 936l73 -82l-397 -342l397 -342l-73 -82l-461 424z" />
<glyph unicode="&#x203a;" horiz-adv-x="733" d="M147 88l-73 82l397 342l-397 342l73 82l461 -424z" />
<glyph unicode="&#x2044;" horiz-adv-x="991" d="M109 0h-109l883 1352h108z" />
<glyph unicode="&#x205f;" horiz-adv-x="519" />
<glyph unicode="&#x2070;" horiz-adv-x="737" d="M369 1372q142 0 219.5 -97t77.5 -276t-77.5 -275.5t-219.5 -96.5t-219.5 96.5t-77.5 275.5t77.5 276t219.5 97zM369 1290q-99 0 -151 -73.5t-52 -217.5t52 -217t151 -73t150.5 73t51.5 217t-51.5 217.5t-150.5 73.5z" />
<glyph unicode="&#x2074;" horiz-adv-x="694" d="M629 846h-144v-219h-88v219h-309v67l295 439h102v-430h144v-76zM252 922h147l13 360l-39 -74l-152 -225l-55 -65z" />
<glyph unicode="&#x20ac;" horiz-adv-x="1243" d="M1098 385l102 -39q-51 -174 -182.5 -270t-296.5 -96q-215 0 -353.5 127t-181.5 358h-182v94h170q-6 55 -6 117q0 60 6 115h-170v92h182q42 232 180.5 360.5t352.5 128.5q169 0 289 -78.5t172 -226.5l-101 -51q-39 125 -131 191.5t-221 66.5q-162 0 -274 -103t-152 -288 h424v-92h-438q-6 -55 -6 -115q0 -62 6 -117h438v-94h-424q40 -184 150 -285.5t272 -101.5q129 0 233.5 80.5t141.5 226.5z" />
<glyph unicode="&#x20ba;" horiz-adv-x="1245" d="M1032 541h109q-6 -267 -136.5 -404t-373.5 -137h-303v551l-254 -74v84l254 74v207l-254 -74v86l254 74v424h106v-391l445 129v-86l-445 -130v-206l445 129v-84l-445 -129v-488h180q205 0 311.5 113t106.5 332z" />
<glyph unicode="&#x20bd;" horiz-adv-x="1228" d="M334 559v-168h409v-88h-409v-303h-107v303h-186v88h186v168h-186v98h186v695h453q211 0 335 -107.5t124 -292.5q0 -182 -124 -287.5t-335 -105.5h-346zM334 657h332q176 0 265 75.5t89 219.5t-89.5 220.5t-264.5 76.5h-332v-592z" />
<glyph unicode="&#x2113;" horiz-adv-x="729" d="M473 76q80 0 162 33l-8 -97q-60 -32 -162 -32q-133 0 -194.5 61t-61.5 197v227q-71 -44 -154 -74v98q80 29 154 78v551q0 254 199 254q101 0 149.5 -58.5t48.5 -185.5q0 -159 -78.5 -317.5t-218.5 -273.5v-287q0 -80 42 -127t122 -47zM309 1124v-475q98 96 150.5 223 t52.5 263q0 78 -23.5 112.5t-76.5 34.5q-54 0 -78.5 -39t-24.5 -119z" />
<glyph unicode="&#x2122;" horiz-adv-x="1595" d="M606 1352v-78h-225v-598h-100v598h-230v78h555zM1432 1352v-676h-101v426l6 90l-209 -516h-92l-209 516l7 -90v-426h-101v676h137l213 -555l211 555h138z" />
<glyph unicode="&#x2126;" horiz-adv-x="1548" d="M1409 98v-98l-510 -2v98q179 56 282 206.5t103 381.5q0 269 -138.5 426.5t-371.5 157.5t-371.5 -157.5t-138.5 -426.5q0 -231 103 -381.5t282 -206.5v-98l-510 2v98l338 -2q-155 86 -240 236.5t-85 351.5q0 315 168 501.5t454 186.5t454.5 -186.5t168.5 -501.5 q0 -201 -85.5 -351.5t-240.5 -236.5z" />
<glyph unicode="&#x212e;" horiz-adv-x="1546" d="M1481 655h-1145q-10 0 -10 -8v-399q0 -24 16 -43q164 -185 432 -185q135 0 263 62.5t212 167.5h84q-99 -124 -246 -196t-315 -72q-143 0 -274 54.5t-225.5 147.5t-150.5 221.5t-56 270.5t56 271t150.5 222t225.5 148t274 55q115 0 223.5 -35t195.5 -99.5t152.5 -150 t101.5 -191.5t36 -220v-21zM1221 707v401q0 25 -17 45q-164 176 -430 176q-268 0 -432 -182q-16 -19 -16 -47v-393q0 -4 3 -8.5t7 -4.5h876q9 0 9 13z" />
<glyph unicode="&#x2202;" horiz-adv-x="1226" d="M569 1372q273 0 401 -176t128 -520q0 -338 -131 -517t-377 -179q-204 0 -329.5 125.5t-125.5 324.5q0 197 125.5 322t321.5 127q137 -2 245 -60.5t166 -165.5v23q0 311 -105.5 455.5t-320.5 144.5q-93 0 -159.5 -31t-124.5 -98l-62 82q143 143 348 143zM590 80 q165 0 264.5 107t128.5 313q-42 133 -145 205.5t-258 72.5q-153 0 -242.5 -95t-89.5 -251q0 -161 91.5 -256.5t250.5 -95.5z" />
<glyph unicode="&#x2206;" horiz-adv-x="1341" d="M1276 94v-94h-1210v94l536 1258h137zM176 94h989l-495 1166z" />
<glyph unicode="&#x220f;" horiz-adv-x="1257" d="M1139 1352v-1614h-113v1509h-795v-1509h-112v1614h1020z" />
<glyph unicode="&#x2211;" horiz-adv-x="1314" d="M1196 1247h-893l688 -674l-696 -731h901v-104h-1042v104l686 731l-686 674v105h1042v-105z" />
<glyph unicode="&#x2212;" horiz-adv-x="1234" d="M1106 569h-977v105h977v-105z" />
<glyph unicode="&#x2215;" horiz-adv-x="991" d="M109 0h-109l883 1352h108z" />
<glyph unicode="&#x2219;" d="M532 655q41 0 71 -29.5t30 -70.5q0 -43 -29.5 -72.5t-71.5 -29.5q-43 0 -71.5 29.5t-28.5 72.5q0 42 29 71t71 29z" />
<glyph unicode="&#x221a;" horiz-adv-x="1222" d="M1305 1675l-656 -1675h-145l-246 616h-213v107h285l250 -608l606 1560h119z" />
<glyph unicode="&#x221e;" horiz-adv-x="1648" d="M1266 991q136 0 228.5 -108.5t92.5 -294.5t-92.5 -295t-228.5 -109q-46 0 -74 4.5t-64.5 21t-76.5 53.5t-94.5 96t-135.5 155q-72 -88 -111 -134.5t-81.5 -90t-64 -59.5t-54.5 -29.5t-57 -15t-68 -1.5q-137 0 -230.5 109t-93.5 295t93.5 294.5t230.5 108.5q52 0 85 -6.5 t67.5 -22t75.5 -56t87.5 -93.5t124.5 -149q98 117 156.5 180t108.5 97.5t84.5 42t91.5 7.5zM391 283q37 0 59 5t47.5 17.5t62 51t79 87t121.5 144.5q-70 84 -106 126.5t-75 83.5t-56 55t-43 26t-41.5 13t-47.5 1q-88 0 -150.5 -83.5t-62.5 -221.5t62.5 -221.5t150.5 -83.5z M1257 283q88 -2 150.5 82.5t62.5 222.5t-61.5 221.5t-148.5 83.5q-44 0 -70.5 -7t-69.5 -40t-93 -89.5t-142 -166.5q93 -113 144.5 -171.5t93.5 -90.5t66 -38t68 -7z" />
<glyph unicode="&#x222b;" horiz-adv-x="784" d="M346 41v1219q0 135 77 213.5t210 78.5q60 0 96 -10.5t72 -32.5l-21 -100q-57 41 -137 41q-84 0 -134 -50.5t-50 -150.5v-1218q0 -138 -76.5 -215.5t-212.5 -77.5q-60 0 -96.5 11t-73.5 34l20 100q59 -43 140 -43q86 0 136 49.5t50 151.5z" />
<glyph unicode="&#x2248;" horiz-adv-x="1175" d="M352 913q58 0 126 -22.5t119.5 -49t116 -49t117.5 -22.5q134 0 254 115v-129q-118 -109 -256 -109q-55 0 -121 22.5t-117.5 49.5t-117.5 49.5t-121 22.5q-81 0 -139 -27t-123 -88v127q68 60 125 85t137 25zM352 532q58 0 126 -22.5t119.5 -49t116 -49t117.5 -22.5 q134 0 254 115v-127q-117 -111 -256 -111q-55 0 -121 22.5t-117.5 49.5t-117.5 49.5t-121 22.5q-81 0 -139 -27t-123 -88v127q68 60 125 85t137 25z" />
<glyph unicode="&#x2260;" horiz-adv-x="1234" d="M756 760l-162 -322h502v-104h-553l-111 -223h-113l111 223h-291v104h342l162 322h-504v104h555l111 223h113l-111 -223h289v-104h-340z" />
<glyph unicode="&#x2264;" horiz-adv-x="1234" d="M1096 279l-957 464v138l957 456v-118l-877 -408l877 -414v-118zM1106 156v-105h-977v105h977z" />
<glyph unicode="&#x2265;" horiz-adv-x="1234" d="M1096 743l-957 -464v118l877 414l-877 408v118l957 -456v-138zM1106 156v-105h-977v105h977z" />
<glyph unicode="&#x25ca;" horiz-adv-x="1234" d="M1081 676l-397 -676h-137l-393 676l393 676h137zM954 676l-336 594l-337 -594l337 -594z" />
<glyph unicode="&#x25fc;" horiz-adv-x="1024" d="M0 1024h1024v-1024h-1024v1024z" />
<glyph horiz-adv-x="1302" d="M973 416h-643l-164 -416h-121l539 1352h135l538 -1352h-120zM932 520l-281 713l-280 -713h561z" />
<glyph horiz-adv-x="1263" d="M1067 1024v-967q0 -497 -500 -497q-168 0 -281 65.5t-139 188.5l107 47q42 -203 332 -203q173 0 270.5 101t97.5 274v170q-48 -98 -144.5 -154.5t-225.5 -56.5q-218 0 -343.5 140t-125.5 386t125.5 386t343.5 140q130 0 227 -58t145 -159l17 197h94zM596 90 q163 0 260.5 112.5t97.5 305.5v20q0 193 -97.5 305.5t-260.5 112.5q-171 0 -270 -115t-99 -313t99 -313t270 -115z" />
<glyph horiz-adv-x="1425" d="M1178 944h-623q-117 0 -117 -96q0 -58 69 -88.5t165 -30.5q60 0 202.5 33t198.5 33q37 0 65.5 -6.5t57.5 -24.5t45 -57t16 -97q0 -102 -67.5 -173.5t-177.5 -104.5t-252 -33q-154 0 -275 31q-67 -25 -67 -82q0 -52 67.5 -86.5t186.5 -34.5q60 0 202.5 33t198.5 33 q37 0 65.5 -6.5t57.5 -24.5t45 -57t16 -97q0 -102 -67.5 -173.5t-177.5 -104.5t-252 -33q-134 0 -240.5 22t-184.5 64.5t-132.5 94t-102.5 122.5l88 70q81 -140 216 -202.5t352 -62.5q167 0 271 50t106 118q1 52 -22.5 71t-76.5 19q-25 0 -168 -29.5t-235 -29.5 q-85 0 -160 22.5t-129.5 75.5t-54.5 129q0 92 84 138q-161 69 -271 233l88 70q81 -140 216 -202t352 -62q167 0 271 49.5t106 117.5q1 52 -23 71.5t-76 19.5q-25 0 -168 -30t-235 -30q-62 0 -119.5 14t-107 42.5t-79.5 78.5t-30 115q0 88 63 145.5t187 57.5h489v178h-1054 v115h1466v-115h-268v-293z" />
<glyph horiz-adv-x="0" d="M-27 1888l-59 -106q-44 38 -96.5 53.5t-99.5 9t-86 -31t-60 -62t-17.5 -90t37.5 -107.5l142 -229h-131l-135 209q-46 71 -48 146.5t32 135t94.5 102.5t131.5 58.5t150.5 -6t144.5 -82.5z" />
<glyph horiz-adv-x="0" d="M-27 1888l-59 -106q-44 38 -96.5 53.5t-99.5 9t-86 -31t-60 -62t-17.5 -90t37.5 -107.5l142 -229h-131l-135 209q-46 71 -48 146.5t32 135t94.5 102.5t131.5 58.5t150.5 -6t144.5 -82.5zM-207 1704q41 0 66.5 -25.5t25.5 -66.5q0 -40 -25.5 -66t-66.5 -26 q-39 0 -65.5 26.5t-26.5 65.5q0 41 26.5 66.5t65.5 25.5z" />
<glyph horiz-adv-x="1034" d="M715 1825l-162 -303h-94l123 303h133z" />
<glyph horiz-adv-x="507" d="M215 1092h-74l41 403h115z" />
<glyph horiz-adv-x="1005" d="M555 1522h-94l-162 303h133z" />
<glyph horiz-adv-x="671" d="M692 1237h-284v-1237h-144v1237h-284v115h235l-612 549l104 100l651 -649h334v-115zM250 1690q-53 0 -88 34t-35 88t35 88.5t88 34.5q54 0 88.5 -34.5t34.5 -88.5t-34.5 -88t-88.5 -34z" />
<glyph horiz-adv-x="671" d="M692 1237h-284v-1237h-144v1237h-284v115h274l-590 549l115 112l383 -430q-21 74 -17.5 137.5t33 111.5t72 82t98.5 49.5t113 14t115.5 -24.5t105.5 -65l-59 -106q-44 38 -96 54t-98.5 10.5t-85.5 -29.5t-60.5 -61.5t-19 -90.5t33.5 -111l111 -202h284v-115z" />
<glyph horiz-adv-x="671" d="M692 1237h-284v-1237h-144v1237h-284v115h239l-590 549l115 112l383 -430q-21 74 -17.5 137.5t33 111.5t72 82t98.5 49.5t113 14t115.5 -24.5t105.5 -65l-59 -106q-44 38 -96 54t-98.5 10.5t-85.5 -29.5t-60.5 -61.5t-19 -90.5t33.5 -111l111 -202h319v-115zM377 1612 q0 41 26 66.5t66 25.5t66 -25.5t26 -66.5q0 -40 -26 -66t-66 -26t-66 26t-26 66z" />
<glyph horiz-adv-x="671" d="M692 1237h-284v-1237h-144v1237h-284v115h182l-594 469l94 114l621 -561l-322 641l143 64l304 -727h284v-115zM489 1681q-53 0 -87.5 34.5t-34.5 88.5t34.5 88.5t87.5 34.5q54 0 88.5 -34.5t34.5 -88.5t-34.5 -88.5t-88.5 -34.5z" />
<glyph horiz-adv-x="671" d="M416 1352h276v-115h-284v-1237h-144v1237h-284v115h159l-616 399l86 133l665 -532h7l-433 585l125 99l191 -340q-5 67 25 128t85.5 99.5t123.5 54t147 -6.5t149 -83l-59 -106q-44 38 -95.5 54t-97.5 10.5t-84 -30t-59.5 -61.5t-20.5 -89.5t31 -109.5zM424 1612 q0 41 26 66.5t66 25.5t66 -25.5t26 -66.5q0 -40 -26 -66t-66 -26t-66 26t-26 66z" />
<glyph horiz-adv-x="671" d="M692 1237h-284v-1237h-144v1237h-284v115h155l-616 399l86 133l665 -532h6l-432 585l125 99l191 -340q-5 67 25 128t85.5 99.5t123.5 54t147 -6.5t149 -83l-59 -106q-44 38 -95.5 54t-97.5 10.5t-84 -30t-59.5 -61.5t-20.5 -89.5t31 -109.5l107 -204h280v-115z" />
<glyph horiz-adv-x="0" d="M-938 2001l670 -668l-66 -67l-708 635zM-395 1935q54 0 88.5 -34.5t34.5 -88.5t-34.5 -88t-88.5 -34q-53 0 -88 34t-35 88t35 88.5t88 34.5z" />
<glyph horiz-adv-x="0" d="M-565 2079l313 -750l-92 -39l-8 15l-37 -48l-713 564l94 114l621 -561l-322 641zM-180 1927q54 0 88.5 -34.5t34.5 -88.5t-34.5 -88.5t-88.5 -34.5q-53 0 -88 34.5t-35 88.5t35 88.5t88 34.5z" />
<glyph horiz-adv-x="0" d="M-698 2036l190 -340q-5 67 25 128t85.5 99.5t123.5 54t147.5 -6.5t149.5 -83l-60 -106q-44 38 -95.5 54t-97 10.5t-84 -30t-59.5 -61.5t-20 -89.5t31 -109.5l120 -231h-59l4 -6l-51 -25l-14 21l-37 -49l-750 485l86 133l682 -545l-442 598zM-158 1704q41 0 66.5 -25.5 t25.5 -66.5q0 -40 -25.5 -66t-66.5 -26q-39 0 -65.5 26.5t-26.5 65.5q0 41 26.5 66.5t65.5 25.5z" />
<glyph horiz-adv-x="0" d="M-901 2013l383 -430q-21 74 -17.5 137.5t33 111.5t72 82t98.5 49.5t113 14t115.5 -24.5t105.5 -65l-59 -106q-44 38 -96 54t-98.5 10.5t-85.5 -29.5t-60.5 -61.5t-19 -90.5t33.5 -111l125 -229h-33l23 -25l-51 -47l-697 648zM-178 1704q41 0 66.5 -25.5t25.5 -66.5 q0 -40 -25.5 -66t-66.5 -26q-39 0 -65.5 26.5t-26.5 65.5q0 41 26.5 66.5t65.5 25.5z" />
<glyph horiz-adv-x="0" d="M-700 2036l190 -340q-5 67 25 128t85.5 99.5t123.5 54t147 -6.5t149 -83l-59 -106q-44 38 -95.5 54t-97.5 10.5t-84 -30t-59.5 -61.5t-20.5 -89.5t31 -109.5l121 -231h-59l4 -6l-51 -25l-15 21l-36 -49l-750 485l86 133l682 -545l-442 598z" />
<glyph horiz-adv-x="0" d="M-920 2013l383 -430q-21 74 -17.5 137.5t33 111.5t72 82t99 49.5t113.5 14t115.5 -24.5t105.5 -65l-60 -106q-44 38 -96 54t-98.5 10.5t-85 -29.5t-60 -61.5t-19 -90.5t33.5 -111l125 -229h-33l22 -25l-51 -47l-696 648z" />
</font>
</defs>
</svg>
