<?xml version="1.0" standalone="no"?>
<!DOCTYPE svg PUBLIC "-//W3C//DTD SVG 1.1//EN" "http://www.w3.org/Graphics/SVG/1.1/DTD/svg11.dtd" >
<svg xmlns="http://www.w3.org/2000/svg">
<metadata></metadata>
<defs>
<font id="alicethin" horiz-adv-x="1181" >
<font-face units-per-em="2048" ascent="1638" descent="-410" />
<missing-glyph horiz-adv-x="534" />
<glyph unicode="fi" horiz-adv-x="1093" d="M539 1505q101 0 157 -63l-14 -25q-28 32 -61 46t-82 14q-112 0 -176 -75.5t-64 -207.5v-170h381v-29h-381v-995h-33v995h-205v29h205v170q0 146 72.5 228.5t200.5 82.5zM877 1335q22 0 36.5 -14.5t14.5 -36.5t-14.5 -36.5t-36.5 -14.5t-37 14.5t-15 36.5t15 36.5t37 14.5 zM860 0v1024h33v-1024h-33z" />
<glyph unicode="fl" horiz-adv-x="1220" d="M539 1505q101 0 157 -63l-14 -25q-28 32 -61 46t-82 14q-112 0 -176 -75.5t-64 -207.5v-170h381v-29h-381v-995h-33v995h-205v29h205v170q0 146 72.5 228.5t200.5 82.5zM1059 8q43 0 68.5 7.5t56.5 25.5l-2 -33q-51 -28 -123 -28q-100 0 -149.5 57.5t-49.5 181.5v1276h33 v-1276q0 -110 41.5 -160.5t124.5 -50.5z" />
<glyph unicode=" "  horiz-adv-x="534" />
<glyph unicode="&#x09;" horiz-adv-x="534" />
<glyph unicode="&#xa0;" horiz-adv-x="534" />
<glyph unicode="!" horiz-adv-x="430" d="M231 348h-32v1004h32v-1004zM213 92q22 0 37.5 -14.5t15.5 -36.5t-15.5 -36.5t-37.5 -14.5t-35.5 14.5t-13.5 36.5t13.5 36.5t35.5 14.5z" />
<glyph unicode="&#x22;" horiz-adv-x="497" d="M172 1067h-35v326h35v-326zM360 1067h-34v326h34v-326z" />
<glyph unicode="#" horiz-adv-x="1212" d="M870 907l-67 -442h301v-29h-305l-66 -436h-33l66 436h-404l-65 -436h-33l66 436h-283v29h287l67 442h-292v29h297l63 416h33l-64 -416h404l63 416h33l-64 -416h291v-29h-295zM838 907h-404l-67 -442h403z" />
<glyph unicode="$" horiz-adv-x="1296" d="M1167 338q0 -150 -131.5 -243.5t-349.5 -94.5v-184h-29v184q-202 6 -338.5 96.5t-177.5 253.5l31 17q35 -156 165 -244t320 -94v622q-52 10 -81 16t-77 17.5t-76 21.5t-67 26.5t-62 33t-49.5 41t-40 51.5t-23 62.5t-9.5 76.5q0 146 131 250.5t350 104.5h4v184h29v-184 q373 -13 461 -303l-27 -21q-77 282 -434 295v-643q52 -10 81 -15.5t76.5 -17t75.5 -21t66.5 -25.5t61.5 -32.5t48.5 -40.5t39.5 -51t23 -62.5t9 -76.5zM205 997q0 -47 14 -85.5t34.5 -66.5t57.5 -51.5t70 -38t86 -29t91.5 -22t98.5 -18.5v637h-4q-202 0 -325 -92.5 t-123 -233.5zM686 647v-618q126 1 226.5 36.5t161.5 106t61 166.5q0 45 -14 83t-34 65t-57.5 50.5t-69.5 38t-86 29.5t-90 23t-98 20z" />
<glyph unicode="%" horiz-adv-x="1683" d="M387 0h-37l916 1352h39zM420 1348q73 0 128.5 -29t88 -78.5t49 -109t16.5 -127.5t-16 -127t-49 -107t-88.5 -76t-128.5 -28q-96 0 -162.5 49.5t-94.5 123.5t-28 165q0 68 16.5 127.5t49.5 109t89.5 78.5t129.5 29zM420 1319q-124 0 -188 -90.5t-64 -224.5 q0 -86 25.5 -154t84 -112t142.5 -44q64 0 113 25t78.5 68.5t44 98.5t14.5 118t-15 118.5t-44.5 100t-78.5 70.5t-112 26zM1266 698q73 0 128.5 -28.5t88 -77.5t49 -108.5t16.5 -127.5t-16.5 -127t-49 -107.5t-88 -77t-128.5 -28.5q-96 0 -163 50t-95.5 124.5t-28.5 165.5 q0 68 17 127.5t50 108.5t90 77.5t130 28.5zM1266 670q-64 0 -114 -25.5t-80 -70t-45 -100t-15 -118.5t15.5 -118t45.5 -98.5t79.5 -69t113.5 -25.5q123 0 186.5 89t63.5 222t-63.5 223.5t-186.5 90.5z" />
<glyph unicode="&#x26;" horiz-adv-x="1243" d="M981 160q83 -87 130.5 -115.5t111.5 -40.5l-9 -24q-37 7 -55.5 12t-49.5 21t-65.5 46t-82.5 80q-156 -159 -404 -159q-192 0 -310 91.5t-118 233.5q0 133 77.5 237t248.5 199q-109 135 -147 205t-38 146q0 124 78 198t209 74q125 0 199.5 -66t74.5 -176q0 -209 -327 -389 l198 -244q164 -201 259 -307q151 171 151 469h31q0 -305 -162 -491zM557 1335q-115 0 -184.5 -66.5t-69.5 -176.5q0 -70 33.5 -131t148.5 -203q160 89 237 178t77 186t-66 155t-176 58zM551 8q242 0 391 152q-90 96 -268 313l-199 244q-164 -91 -238.5 -188.5t-74.5 -223.5 q0 -128 107.5 -212.5t281.5 -84.5z" />
<glyph unicode="'" horiz-adv-x="309" d="M172 1067h-35v326h35v-326z" />
<glyph unicode="(" horiz-adv-x="749" d="M621 1516l20 -23q-195 -166 -280 -388.5t-85 -520.5t85 -521t280 -389l-20 -22q-203 172 -292 400t-89 532t89 532t292 400z" />
<glyph unicode=")" horiz-adv-x="749" d="M109 1493l20 23q203 -172 292 -400t89 -532t-89 -532t-292 -400l-20 22q195 166 279.5 388.5t84.5 521.5t-84.5 521t-279.5 388z" />
<glyph unicode="*" horiz-adv-x="1161" d="M1014 692l-17 -26l-319 184l-90 61l8 -106v-371h-31v371l8 104l-88 -59l-321 -184l-14 26l321 185l94 47l-94 45l-321 186l16 27l321 -187l84 -57l-6 104v371h31v-371l-8 -106l88 59l321 187l15 -27l-320 -186l-96 -45l96 -47z" />
<glyph unicode="+" d="M1065 586h-457v-488h-33v488h-458v28h458v480h33v-480h457v-28z" />
<glyph unicode="," horiz-adv-x="333" d="M182 92q33 0 50.5 -30.5t17.5 -73.5q0 -61 -31.5 -118.5t-89.5 -88.5l-25 18q63 26 99 94.5t14 118.5h-4q-9 -22 -37 -22q-20 0 -33.5 14.5t-13.5 36.5t14.5 36.5t38.5 14.5z" />
<glyph unicode="-" horiz-adv-x="821" d="M698 537h-575v32h575v-32z" />
<glyph unicode="." horiz-adv-x="360" d="M178 92q22 0 37.5 -14.5t15.5 -36.5t-15.5 -36.5t-37.5 -14.5t-35.5 14.5t-13.5 36.5t13.5 36.5t35.5 14.5z" />
<glyph unicode="/" horiz-adv-x="679" d="M90 -143h-35l535 1638h35z" />
<glyph unicode="0" horiz-adv-x="1198" d="M600 1372q232 0 355.5 -179.5t123.5 -516.5t-123.5 -516.5t-355.5 -179.5t-356.5 180t-124.5 516t124.5 516t356.5 180zM600 1343q-217 0 -332.5 -172t-115.5 -495t115.5 -495.5t332.5 -172.5q215 0 331 173t116 495t-116 494.5t-331 172.5z" />
<glyph unicode="1" horiz-adv-x="620" d="M446 1352v-1352h-32v1294q-62 -95 -160 -165t-209 -107v29q117 41 218 119.5t151 181.5h32z" />
<glyph unicode="2" horiz-adv-x="1112" d="M1016 29v-29h-897v29q22 19 66 55q145 121 213.5 179.5t174 153t154 152t103.5 133t75.5 140t20.5 131.5q0 173 -103 271.5t-282 98.5q-181 0 -289.5 -109.5t-116.5 -295.5l-31 12q9 193 126 307.5t311 114.5t305 -106t110 -293q0 -47 -10.5 -94t-27.5 -89.5t-50 -92 t-64 -90t-85.5 -95.5t-98 -97t-117 -106t-128.5 -110.5t-145 -122.5q-37 -31 -56 -47h842z" />
<glyph unicode="3" horiz-adv-x="1044" d="M670 682q135 -24 210.5 -116.5t75.5 -213.5q0 -113 -56 -199t-149 -129.5t-206 -43.5q-184 0 -303 83.5t-152 225.5l29 18q28 -138 139 -218.5t287 -80.5q163 0 271 93.5t108 254.5q0 128 -92.5 220t-253.5 92h-103v28h103q148 0 229.5 92.5t81.5 231.5q0 152 -94 237.5 t-260 85.5q-132 0 -228 -71t-133 -195l-33 19q44 129 149 202.5t245 73.5q182 0 284.5 -93t102.5 -259q0 -127 -65.5 -219t-186.5 -119z" />
<glyph unicode="4" horiz-adv-x="1083" d="M1034 420h-284v-420h-33v420h-633v29l104 153l506 750h56v-903h284v-29zM717 449v878l-115 -170l-481 -708h596z" />
<glyph unicode="5" horiz-adv-x="1103" d="M575 819q186 0 304 -117t118 -301q0 -186 -120.5 -303.5t-311.5 -117.5q-398 0 -461 325l29 12q26 -157 137.5 -233t294.5 -76q177 0 288.5 110t111.5 283q0 172 -109 281t-281 109q-266 0 -397 -175h-28l61 736h735v-29h-708l-58 -672q126 168 395 168z" />
<glyph unicode="6" horiz-adv-x="1120" d="M600 -20q-481 0 -481 696q0 171 39.5 305t110 219t165 128.5t207.5 43.5q146 0 236.5 -67t128.5 -179l-31 -14q-31 104 -116 167.5t-218 63.5q-96 0 -174 -31.5t-132 -85.5t-92.5 -128.5t-59 -159t-28.5 -178t-3 -184t20 -179.5h6q-4 92 34 171.5t101 131t140.5 80.5 t154.5 29q202 0 316 -112.5t114 -303.5q0 -189 -119 -301t-319 -112zM598 8q186 0 297 106.5t111 282.5q0 174 -107 278.5t-291 104.5q-89 0 -167 -34t-129.5 -88.5t-81 -123t-29.5 -137.5q0 -168 111 -278.5t286 -110.5z" />
<glyph unicode="7" horiz-adv-x="909" d="M934 1352v-29q-247 -265 -382 -590t-167 -733h-35q33 399 163.5 724t381.5 599h-909v29h948z" />
<glyph unicode="8" horiz-adv-x="1054" d="M643 711q156 -28 251 -127t95 -238q0 -161 -129 -263.5t-332 -102.5q-204 0 -333 102.5t-129 263.5q0 139 95 238t253 127q-136 28 -213.5 114.5t-77.5 214.5q0 151 110.5 241.5t294.5 90.5t295 -90.5t111 -241.5q0 -128 -77.5 -214.5t-213.5 -114.5zM156 1040 q0 -140 102 -226.5t270 -86.5t270.5 86.5t102.5 226.5q0 138 -102 220.5t-271 82.5t-270.5 -82.5t-101.5 -220.5zM528 8q189 0 308.5 94.5t119.5 243.5q0 153 -119.5 250.5t-308.5 97.5q-190 0 -310 -97.5t-120 -250.5q0 -149 120 -243.5t310 -94.5z" />
<glyph unicode="9" horiz-adv-x="1138" d="M539 1372q232 0 356.5 -181t124.5 -515q0 -171 -36 -305t-100.5 -219t-151 -128.5t-191.5 -43.5q-166 0 -283 79t-145 207l34 19q22 -127 124.5 -202t269.5 -75q91 0 165 33.5t123.5 90t84.5 134t51.5 163.5t21.5 180t-1 182t-21 172h-2q3 -77 -20.5 -145t-66 -117.5 t-98.5 -85.5t-119 -54t-127 -18q-199 0 -315.5 112.5t-116.5 302.5q0 189 119.5 301.5t319.5 112.5zM541 1343q-186 0 -297 -106.5t-111 -282.5q0 -172 109 -277.5t290 -105.5q117 0 212 58t144.5 145t49.5 180q0 168 -111 278.5t-286 110.5z" />
<glyph unicode=":" horiz-adv-x="366" d="M188 922q-22 0 -37.5 14.5t-15.5 36.5t15.5 36.5t37.5 14.5t36 -14.5t14 -36.5t-14 -36.5t-36 -14.5zM178 92q22 0 37.5 -14.5t15.5 -36.5t-15.5 -36.5t-37.5 -14.5t-35.5 14.5t-13.5 36.5t13.5 36.5t35.5 14.5z" />
<glyph unicode=";" horiz-adv-x="366" d="M188 922q-22 0 -37.5 14.5t-15.5 36.5t15.5 36.5t37.5 14.5t36 -14.5t14 -36.5t-14 -36.5t-36 -14.5zM178 92q33 0 50.5 -30.5t17.5 -73.5q0 -61 -31.5 -118.5t-89.5 -88.5l-25 18q63 26 99 94.5t14 118.5h-4q-9 -22 -37 -22q-20 0 -33.5 14.5t-13.5 36.5t14.5 36.5 t38.5 14.5z" />
<glyph unicode="&#x3c;" d="M1073 1087l-897 -483l897 -502v-36l-926 520v39l926 499v-37z" />
<glyph unicode="=" d="M1055 815h-928v29h928v-29zM1055 367h-928v28h928v-28z" />
<glyph unicode="&#x3e;" d="M1034 625v-39l-925 -520v36l897 502l-897 483v37z" />
<glyph unicode="?" horiz-adv-x="1026" d="M516 1372q191 0 298.5 -91.5t107.5 -254.5q0 -63 -22.5 -118.5t-58.5 -98t-79.5 -83t-88 -81t-82 -82.5t-62.5 -97.5t-29 -117.5h-33q4 67 29.5 126.5t63 104t82 85.5t88 80.5t79.5 80t58 92t22 109.5q0 149 -99 233t-274 84q-160 0 -263.5 -87t-125.5 -242l-29 12 q26 162 137.5 254t280.5 92zM483 92q22 0 38 -15t16 -36t-16 -36t-38 -15t-35.5 14.5t-13.5 36.5t13.5 36.5t35.5 14.5z" />
<glyph unicode="@" horiz-adv-x="1894" d="M961 1372q129 0 240.5 -25t196 -70t152 -109t113.5 -139t77 -162.5t44.5 -177.5t13.5 -187q0 -246 -67 -384t-187 -138q-100 0 -150.5 70t-50.5 198v37q-39 -143 -141 -224t-252 -81q-207 0 -330.5 136t-123.5 365q0 224 123.5 358t330.5 134q150 0 252 -78.5t141 -218.5 v258h29v-664q0 -126 44.5 -194t133.5 -68q101 0 158 131t57 363q0 133 -25.5 252t-86 228.5t-151 188t-229 125.5t-312.5 47q-379 0 -605.5 -234.5t-226.5 -629.5q0 -196 62.5 -358t174.5 -272.5t272 -171t351 -60.5q132 0 265.5 43.5t215.5 120.5l21 -27q-90 -76 -228 -121 t-274 -45q-266 0 -468 107.5t-313.5 310t-111.5 473.5q0 409 235.5 651t629.5 242zM950 8q179 0 286 126.5t107 318.5v61q0 185 -107 307.5t-286 122.5q-192 0 -307 -126t-115 -337q0 -215 115 -344t307 -129z" />
<glyph unicode="A" horiz-adv-x="1191" d="M940 479h-688l-197 -479h-35l553 1352h45l553 -1352h-34zM928 508l-332 809l-332 -809h664z" />
<glyph unicode="B" horiz-adv-x="1280" d="M858 684q148 -29 223.5 -114.5t75.5 -223.5q0 -170 -114.5 -258t-337.5 -88h-476v1352h476q204 0 308.5 -86.5t104.5 -255.5q0 -267 -260 -326zM262 1323v-627h443q188 0 284 78.5t96 233.5t-96.5 235t-283.5 80h-443zM262 29h443q207 0 313 80.5t106 238.5 q0 320 -419 320h-443v-639z" />
<glyph unicode="C" horiz-adv-x="1363" d="M1237 350l31 -12q-51 -170 -191 -264t-344 -94q-270 0 -435 188.5t-165 507.5t164 507.5t436 188.5q422 0 524 -356l-30 -15q-102 342 -494 342q-257 0 -412 -180.5t-155 -486.5q0 -305 156 -486.5t411 -181.5q193 0 325 89.5t179 252.5z" />
<glyph unicode="D" horiz-adv-x="1443" d="M229 1352h416q328 0 497 -166.5t169 -489.5q0 -343 -169 -519.5t-497 -176.5h-416v1352zM262 29h383q312 0 472.5 169t160.5 498q0 309 -160.5 468t-472.5 159h-383v-1294z" />
<glyph unicode="E" horiz-adv-x="1210" d="M1159 29v-29h-930v1352h895v-29h-862v-618h692v-29h-692v-647h897z" />
<glyph unicode="F" d="M262 1323v-618h692v-29h-692v-676h-33v1352h893v-29h-860z" />
<glyph unicode="G" horiz-adv-x="1404" d="M1268 637v-637h-33v360q-43 -183 -174.5 -281.5t-335.5 -98.5q-270 0 -431 188t-161 508q0 319 164 507.5t436 188.5q422 0 524 -356l-28 -15q-102 342 -496 342q-257 0 -412 -180.5t-155 -486.5t152.5 -487t406.5 -181q243 0 376.5 145t133.5 408v47h-494v29h527z" />
<glyph unicode="H" horiz-adv-x="1478" d="M1249 1352v-1352h-32v676h-955v-676h-33v1352h33v-647h955v647h32z" />
<glyph unicode="I" horiz-adv-x="491" d="M262 0h-33v1352h33v-1352z" />
<glyph unicode="J" horiz-adv-x="1167" d="M961 1352v-924q0 -209 -102.5 -328.5t-295.5 -119.5q-200 0 -298 117t-70 313l32 16q-28 -201 61 -309.5t275 -108.5q178 0 271.5 112t93.5 308v924h33z" />
<glyph unicode="K" horiz-adv-x="1234" d="M565 786l-303 -307v-479h-33v1352h33v-826l811 826h47l-530 -539l551 -813h-43z" />
<glyph unicode="L" horiz-adv-x="1140" d="M1114 29v-29h-885v1352h33v-1323h852z" />
<glyph unicode="M" horiz-adv-x="1683" d="M1454 1352v-1352h-33v1317l-37 -88l-522 -1229h-41l-522 1229l-37 88v-1317h-33v1352h54l559 -1313l559 1313h53z" />
<glyph unicode="N" horiz-adv-x="1478" d="M1249 1352v-1352h-49l-938 1317v-1317h-33v1352h50l938 -1317v1317h32z" />
<glyph unicode="O" horiz-adv-x="1499" d="M750 1372q284 0 450 -187.5t166 -508.5t-166 -508.5t-450 -187.5t-450.5 187.5t-166.5 508.5t166.5 508.5t450.5 187.5zM750 1343q-269 0 -426.5 -180t-157.5 -487t157.5 -487.5t426.5 -180.5q268 0 425.5 180t157.5 488q0 307 -157 487t-426 180z" />
<glyph unicode="P" horiz-adv-x="1247" d="M229 1352h418q217 0 339 -100.5t122 -278.5t-122 -277.5t-339 -99.5h-385v-596h-33v1352zM262 625h385q201 0 314.5 92t113.5 256t-113.5 257t-314.5 93h-385v-698z" />
<glyph unicode="Q" horiz-adv-x="1499" d="M1114 -371q140 0 213 76l16 -27q-80 -77 -229 -77q-157 0 -258 100.5t-111 278.5q-187 1 -325.5 86t-212.5 242t-74 368q0 321 166.5 508.5t450.5 187.5t450 -187.5t166 -508.5q0 -313 -159 -500t-433 -196q10 -168 102 -259.5t238 -91.5zM166 676q0 -307 157.5 -487.5 t426.5 -180.5q268 0 425.5 180t157.5 488q0 307 -157 487t-426 180t-426.5 -180t-157.5 -487z" />
<glyph unicode="R" horiz-adv-x="1392" d="M1169 0l-409 616l-41 -2h-457v-614h-33v1352h490q198 0 313 -99t115 -270q0 -153 -92 -249t-256 -116l407 -618h-37zM262 643h457q186 0 290.5 90t104.5 250t-104.5 250t-290.5 90h-457v-680z" />
<glyph unicode="S" horiz-adv-x="1429" d="M719 1372q402 0 493 -313l-26 -21q-80 305 -467 305q-202 0 -325.5 -95.5t-123.5 -239.5q0 -76 33 -132t88.5 -88.5t128 -54.5t152 -37.5t159.5 -31t152.5 -39.5t128 -59.5t88.5 -95.5t33 -142q0 -155 -132.5 -251.5t-352.5 -96.5q-210 0 -354.5 94t-186.5 266l31 16 q36 -166 173.5 -257t336.5 -91q127 0 228 36.5t162.5 110t61.5 173.5q0 75 -33 130t-88.5 87t-127.5 54.5t-152 38l-160 31t-152 40.5t-127.5 60.5t-88.5 96t-33 142.5q0 151 131 257.5t350 106.5z" />
<glyph unicode="T" horiz-adv-x="1148" d="M1110 1323h-518v-1323h-33v1323h-520v29h1071v-29z" />
<glyph unicode="U" horiz-adv-x="1433" d="M1227 1352v-871q0 -240 -134.5 -370.5t-375.5 -130.5t-375.5 130.5t-134.5 370.5v871h33v-871q0 -225 126 -349t351 -124t351 124t126 349v871h33z" />
<glyph unicode="V" horiz-adv-x="1224" d="M1167 1352l-532 -1352h-45l-533 1352h35l520 -1315l521 1315h34z" />
<glyph unicode="W" horiz-adv-x="1857" d="M1845 1352l-446 -1352h-49l-394 1307l-395 -1307h-49l-446 1352h34l400 -1205l39 -124l18 71l377 1258h43l377 -1258l18 -71l39 124l399 1205h35z" />
<glyph unicode="X" horiz-adv-x="1091" d="M989 0l-438 668l-447 -668h-43l469 700l-428 652h41l408 -623l418 623h43l-441 -654l459 -698h-41z" />
<glyph unicode="Y" horiz-adv-x="1097" d="M1040 1352l-475 -828v-524h-33v524l-475 828h39l453 -793l452 793h39z" />
<glyph unicode="Z" d="M1120 29v-29h-1022v29l955 1294h-932v29h971v-29l-951 -1294h979z" />
<glyph unicode="[" horiz-adv-x="749" d="M324 1466v-1781h340v-29h-371v1839h371v-29h-340z" />
<glyph unicode="\" horiz-adv-x="679" d="M90 1495l535 -1638h-35l-535 1638h35z" />
<glyph unicode="]" horiz-adv-x="749" d="M457 1495v-1839h-371v29h340v1781h-340v29h371z" />
<glyph unicode="^" horiz-adv-x="985" d="M854 713l-360 616l-363 -616h-39l375 639h51l375 -639h-39z" />
<glyph unicode="_" horiz-adv-x="1019" d="M1020 -227h-1022v28h1022v-28z" />
<glyph unicode="`" horiz-adv-x="1126" d="M537 1194h-35l-203 342h37z" />
<glyph unicode="a" horiz-adv-x="1105" d="M1016 8q54 0 78 19l-2 -29q-27 -18 -74 -18q-27 0 -50 7.5t-47 26t-37.5 58t-13.5 96.5v29q-27 -72 -96 -122.5t-151.5 -72.5t-171.5 -22q-151 0 -235.5 63.5t-84.5 177.5q0 121 88.5 190.5t288.5 106.5l362 68v127q0 144 -84 223.5t-241 79.5q-140 0 -230 -59t-137 -183 l-26 21q47 127 143 188t250 61q174 0 266 -85t92 -246v-557q0 -73 30 -110.5t83 -37.5zM461 8q64 0 132 18t131.5 52t104.5 94.5t41 136.5v248l-340 -63q-196 -36 -281 -102t-85 -171q0 -100 79 -156.5t218 -56.5z" />
<glyph unicode="b" horiz-adv-x="1271" d="M651 1044q221 0 345 -140.5t124 -391.5t-124 -391.5t-345 -140.5q-161 0 -270.5 85t-147.5 242v-307h-32v1495h32v-774q40 155 149.5 239t268.5 84zM645 8q209 0 325.5 133t116.5 371t-116.5 371t-325.5 133q-189 0 -300.5 -133.5t-111.5 -364.5v-14q0 -230 112 -363 t300 -133z" />
<glyph unicode="c" horiz-adv-x="1138" d="M623 1044q154 0 260.5 -73t142.5 -207l-29 -14q-34 127 -131.5 196.5t-242.5 69.5q-206 0 -322.5 -134.5t-116.5 -369.5q0 -236 113 -370t319 -134q146 0 257.5 77.5t132.5 205.5l28 -10q-26 -136 -143 -218.5t-275 -82.5q-221 0 -342.5 140.5t-121.5 391.5 q0 250 124.5 391t346.5 141z" />
<glyph unicode="d" horiz-adv-x="1271" d="M1071 1495v-1495h-33v307q-38 -157 -147 -242t-270 -85q-221 0 -345 140.5t-124 391.5t124 391.5t345 140.5q159 0 268 -84t149 -239v774h33zM627 8q187 0 299 133t112 363v14q0 231 -111.5 364.5t-299.5 133.5q-209 0 -326 -133t-117 -371t117 -371t326 -133z" />
<glyph unicode="e" horiz-adv-x="1144" d="M1042 489h-858q6 -227 120.5 -354t316.5 -127q129 0 232.5 61.5t154.5 168.5l26 -15q-54 -114 -163.5 -178.5t-249.5 -64.5q-221 0 -345 140.5t-124 391.5q0 250 121.5 391t336.5 141q203 0 317.5 -143.5t114.5 -396.5v-15zM610 1016q-199 0 -311.5 -131.5t-114.5 -364.5 h830q-5 234 -109.5 365t-294.5 131z" />
<glyph unicode="f" horiz-adv-x="659" d="M539 1477q-112 0 -176 -75.5t-64 -207.5v-170h381v-29h-381v-995h-33v995h-205v29h205v170q0 146 72.5 228.5t200.5 82.5q101 0 157 -63l-14 -25q-28 32 -61 46t-82 14z" />
<glyph unicode="g" horiz-adv-x="1044" d="M446 76h302q125 0 199.5 -64t74.5 -159q0 -127 -128 -210t-333 -83q-210 0 -328 76t-118 194q0 88 64.5 148.5t166.5 78.5q-76 20 -122 67.5t-46 106.5q0 73 54.5 126.5t150.5 70.5q-104 37 -164.5 115t-60.5 180q0 140 110.5 230.5t280.5 90.5q136 0 235 -61 q7 103 77.5 166t174.5 63l11 -26q-102 0 -168 -59.5t-70 -157.5q61 -43 95 -107.5t34 -138.5q0 -140 -110 -231t-279 -91q-56 0 -113 13q-105 -11 -165 -61.5t-60 -112.5q0 -68 63.5 -116t171.5 -48zM190 723q0 -127 102 -210t257 -83t255.5 82.5t100.5 210.5t-100.5 210.5 t-255.5 82.5t-257 -83t-102 -210zM565 -412q187 0 305.5 74.5t118.5 185.5q0 87 -66 143t-180 56h-309q-113 0 -200 -62t-87 -151q0 -109 108 -177.5t310 -68.5z" />
<glyph unicode="h" horiz-adv-x="1232" d="M631 1044q184 0 296.5 -99.5t112.5 -270.5v-672h-32v668q0 161 -105 253.5t-278 92.5q-107 0 -198 -55.5t-142.5 -147.5t-51.5 -197v-616h-32v1495h32v-741q36 128 144.5 209t253.5 81z" />
<glyph unicode="i" horiz-adv-x="434" d="M217 1335q22 0 36.5 -14.5t14.5 -36.5t-14.5 -36.5t-36.5 -14.5t-36.5 14.5t-14.5 36.5t14.5 36.5t36.5 14.5zM233 0h-32v1024h32v-1024z" />
<glyph unicode="j" horiz-adv-x="450" d="M233 1335q22 0 37 -14.5t15 -36.5t-15 -36.5t-37 -14.5t-36.5 14.5t-14.5 36.5t14.5 36.5t36.5 14.5zM250 1024v-1155q0 -141 -73.5 -225t-196.5 -84q-95 0 -146 45l10 28q48 -45 136 -45q107 0 172 77t65 204v1155h33z" />
<glyph unicode="k" horiz-adv-x="1013" d="M543 621l-310 -318v-303h-32v1495h32v-1145l654 674h47l-369 -379l430 -645h-43z" />
<glyph unicode="l" horiz-adv-x="561" d="M233 1495v-1276q0 -110 41.5 -160.5t124.5 -50.5q43 0 68.5 7.5t56.5 25.5l-2 -33q-51 -28 -123 -28q-100 0 -149 57.5t-49 181.5v1276h32z" />
<glyph unicode="m" horiz-adv-x="2039" d="M1438 1047q184 0 296.5 -100t112.5 -271v-672h-32v668q0 161 -105 253.5t-278 92.5q-107 0 -198 -55.5t-142.5 -147.5t-51.5 -197v-616h-32v668q0 161 -105 253.5t-278 92.5q-107 0 -198 -55.5t-142.5 -147.5t-51.5 -197v-616h-32v1024h32v-270q36 128 144.5 209 t253.5 81q166 0 274.5 -81t130.5 -224q30 133 141 220.5t261 87.5z" />
<glyph unicode="n" horiz-adv-x="1232" d="M631 1044q184 0 296.5 -99.5t112.5 -270.5v-674h-32v670q0 161 -105 253.5t-278 92.5q-107 0 -198 -55.5t-142.5 -147.5t-51.5 -197v-616h-32v1024h32v-270q36 128 144.5 209t253.5 81z" />
<glyph unicode="o" horiz-adv-x="1259" d="M631 1044q223 0 350 -141.5t127 -390.5t-127 -390.5t-350 -141.5t-351 141.5t-128 390.5t128 390.5t351 141.5zM631 1016q-207 0 -327 -135t-120 -369t120 -369t327 -135t325.5 134.5t118.5 369.5t-118.5 369.5t-325.5 134.5z" />
<glyph unicode="p" horiz-adv-x="1271" d="M651 1044q221 0 345 -140.5t124 -391.5t-124 -391.5t-345 -140.5q-161 0 -270.5 85t-147.5 242v-737h-32v1454h32v-303q40 155 149.5 239t268.5 84zM645 8q209 0 325.5 133t116.5 371t-116.5 371t-325.5 133q-189 0 -300.5 -133.5t-111.5 -364.5v-14q0 -230 112 -363 t300 -133z" />
<glyph unicode="q" horiz-adv-x="1271" d="M1071 1024v-1454h-33v737q-38 -157 -147 -242t-270 -85q-221 0 -345 140.5t-124 391.5t124 391.5t345 140.5q159 0 268 -84t149 -239v303h33zM627 8q187 0 299 133t112 363v14q0 231 -111.5 364.5t-299.5 133.5q-209 0 -326 -133t-117 -371t117 -371t326 -133z" />
<glyph unicode="r" horiz-adv-x="727" d="M569 1044q97 0 146 -49l-19 -24q-45 45 -131 45q-100 0 -177.5 -61t-116 -155.5t-38.5 -203.5v-596h-32v1024h32v-276q32 130 121.5 213t214.5 83z" />
<glyph unicode="s" horiz-adv-x="976" d="M498 1044q325 0 381 -256l-29 -16q-51 244 -352 244q-150 0 -248 -69.5t-98 -172.5q0 -75 40.5 -125.5t105 -74.5t142 -40.5t155.5 -33t142.5 -41.5t105 -76.5t40.5 -128.5q0 -127 -106 -200.5t-288 -73.5q-164 0 -275 63.5t-140 183.5l30 15q26 -114 130 -174t262 -60 q163 0 258.5 66.5t95.5 179.5q0 70 -40.5 116t-105 69t-142.5 38.5t-155.5 32.5t-142 43.5t-105 80t-40.5 132.5q0 119 107.5 198.5t271.5 79.5z" />
<glyph unicode="t" horiz-adv-x="784" d="M692 84l17 -27q-32 -34 -85 -55.5t-112 -21.5q-244 0 -244 278l-2 737h-205v29h205v266l33 10v-276h395v-29h-395v-737q0 -250 213 -250q110 0 180 76z" />
<glyph unicode="u" horiz-adv-x="1212" d="M1012 1024v-1024h-33v272q-36 -129 -152 -210.5t-276 -81.5t-259 96t-99 266v682h32v-678q0 -159 91 -248.5t241 -89.5q119 0 216.5 55.5t151.5 147t54 197.5v616h33z" />
<glyph unicode="v" horiz-adv-x="972" d="M934 1024l-430 -1024h-35l-430 1024h37l411 -983l410 983h37z" />
<glyph unicode="w" horiz-adv-x="1583" d="M1530 1024l-340 -1024h-33l-364 977l-367 -977h-33l-340 1024h35l322 -977l364 977h35l365 -977l321 977h35z" />
<glyph unicode="x" horiz-adv-x="911" d="M813 0l-356 500l-348 -500h-43l370 530l-352 494h45l328 -465l301 465h45l-326 -494l377 -530h-41z" />
<glyph unicode="y" horiz-adv-x="985" d="M946 1024l-510 -1231q-54 -131 -117 -182t-161 -51q-116 0 -160 65l18 27q42 -64 144 -64q83 0 140 46t106 165l81 199l-436 1026h37l416 -987l405 987h37z" />
<glyph unicode="z" horiz-adv-x="991" d="M934 29v-29h-858v29l801 966h-797v29h835v-29l-798 -966h817z" />
<glyph unicode="{" horiz-adv-x="784" d="M416 1286v-495q0 -77 -42 -131t-118 -76q76 -20 118 -74t42 -131v-498q0 -94 55 -147t152 -53v-29q-112 0 -176 61t-64 168v498q0 90 -62 141t-171 51v27q109 0 171 51t62 142v495q0 107 64 168.5t176 61.5v-29q-97 0 -152 -53.5t-55 -147.5z" />
<glyph unicode="|" horiz-adv-x="464" d="M248 -344h-31v1839h31v-1839z" />
<glyph unicode="}" horiz-adv-x="784" d="M401 1286v-495q0 -90 62.5 -141.5t171.5 -51.5v-27q-109 0 -171.5 -51t-62.5 -141v-498q0 -107 -63.5 -168t-175.5 -61v29q97 0 152 53t55 147v498q0 77 41.5 131t117.5 76q-75 20 -117 73.5t-42 131.5v495q0 94 -55 147.5t-152 53.5v29q112 0 175.5 -61.5t63.5 -168.5z " />
<glyph unicode="~" d="M1075 754h33q-19 -128 -90 -194t-187 -66q-64 0 -121 23.5t-98.5 57t-81 67.5t-87 57.5t-97.5 23.5q-202 0 -240 -231h-32q38 260 272 260q57 0 109 -23.5t92.5 -57.5t81.5 -68t93 -57.5t109 -23.5q206 0 244 232z" />
<glyph unicode="&#xa1;" horiz-adv-x="430" d="M217 932q-22 0 -37.5 14.5t-15.5 36.5t15.5 36.5t37.5 14.5t35.5 -14.5t13.5 -36.5t-13.5 -36.5t-35.5 -14.5zM199 676h32v-1004h-32v1004z" />
<glyph unicode="&#xa2;" horiz-adv-x="1202" d="M1006 455l28 -11q-26 -134 -140 -216t-269 -85v-143h-29v143q-212 7 -328 148t-116 385q0 242 117 382.5t327 149.5v144h29v-144q152 0 258.5 -73t142.5 -207l-29 -15q-34 127 -131.5 197t-240.5 70v-1008q144 3 252 80t129 203zM184 676q0 -230 107.5 -363.5 t304.5 -140.5v1008q-195 -9 -303.5 -142.5t-108.5 -361.5z" />
<glyph unicode="&#xa3;" horiz-adv-x="1187" d="M1081 133l23 -18q-38 -135 -215 -135q-51 0 -95.5 10t-89 34.5t-68.5 40t-71 50.5q-50 -64 -127 -99.5t-168 -35.5q-89 0 -141.5 36.5t-52.5 98.5q0 64 57 102.5t152 38.5q81 0 143 -26t129 -74q47 71 47 159q0 90 -32.5 159.5t-92.5 146.5h-274v28h252q-37 46 -57 74 t-46 74t-37.5 95.5t-11.5 106.5q0 169 108 271t285 102q150 0 245.5 -80.5t109.5 -216.5l-31 -12q-12 126 -101 203t-223 77q-165 0 -262.5 -93.5t-97.5 -250.5q0 -55 11.5 -102t40.5 -96.5t46 -72.5t60 -79h432v-28h-410q57 -76 88 -145.5t31 -156.5q0 -97 -53 -182 q48 -35 68 -48.5t63 -37.5t84.5 -33.5t89.5 -9.5q158 0 192 125zM270 8q86 0 156.5 33t114.5 90q-65 46 -123.5 71t-130.5 25q-82 0 -130 -30.5t-48 -81.5q0 -49 43.5 -78t117.5 -29z" />
<glyph unicode="&#xa4;" horiz-adv-x="1196" d="M958 682q0 -155 -84 -260l213 -213l-22 -23l-213 213q-96 -96 -254 -96q-154 0 -254 94l-211 -211l-24 25l210 211q-83 103 -83 260q0 154 79 252l-206 207l24 24l205 -207q99 99 260 99q159 0 258 -99l209 207l22 -22l-208 -211q79 -98 79 -250zM598 332 q151 0 239.5 94.5t88.5 255.5q0 158 -88.5 252t-239.5 94t-240.5 -94t-89.5 -252q0 -161 89.5 -255.5t240.5 -94.5z" />
<glyph unicode="&#xa5;" horiz-adv-x="1097" d="M582 553h407v-29h-424v-295h424v-28h-424v-201h-33v201h-421v28h421v295h-421v29h405l-39 70l-420 729h39l410 -717l41 -76h4l39 72l411 721h39z" />
<glyph unicode="&#xa6;" horiz-adv-x="464" d="M248 807h-31v688h31v-688zM248 -344h-31v688h31v-688z" />
<glyph unicode="&#xa7;" horiz-adv-x="1251" d="M758 164q69 -14 119.5 -29t103.5 -39.5t86.5 -54.5t54.5 -75t21 -101q0 -135 -133.5 -220t-352.5 -85q-210 0 -354 82.5t-186 232.5l30 14q36 -144 173.5 -222.5t336.5 -76.5q195 0 324 73t129 202q0 65 -33 114t-88.5 78t-128 50t-152.5 36t-159.5 30.5t-152 39 t-128 55.5t-88.5 85t-33 124q0 108 90 190t230 109q-72 17 -125 37.5t-100 52.5t-71 79.5t-24 109.5q0 132 131.5 224.5t350.5 92.5q402 0 493 -272l-26 -19q-78 262 -467 262q-202 0 -325.5 -81.5t-123.5 -206.5q0 -67 33 -115.5t88.5 -76.5t128 -47.5t152.5 -32.5 t159.5 -26.5t152 -35t128 -52t88.5 -83t33 -123.5q0 -119 -103.5 -199.5t-281.5 -99.5zM180 477q0 -141 158 -212q85 -39 294 -78l1 -1h1h1h1h1h1l1 -1h1h1h1h1l1 -1h1h1h1h2q19 -4 29 -6q184 8 308 85t124 200q0 34 -9.5 63.5t-25 52t-40.5 42t-51.5 33.5t-63.5 27 t-69.5 21.5t-77.5 17.5t-79.5 15t-82.5 14t-81 15q-144 -18 -247 -96.5t-103 -190.5z" />
<glyph unicode="&#xa8;" horiz-adv-x="1126" d="M375 1335q22 0 36.5 -14.5t14.5 -36.5t-14.5 -36.5t-36.5 -14.5t-36.5 14.5t-14.5 36.5t14.5 36.5t36.5 14.5zM752 1335q22 0 36.5 -14.5t14.5 -36.5t-14.5 -36.5t-36.5 -14.5t-37 14.5t-15 36.5t15 36.5t37 14.5z" />
<glyph unicode="&#xa9;" horiz-adv-x="1638" d="M819 1372q319 0 510 -189.5t191 -506.5t-191 -506.5t-510 -189.5t-509.5 189.5t-190.5 506.5t190.5 506.5t509.5 189.5zM819 1343q-306 0 -486.5 -180.5t-180.5 -486.5t180.5 -487t486.5 -181t487 181t181 487t-181 486.5t-487 180.5zM844 1051q237 0 305 -205l-29 -15 q-59 191 -278 191q-158 0 -248 -93t-90 -257t90 -257t248 -93q107 0 185 56.5t101 151.5l31 -12q-28 -103 -113.5 -164t-201.5 -61q-175 0 -274 100.5t-99 278.5t99 278.5t274 100.5z" />
<glyph unicode="&#xaa;" horiz-adv-x="811" d="M621 1067v47q0 110 -58.5 169.5t-167.5 59.5q-98 0 -160.5 -42.5t-84.5 -124.5l-29 16q29 88 98.5 134t171.5 46q126 0 194 -63t68 -181v-313q0 -139 97 -139q18 0 30 4l8 -23q-12 -10 -40 -10q-127 0 -127 160v12q-31 -76 -107 -124t-184 -48t-168 43.5t-60 128.5 q0 74 61 123.5t163 69.5zM330 676q128 0 209.5 72t81.5 176v116l-279 -53q-95 -18 -151 -62t-56 -108q0 -69 51.5 -105t143.5 -36zM100 442h654v-28h-654v28z" />
<glyph unicode="&#xab;" horiz-adv-x="1038" d="M537 909l22 -24l-385 -373l385 -373l-22 -24l-412 397zM940 909l23 -24l-385 -373l385 -373l-23 -24l-412 397z" />
<glyph unicode="&#xac;" d="M1065 614v-315h-33v287h-915v28h948z" />
<glyph unicode="&#xad;" horiz-adv-x="1228" d="M698 537h-575v32h575v-32z" />
<glyph unicode="&#xae;" horiz-adv-x="1638" d="M819 1372q319 0 510 -189.5t191 -506.5t-191 -506.5t-510 -189.5t-509.5 189.5t-190.5 506.5t190.5 506.5t509.5 189.5zM819 8q306 0 487 181t181 487t-181 486.5t-487 180.5t-486.5 -180.5t-180.5 -486.5t180.5 -487t486.5 -181zM1130 844q0 -190 -208 -205l221 -346 h-37l-221 344h-283v-344h-33v758h318q243 0 243 -207zM602 664h285q213 3 213 180q0 178 -213 178h-285v-358z" />
<glyph unicode="&#xaf;" horiz-adv-x="1126" d="M856 1278h-672v29h672v-29z" />
<glyph unicode="&#xb0;" horiz-adv-x="757" d="M379 1372q124 0 199 -76t75 -200t-75 -200.5t-199 -76.5t-199.5 76.5t-75.5 200.5q0 123 75.5 199.5t199.5 76.5zM379 1343q-109 0 -175.5 -68.5t-66.5 -178.5t66.5 -179t175.5 -69t175.5 69t66.5 179t-66.5 178.5t-175.5 68.5z" />
<glyph unicode="&#xb1;" d="M1065 801v-29h-457v-457h-33v457h-458v29h458v448h33v-448h457zM117 96h948v-28h-948v28z" />
<glyph unicode="&#xb2;" horiz-adv-x="616" d="M561 666v-29h-495v29q50 42 130 104t125.5 99.5t94.5 86t71.5 94.5t22.5 95q0 198 -211 198q-88 0 -144.5 -55.5t-62.5 -150.5l-31 12q10 105 74 164t164 59q244 0 244 -227q0 -31 -10 -62t-24 -57t-42 -58.5t-51.5 -55.5t-66 -58.5t-71.5 -58t-82.5 -63.5t-84.5 -66h450 z" />
<glyph unicode="&#xb3;" horiz-adv-x="698" d="M420 995q86 0 138 -46t52 -124q0 -93 -66.5 -145.5t-189.5 -52.5q-214 0 -264 188l23 12q53 -172 237 -172q113 0 172 46t56 128q-2 70 -54 109t-159 39h-84v29h84q196 0 196 157q0 85 -54 132.5t-151 47.5q-93 0 -138.5 -38t-65.5 -117l-29 12q37 172 233 172 q113 0 175.5 -52t62.5 -146q0 -83 -47 -131t-127 -48z" />
<glyph unicode="&#xb4;" horiz-adv-x="1126" d="M827 1536l-202 -342h-35l201 342h36z" />
<glyph unicode="&#xb5;" horiz-adv-x="1220" d="M1020 1024v-1024h-33v272q-36 -129 -152 -210.5t-276 -81.5q-115 0 -201.5 55.5t-124.5 157.5v-623h-32v1454h32v-678q0 -159 91 -248.5t241 -89.5q119 0 216.5 55.5t151.5 147t54 197.5v616h33z" />
<glyph unicode="&#xb6;" horiz-adv-x="1193" d="M965 1352v-1782h-33v1753h-285v-1753h-33v1032q-479 0 -479 373q0 371 469 377h361z" />
<glyph unicode="&#xb7;" horiz-adv-x="360" d="M178 604q22 0 37.5 -14.5t15.5 -36.5t-15.5 -36.5t-37.5 -14.5t-35.5 14.5t-13.5 36.5t13.5 36.5t35.5 14.5z" />
<glyph unicode="&#xb8;" horiz-adv-x="1353" d="M539 6h43q122 -58 169.5 -115.5t47.5 -132.5q0 -77 -48.5 -123.5t-127.5 -46.5q-124 0 -197 84l16 25q74 -82 181 -82q66 0 105.5 38.5t39.5 102.5q0 68 -48.5 124t-180.5 126z" />
<glyph unicode="&#xb9;" horiz-adv-x="358" d="M256 1352v-725h-33v680q-78 -84 -207 -117v29q154 43 207 133h33z" />
<glyph unicode="&#xba;" horiz-adv-x="811" d="M446 1372q143 0 233.5 -95t90.5 -257t-90.5 -257t-233.5 -95t-233 95t-90 257t90 257t233 95zM446 1343q-130 0 -210 -86t-80 -237t80 -237.5t210 -86.5t210.5 86.5t80.5 237.5t-80.5 237t-210.5 86zM774 414h-653v28h653v-28z" />
<glyph unicode="&#xbb;" horiz-adv-x="1038" d="M98 115l-22 24l385 373l-385 373l22 24l412 -397zM502 115l-23 24l385 373l-385 373l23 24l411 -397z" />
<glyph unicode="&#xbc;" horiz-adv-x="1429" d="M360 627v680q-78 -84 -206 -117v29q153 43 206 133h33v-725h-33zM1208 1352l-917 -1352h-37l915 1352h39zM1327 248h-168v-248h-33v248h-303v28l297 449h39v-449h168v-28zM1126 276v418l-26 -51l-201 -309l-45 -58h272z" />
<glyph unicode="&#xbd;" horiz-adv-x="1595" d="M360 627v680q-78 -84 -206 -117v29q153 43 206 133h33v-725h-33zM1208 1352l-917 -1352h-37l915 1352h39zM1442 29v-29h-496v29q50 43 130 104.5t126 99t95 86t71.5 94.5t22.5 95q0 199 -211 199q-88 0 -144.5 -56t-62.5 -151l-31 12q10 105 74 164t164 59 q243 0 243 -227q0 -31 -10 -62t-24 -57t-42 -58.5t-51.5 -55.5t-66 -58.5t-71.5 -58t-82.5 -63.5t-84.5 -66h451z" />
<glyph unicode="&#xbe;" horiz-adv-x="1595" d="M729 825q0 -93 -66.5 -145.5t-189.5 -52.5q-214 0 -264 188l22 12q53 -172 238 -172q113 0 171.5 45.5t55.5 128.5q-2 70 -54 109t-159 39h-84v29h84q197 0 197 157q0 85 -54 132.5t-151 47.5q-93 0 -139 -38t-66 -117l-28 12q37 172 233 172q113 0 175.5 -52t62.5 -146 q0 -83 -47 -131t-127 -48q86 0 138 -46t52 -124zM1372 1352l-917 -1352h-37l915 1352h39zM1446 248h-168v-248h-33v248h-303v28l297 449h39v-449h168v-28zM1245 276v418l-26 -51l-201 -309l-45 -58h272z" />
<glyph unicode="&#xbf;" horiz-adv-x="1026" d="M543 932q-22 0 -38 15t-16 36t16 36t38 15t35.5 -14.5t13.5 -36.5t-13.5 -36.5t-35.5 -14.5zM510 -348q-191 0 -298.5 91.5t-107.5 254.5q0 63 22.5 118.5t58.5 98t79.5 83t88 81t82 82.5t62.5 97.5t29 117.5h33q-4 -67 -29.5 -126.5t-63 -104t-82 -85.5t-88 -80.5 t-79.5 -80t-58 -92t-22 -109.5q0 -149 99 -233t274 -84q160 0 263.5 87t125.5 242l29 -12q-26 -162 -137.5 -254t-280.5 -92z" />
<glyph unicode="&#xc0;" horiz-adv-x="1191" d="M565 1522l-139 303h43l129 -303h-33zM940 479h-688l-197 -479h-35l553 1352h45l553 -1352h-34zM928 508l-332 809l-332 -809h664z" />
<glyph unicode="&#xc1;" horiz-adv-x="1191" d="M629 1522h-33l129 303h43zM940 479h-688l-197 -479h-35l553 1352h45l553 -1352h-34zM928 508l-332 809l-332 -809h664z" />
<glyph unicode="&#xc2;" horiz-adv-x="1191" d="M383 1552h-41l238 291h32l238 -291h-41l-213 263zM940 479h-688l-197 -479h-35l553 1352h45l553 -1352h-34zM928 508l-332 809l-332 -809h664z" />
<glyph unicode="&#xc3;" horiz-adv-x="1191" d="M449 1739q-70 0 -102 -39t-48 -123h-29q18 99 60 147t121 48q39 0 72 -16.5t56.5 -40.5t46 -48t53 -40.5t66.5 -16.5q71 0 103.5 39t48.5 123h29q-18 -99 -60 -147t-121 -48q-40 0 -73 16.5t-56.5 40.5t-46 48t-53 40.5t-67.5 16.5zM940 479h-688l-197 -479h-35l553 1352 h45l553 -1352h-34zM928 508l-332 809l-332 -809h664z" />
<glyph unicode="&#xc4;" horiz-adv-x="1191" d="M406 1561q-22 0 -37 14.5t-15 36.5t15 36.5t37 14.5t36.5 -14.5t14.5 -36.5t-14.5 -36.5t-36.5 -14.5zM782 1561q-22 0 -36.5 14.5t-14.5 36.5t14.5 36.5t36.5 14.5t37 -14.5t15 -36.5t-15 -36.5t-37 -14.5zM940 479h-688l-197 -479h-35l553 1352h45l553 -1352h-34z M928 508l-332 809l-332 -809h664z" />
<glyph unicode="&#xc5;" horiz-adv-x="1191" d="M940 479h-688l-197 -479h-35l543 1325q-75 9 -121.5 62t-46.5 129q0 85 54.5 138.5t142.5 53.5q87 0 141.5 -53.5t54.5 -138.5q0 -75 -43.5 -127t-115.5 -64l542 -1325h-34zM428 1516q0 -72 46 -118t118 -46t118 46t46 118t-46 117.5t-118 45.5t-118 -45.5t-46 -117.5z M928 508l-332 809l-332 -809h664z" />
<glyph unicode="&#xc6;" horiz-adv-x="1812" d="M1761 29v-29h-854v479h-565l-301 -479h-47l860 1352h875v-29h-789v-623h631v-28h-631v-643h821zM907 508v815h-35l-512 -815h547z" />
<glyph unicode="&#xc7;" horiz-adv-x="1363" d="M1237 350l31 -12q-50 -167 -187 -261t-336 -97q92 -51 129 -103t37 -119q0 -77 -48.5 -123.5t-127.5 -46.5q-123 0 -196 84l16 25q74 -82 180 -82q66 0 106 38.5t40 102.5q0 62 -39.5 113t-143.5 111q-257 14 -411 201t-154 495q0 319 164 507.5t436 188.5 q422 0 524 -356l-30 -15q-102 342 -494 342q-257 0 -412 -180.5t-155 -486.5q0 -305 156 -486.5t411 -181.5q193 0 325 89.5t179 252.5z" />
<glyph unicode="&#xc8;" horiz-adv-x="1210" d="M645 1522l-139 303h43l129 -303h-33zM1159 29v-29h-930v1352h895v-29h-862v-618h692v-29h-692v-647h897z" />
<glyph unicode="&#xc9;" horiz-adv-x="1210" d="M709 1522h-33l129 303h43zM1159 29v-29h-930v1352h895v-29h-862v-618h692v-29h-692v-647h897z" />
<glyph unicode="&#xca;" horiz-adv-x="1210" d="M463 1552h-41l237 291h33l238 -291h-41l-213 263zM1159 29v-29h-930v1352h895v-29h-862v-618h692v-29h-692v-647h897z" />
<glyph unicode="&#xcb;" horiz-adv-x="1210" d="M485 1561q-22 0 -36.5 14.5t-14.5 36.5t14.5 36.5t36.5 14.5t37 -14.5t15 -36.5t-15 -36.5t-37 -14.5zM862 1561q-22 0 -36.5 14.5t-14.5 36.5t14.5 36.5t36.5 14.5t36.5 -14.5t14.5 -36.5t-14.5 -36.5t-36.5 -14.5zM1159 29v-29h-930v1352h895v-29h-862v-618h692v-29 h-692v-647h897z" />
<glyph unicode="&#xcc;" horiz-adv-x="491" d="M248 1522h-33l-139 303h43zM262 0h-33v1352h33v-1352z" />
<glyph unicode="&#xcd;" horiz-adv-x="491" d="M418 1825l-139 -303h-33l129 303h43zM262 0h-33v1352h33v-1352z" />
<glyph unicode="&#xce;" horiz-adv-x="491" d="M459 1552l-213 263l-213 -263h-41l237 291h33l238 -291h-41zM262 0h-33v1352h33v-1352z" />
<glyph unicode="&#xcf;" horiz-adv-x="491" d="M55 1663q22 0 36.5 -14.5t14.5 -36.5t-14.5 -36.5t-36.5 -14.5t-36.5 14.5t-14.5 36.5t14.5 36.5t36.5 14.5zM432 1663q22 0 36.5 -14.5t14.5 -36.5t-14.5 -36.5t-36.5 -14.5t-36.5 14.5t-14.5 36.5t14.5 36.5t36.5 14.5zM262 0h-33v1352h33v-1352z" />
<glyph unicode="&#xd0;" horiz-adv-x="1443" d="M229 1352h416q328 0 497 -166.5t169 -489.5q0 -343 -169 -519.5t-497 -176.5h-416v707h-209v28h209v617zM262 29h383q312 0 472.5 169t160.5 498q0 309 -160.5 468t-472.5 159h-383v-588h424v-28h-424v-678z" />
<glyph unicode="&#xd1;" horiz-adv-x="1478" d="M592 1739q-70 0 -102 -39t-48 -123h-28q18 99 59.5 147t120.5 48q39 0 72 -16.5t56.5 -40.5t46.5 -48t53.5 -40.5t66.5 -16.5q70 0 102.5 39t48.5 123h29q-18 -99 -59.5 -147t-120.5 -48q-40 0 -73 16.5t-56.5 40.5t-46.5 48t-53.5 40.5t-67.5 16.5zM1249 1352v-1352h-49 l-938 1317v-1317h-33v1352h50l938 -1317v1317h32z" />
<glyph unicode="&#xd2;" horiz-adv-x="1499" d="M750 1522h-33l-139 303h43zM750 1372q284 0 450 -187.5t166 -508.5t-166 -508.5t-450 -187.5t-450.5 187.5t-166.5 508.5t166.5 508.5t450.5 187.5zM750 1343q-269 0 -426.5 -180t-157.5 -487t157.5 -487.5t426.5 -180.5q268 0 425.5 180t157.5 488q0 307 -157 487 t-426 180z" />
<glyph unicode="&#xd3;" horiz-adv-x="1499" d="M920 1825l-140 -303h-32l129 303h43zM750 1372q284 0 450 -187.5t166 -508.5t-166 -508.5t-450 -187.5t-450.5 187.5t-166.5 508.5t166.5 508.5t450.5 187.5zM750 1343q-269 0 -426.5 -180t-157.5 -487t157.5 -487.5t426.5 -180.5q268 0 425.5 180t157.5 488 q0 307 -157 487t-426 180z" />
<glyph unicode="&#xd4;" horiz-adv-x="1499" d="M961 1552l-213 263l-213 -263h-41l237 291h33l237 -291h-40zM750 1372q284 0 450 -187.5t166 -508.5t-166 -508.5t-450 -187.5t-450.5 187.5t-166.5 508.5t166.5 508.5t450.5 187.5zM750 1343q-269 0 -426.5 -180t-157.5 -487t157.5 -487.5t426.5 -180.5q268 0 425.5 180 t157.5 488q0 307 -157 487t-426 180z" />
<glyph unicode="&#xd5;" horiz-adv-x="1499" d="M1049 1772h28q-18 -99 -59.5 -147t-120.5 -48q-40 0 -73 16.5t-56.5 40.5t-46.5 48t-53.5 40.5t-67.5 16.5q-70 0 -101 -39t-48 -123h-29q18 99 59.5 147t120.5 48q39 0 72 -16.5t56.5 -40.5t46.5 -48t53.5 -40.5t66.5 -16.5q71 0 103.5 39t48.5 123zM750 1372 q284 0 450 -187.5t166 -508.5t-166 -508.5t-450 -187.5t-450.5 187.5t-166.5 508.5t166.5 508.5t450.5 187.5zM750 1343q-269 0 -426.5 -180t-157.5 -487t157.5 -487.5t426.5 -180.5q268 0 425.5 180t157.5 488q0 307 -157 487t-426 180z" />
<glyph unicode="&#xd6;" horiz-adv-x="1499" d="M557 1663q22 0 36.5 -14.5t14.5 -36.5t-14.5 -36.5t-36.5 -14.5t-36.5 14.5t-14.5 36.5t14.5 36.5t36.5 14.5zM934 1663q22 0 36.5 -14.5t14.5 -36.5t-14.5 -36.5t-36.5 -14.5t-36.5 14.5t-14.5 36.5t14.5 36.5t36.5 14.5zM750 1372q284 0 450 -187.5t166 -508.5 t-166 -508.5t-450 -187.5t-450.5 187.5t-166.5 508.5t166.5 508.5t450.5 187.5zM750 1343q-269 0 -426.5 -180t-157.5 -487t157.5 -487.5t426.5 -180.5q268 0 425.5 180t157.5 488q0 307 -157 487t-426 180z" />
<glyph unicode="&#xd7;" d="M612 604l344 -350l-22 -21l-342 351l-342 -351l-23 21l342 350l-344 352l23 23l344 -352l342 350l22 -21z" />
<glyph unicode="&#xd8;" horiz-adv-x="1499" d="M1305 1413l-140 -192q201 -189 201 -545q0 -321 -166 -508.5t-450 -187.5q-236 0 -390 129l-124 -172h-41l141 194q-203 190 -203 545q0 321 166.5 508.5t450.5 187.5q234 0 391 -129l123 170h41zM166 676q0 -338 188 -520l768 1061q-148 126 -372 126 q-269 0 -426.5 -180t-157.5 -487zM750 8q268 0 425.5 180t157.5 488q0 166 -48 298.5t-138 219.5l-768 -1061q150 -125 371 -125z" />
<glyph unicode="&#xd9;" horiz-adv-x="1433" d="M780 1522h-32l-140 303h43zM1227 1352v-871q0 -240 -134.5 -370.5t-375.5 -130.5t-375.5 130.5t-134.5 370.5v871h33v-871q0 -225 126 -349t351 -124t351 124t126 349v871h33z" />
<glyph unicode="&#xda;" horiz-adv-x="1433" d="M889 1825l-139 -303h-33l129 303h43zM1227 1352v-871q0 -240 -134.5 -370.5t-375.5 -130.5t-375.5 130.5t-134.5 370.5v871h33v-871q0 -225 126 -349t351 -124t351 124t126 349v871h33z" />
<glyph unicode="&#xdb;" horiz-adv-x="1433" d="M930 1552l-213 263l-213 -263h-41l237 291h33l238 -291h-41zM1227 1352v-871q0 -240 -134.5 -370.5t-375.5 -130.5t-375.5 130.5t-134.5 370.5v871h33v-871q0 -225 126 -349t351 -124t351 124t126 349v871h33z" />
<glyph unicode="&#xdc;" horiz-adv-x="1433" d="M526 1663q22 0 37 -14.5t15 -36.5t-15 -36.5t-37 -14.5t-36.5 14.5t-14.5 36.5t14.5 36.5t36.5 14.5zM903 1663q22 0 36.5 -14.5t14.5 -36.5t-14.5 -36.5t-36.5 -14.5t-36.5 14.5t-14.5 36.5t14.5 36.5t36.5 14.5zM1227 1352v-871q0 -240 -134.5 -370.5t-375.5 -130.5 t-375.5 130.5t-134.5 370.5v871h33v-871q0 -225 126 -349t351 -124t351 124t126 349v871h33z" />
<glyph unicode="&#xdd;" horiz-adv-x="1097" d="M582 1522h-33l129 303h43zM1040 1352l-475 -828v-524h-33v524l-475 828h39l453 -793l452 793h39z" />
<glyph unicode="&#xde;" horiz-adv-x="1239" d="M262 1075h367q236 0 356.5 -95.5t120.5 -283.5t-120.5 -283.5t-356.5 -95.5h-367v-317h-33v1352h33v-277zM262 346h385q426 0 426 350q0 174 -107 262.5t-319 88.5h-385v-701z" />
<glyph unicode="&#xdf;" horiz-adv-x="1171" d="M700 774q169 -16 266 -117t97 -284q0 -179 -105 -286t-276 -107q-143 0 -215 90l18 20q73 -84 197 -84q157 0 252.5 100t95.5 267q0 190 -109.5 287.5t-295.5 97.5h-90v28h90q154 0 250 98t96 269q0 152 -92 238t-252 86q-194 0 -295 -112.5t-101 -330.5v-1034h-30v1057 q0 221 108 334.5t318 113.5q175 0 276 -93.5t101 -258.5q0 -161 -83.5 -261t-220.5 -118z" />
<glyph unicode="&#xe0;" horiz-adv-x="1105" d="M535 1194l-203 342h37l200 -342h-34zM1016 8q54 0 78 19l-2 -29q-27 -18 -74 -18q-27 0 -50 7.5t-47 26t-37.5 58t-13.5 96.5v29q-27 -72 -96 -122.5t-151.5 -72.5t-171.5 -22q-151 0 -235.5 63.5t-84.5 177.5q0 121 88.5 190.5t288.5 106.5l362 68v127q0 144 -84 223.5 t-241 79.5q-140 0 -230 -59t-137 -183l-26 21q47 127 143 188t250 61q174 0 266 -85t92 -246v-557q0 -73 30 -110.5t83 -37.5zM461 8q64 0 132 18t131.5 52t104.5 94.5t41 136.5v248l-340 -63q-196 -36 -281 -102t-85 -171q0 -100 79 -156.5t218 -56.5z" />
<glyph unicode="&#xe1;" horiz-adv-x="1105" d="M539 1194h-35l201 342h36zM1016 8q54 0 78 19l-2 -29q-27 -18 -74 -18q-27 0 -50 7.5t-47 26t-37.5 58t-13.5 96.5v29q-27 -72 -96 -122.5t-151.5 -72.5t-171.5 -22q-151 0 -235.5 63.5t-84.5 177.5q0 121 88.5 190.5t288.5 106.5l362 68v127q0 144 -84 223.5t-241 79.5 q-140 0 -230 -59t-137 -183l-26 21q47 127 143 188t250 61q174 0 266 -85t92 -246v-557q0 -73 30 -110.5t83 -37.5zM461 8q64 0 132 18t131.5 52t104.5 94.5t41 136.5v248l-340 -63q-196 -36 -281 -102t-85 -171q0 -100 79 -156.5t218 -56.5z" />
<glyph unicode="&#xe2;" horiz-adv-x="1105" d="M319 1225h-40l237 291h33l237 -291h-41l-213 262zM1016 8q54 0 78 19l-2 -29q-27 -18 -74 -18q-27 0 -50 7.5t-47 26t-37.5 58t-13.5 96.5v29q-27 -72 -96 -122.5t-151.5 -72.5t-171.5 -22q-151 0 -235.5 63.5t-84.5 177.5q0 121 88.5 190.5t288.5 106.5l362 68v127 q0 144 -84 223.5t-241 79.5q-140 0 -230 -59t-137 -183l-26 21q47 127 143 188t250 61q174 0 266 -85t92 -246v-557q0 -73 30 -110.5t83 -37.5zM461 8q64 0 132 18t131.5 52t104.5 94.5t41 136.5v248l-340 -63q-196 -36 -281 -102t-85 -171q0 -100 79 -156.5t218 -56.5z" />
<glyph unicode="&#xe3;" horiz-adv-x="1105" d="M385 1411q-70 0 -101 -39t-48 -123h-29q18 99 59.5 147t120.5 48q39 0 72 -16.5t56.5 -40.5t46.5 -48t53.5 -40.5t66.5 -16.5q71 0 103.5 39t48.5 123h28q-18 -99 -59.5 -147t-120.5 -48q-40 0 -73 16.5t-56.5 40.5t-46.5 48t-53.5 40.5t-67.5 16.5zM1016 8q54 0 78 19 l-2 -29q-27 -18 -74 -18q-27 0 -50 7.5t-47 26t-37.5 58t-13.5 96.5v29q-27 -72 -96 -122.5t-151.5 -72.5t-171.5 -22q-151 0 -235.5 63.5t-84.5 177.5q0 121 88.5 190.5t288.5 106.5l362 68v127q0 144 -84 223.5t-241 79.5q-140 0 -230 -59t-137 -183l-26 21 q47 127 143 188t250 61q174 0 266 -85t92 -246v-557q0 -73 30 -110.5t83 -37.5zM461 8q64 0 132 18t131.5 52t104.5 94.5t41 136.5v248l-340 -63q-196 -36 -281 -102t-85 -171q0 -100 79 -156.5t218 -56.5z" />
<glyph unicode="&#xe4;" horiz-adv-x="1105" d="M342 1233q-22 0 -36.5 14.5t-14.5 36.5t14.5 36.5t36.5 14.5t36.5 -14.5t14.5 -36.5t-14.5 -36.5t-36.5 -14.5zM719 1233q-22 0 -36.5 14.5t-14.5 36.5t14.5 36.5t36.5 14.5t36.5 -14.5t14.5 -36.5t-14.5 -36.5t-36.5 -14.5zM1016 8q54 0 78 19l-2 -29q-27 -18 -74 -18 q-27 0 -50 7.5t-47 26t-37.5 58t-13.5 96.5v29q-27 -72 -96 -122.5t-151.5 -72.5t-171.5 -22q-151 0 -235.5 63.5t-84.5 177.5q0 121 88.5 190.5t288.5 106.5l362 68v127q0 144 -84 223.5t-241 79.5q-140 0 -230 -59t-137 -183l-26 21q47 127 143 188t250 61q174 0 266 -85 t92 -246v-557q0 -73 30 -110.5t83 -37.5zM461 8q64 0 132 18t131.5 52t104.5 94.5t41 136.5v248l-340 -63q-196 -36 -281 -102t-85 -171q0 -100 79 -156.5t218 -56.5z" />
<glyph unicode="&#xe5;" horiz-adv-x="1105" d="M528 1192q-87 0 -141.5 53.5t-54.5 138.5t54.5 139t141.5 54t142 -54t55 -139t-54.5 -138.5t-142.5 -53.5zM528 1548q-72 0 -117.5 -46t-45.5 -118t45.5 -117.5t117.5 -45.5t118 45.5t46 117.5t-46 118t-118 46zM1016 8q54 0 78 19l-2 -29q-27 -18 -74 -18q-27 0 -50 7.5 t-47 26t-37.5 58t-13.5 96.5v29q-27 -72 -96 -122.5t-151.5 -72.5t-171.5 -22q-151 0 -235.5 63.5t-84.5 177.5q0 121 88.5 190.5t288.5 106.5l362 68v127q0 144 -84 223.5t-241 79.5q-140 0 -230 -59t-137 -183l-26 21q47 127 143 188t250 61q174 0 266 -85t92 -246v-557 q0 -73 30 -110.5t83 -37.5zM461 8q64 0 132 18t131.5 52t104.5 94.5t41 136.5v248l-340 -63q-196 -36 -281 -102t-85 -171q0 -100 79 -156.5t218 -56.5z" />
<glyph unicode="&#xe6;" horiz-adv-x="1814" d="M1296 1044q204 0 310 -126t106 -377v-15h-809v-75q13 -208 118.5 -325.5t276.5 -117.5q274 0 369 230l27 -15q-101 -243 -396 -243q-157 0 -263 90t-144 254q-9 -92 -52 -161.5t-107 -108t-134.5 -56.5t-146.5 -18q-146 0 -233 62t-87 179q0 259 377 297l362 37v152 q0 148 -83.5 228.5t-241.5 80.5q-140 0 -230 -59t-137 -183l-26 21q47 127 143 188t250 61q166 0 258.5 -77.5t99.5 -223.5q44 145 145.5 223t247.5 78zM903 557h780q-9 459 -387 459q-171 0 -275.5 -117t-117.5 -326v-16zM461 8q52 0 104.5 10.5t108.5 37.5t98.5 68 t70 108.5t27.5 152.5v139l-340 -30q-192 -18 -279 -90t-87 -183q0 -103 82.5 -158t214.5 -55z" />
<glyph unicode="&#xe7;" horiz-adv-x="1138" d="M1006 291l28 -10q-26 -136 -143.5 -218.5t-276.5 -82.5q92 -51 129 -103t37 -119q0 -77 -48.5 -123.5t-127.5 -46.5q-123 0 -196 84l16 25q74 -82 180 -82q66 0 106 38.5t40 102.5q0 62 -39.5 113t-145.5 113q-198 17 -305.5 156t-107.5 374q0 250 124.5 391t346.5 141 q154 0 260.5 -73t142.5 -207l-29 -14q-34 127 -131.5 196.5t-242.5 69.5q-206 0 -322.5 -134.5t-116.5 -369.5q0 -236 113 -370t319 -134q146 0 257.5 77.5t132.5 205.5z" />
<glyph unicode="&#xe8;" horiz-adv-x="1144" d="M604 1194l-203 342h37l201 -342h-35zM1042 489h-858q6 -227 120.5 -354t316.5 -127q129 0 232.5 61.5t154.5 168.5l26 -15q-54 -114 -163.5 -178.5t-249.5 -64.5q-221 0 -345 140.5t-124 391.5q0 250 121.5 391t336.5 141q203 0 317.5 -143.5t114.5 -396.5v-15zM610 1016 q-199 0 -311.5 -131.5t-114.5 -364.5h830q-5 234 -109.5 365t-294.5 131z" />
<glyph unicode="&#xe9;" horiz-adv-x="1144" d="M608 1194h-35l201 342h37zM1042 489h-858q6 -227 120.5 -354t316.5 -127q129 0 232.5 61.5t154.5 168.5l26 -15q-54 -114 -163.5 -178.5t-249.5 -64.5q-221 0 -345 140.5t-124 391.5q0 250 121.5 391t336.5 141q203 0 317.5 -143.5t114.5 -396.5v-15zM610 1016 q-199 0 -311.5 -131.5t-114.5 -364.5h830q-5 234 -109.5 365t-294.5 131z" />
<glyph unicode="&#xea;" horiz-adv-x="1144" d="M389 1225h-41l238 291h32l238 -291h-41l-213 262zM1042 489h-858q6 -227 120.5 -354t316.5 -127q129 0 232.5 61.5t154.5 168.5l26 -15q-54 -114 -163.5 -178.5t-249.5 -64.5q-221 0 -345 140.5t-124 391.5q0 250 121.5 391t336.5 141q203 0 317.5 -143.5t114.5 -396.5 v-15zM610 1016q-199 0 -311.5 -131.5t-114.5 -364.5h830q-5 234 -109.5 365t-294.5 131z" />
<glyph unicode="&#xeb;" horiz-adv-x="1144" d="M412 1233q-22 0 -37 14.5t-15 36.5t15 36.5t37 14.5t36.5 -14.5t14.5 -36.5t-14.5 -36.5t-36.5 -14.5zM788 1233q-22 0 -36.5 14.5t-14.5 36.5t14.5 36.5t36.5 14.5t37 -14.5t15 -36.5t-15 -36.5t-37 -14.5zM1042 489h-858q6 -227 120.5 -354t316.5 -127 q129 0 232.5 61.5t154.5 168.5l26 -15q-54 -114 -163.5 -178.5t-249.5 -64.5q-221 0 -345 140.5t-124 391.5q0 250 121.5 391t336.5 141q203 0 317.5 -143.5t114.5 -396.5v-15zM610 1016q-199 0 -311.5 -131.5t-114.5 -364.5h830q-5 234 -109.5 365t-294.5 131z" />
<glyph unicode="&#xec;" horiz-adv-x="434" d="M254 1194h-35l-203 342h37zM233 0h-32v1024h32v-1024z" />
<glyph unicode="&#xed;" horiz-adv-x="434" d="M426 1536l-203 -342h-35l201 342h37zM233 0h-32v1024h32v-1024z" />
<glyph unicode="&#xee;" horiz-adv-x="434" d="M430 1225l-213 262l-213 -262h-41l238 291h32l238 -291h-41zM233 0h-32v1024h32v-1024z" />
<glyph unicode="&#xef;" horiz-adv-x="434" d="M115 1335q22 0 36.5 -14.5t14.5 -36.5t-14.5 -36.5t-36.5 -14.5t-37 14.5t-15 36.5t15 36.5t37 14.5zM319 1335q22 0 37 -14.5t15 -36.5t-15 -36.5t-37 -14.5t-36.5 14.5t-14.5 36.5t14.5 36.5t36.5 14.5zM233 0h-32v1024h32v-1024z" />
<glyph unicode="&#xf0;" horiz-adv-x="1206" d="M944 1518l-207 -150q165 -120 253.5 -329t88.5 -480q0 -274 -125 -426.5t-340 -152.5q-223 0 -353 137.5t-130 367.5q0 231 128 369.5t339 138.5q175 0 300 -102.5t155 -290.5q-10 266 -96.5 457.5t-239.5 296.5l-281 -205l-18 25l272 196q-173 107 -401 107h-90l12 28 h74q242 0 428 -119l213 154zM614 8q198 0 319.5 143t121.5 375q-20 199 -137 319t-320 120q-197 0 -315.5 -131t-118.5 -349q0 -219 120 -348t330 -129z" />
<glyph unicode="&#xf1;" horiz-adv-x="1232" d="M479 1411q-70 0 -101 -39t-48 -123h-29q18 99 59.5 147t120.5 48q39 0 72 -16.5t56.5 -40.5t46.5 -48t53.5 -40.5t66.5 -16.5q71 0 103.5 39t48.5 123h28q-18 -99 -59.5 -147t-120.5 -48q-40 0 -73 16.5t-56.5 40.5t-46.5 48t-53.5 40.5t-67.5 16.5zM631 1044 q184 0 296.5 -99.5t112.5 -270.5v-674h-32v670q0 161 -105 253.5t-278 92.5q-107 0 -198 -55.5t-142.5 -147.5t-51.5 -197v-616h-32v1024h32v-270q36 128 144.5 209t253.5 81z" />
<glyph unicode="&#xf2;" horiz-adv-x="1259" d="M668 1194h-35l-203 342h37zM631 1044q223 0 350 -141.5t127 -390.5t-127 -390.5t-350 -141.5t-351 141.5t-128 390.5t128 390.5t351 141.5zM631 1016q-207 0 -327 -135t-120 -369t120 -369t327 -135t325.5 134.5t118.5 369.5t-118.5 369.5t-325.5 134.5z" />
<glyph unicode="&#xf3;" horiz-adv-x="1259" d="M840 1536l-203 -342h-35l201 342h37zM631 1044q223 0 350 -141.5t127 -390.5t-127 -390.5t-350 -141.5t-351 141.5t-128 390.5t128 390.5t351 141.5zM631 1016q-207 0 -327 -135t-120 -369t120 -369t327 -135t325.5 134.5t118.5 369.5t-118.5 369.5t-325.5 134.5z" />
<glyph unicode="&#xf4;" horiz-adv-x="1259" d="M844 1225l-213 262l-213 -262h-41l237 291h33l238 -291h-41zM631 1044q223 0 350 -141.5t127 -390.5t-127 -390.5t-350 -141.5t-351 141.5t-128 390.5t128 390.5t351 141.5zM631 1016q-207 0 -327 -135t-120 -369t120 -369t327 -135t325.5 134.5t118.5 369.5 t-118.5 369.5t-325.5 134.5z" />
<glyph unicode="&#xf5;" horiz-adv-x="1259" d="M932 1444h29q-18 -99 -60 -147t-121 -48q-40 0 -73 16.5t-56.5 40.5t-46.5 48t-53.5 40.5t-67.5 16.5q-70 0 -101 -39t-48 -123h-29q18 99 59.5 147t120.5 48q39 0 72 -16.5t56.5 -40.5t46.5 -48t53.5 -40.5t66.5 -16.5q71 0 103.5 39t48.5 123zM631 1044 q223 0 350 -141.5t127 -390.5t-127 -390.5t-350 -141.5t-351 141.5t-128 390.5t128 390.5t351 141.5zM631 1016q-207 0 -327 -135t-120 -369t120 -369t327 -135t325.5 134.5t118.5 369.5t-118.5 369.5t-325.5 134.5z" />
<glyph unicode="&#xf6;" horiz-adv-x="1259" d="M440 1335q22 0 37 -14.5t15 -36.5t-15 -36.5t-37 -14.5t-36.5 14.5t-14.5 36.5t14.5 36.5t36.5 14.5zM817 1335q22 0 36.5 -14.5t14.5 -36.5t-14.5 -36.5t-36.5 -14.5t-36.5 14.5t-14.5 36.5t14.5 36.5t36.5 14.5zM631 1044q223 0 350 -141.5t127 -390.5t-127 -390.5 t-350 -141.5t-351 141.5t-128 390.5t128 390.5t351 141.5zM631 1016q-207 0 -327 -135t-120 -369t120 -369t327 -135t325.5 134.5t118.5 369.5t-118.5 369.5t-325.5 134.5z" />
<glyph unicode="&#xf7;" horiz-adv-x="1140" d="M569 934q-22 0 -35.5 14.5t-13.5 36.5t13.5 36.5t35.5 14.5t38 -15t16 -36t-16 -36t-38 -15zM1044 586h-948v28h948v-28zM569 266q22 0 38 -15t16 -36t-16 -36t-38 -15t-35.5 14.5t-13.5 36.5t13.5 36.5t35.5 14.5z" />
<glyph unicode="&#xf8;" horiz-adv-x="1255" d="M1102 1106l-141 -184q145 -139 145 -410q0 -249 -127 -390.5t-350 -141.5q-195 0 -316 106l-116 -149h-43l135 174q-139 142 -139 401q0 249 128 390.5t351 141.5q187 0 305 -100l125 162h43zM182 512q0 -240 125 -377l608 785q-113 96 -286 96q-207 0 -327 -135 t-120 -369zM629 8q207 0 325.5 134.5t118.5 369.5q0 252 -133 385l-608 -784q117 -105 297 -105z" />
<glyph unicode="&#xf9;" horiz-adv-x="1212" d="M594 1194l-203 342h37l201 -342h-35zM1012 1024v-1024h-33v272q-36 -129 -152 -210.5t-276 -81.5t-259 96t-99 266v682h32v-678q0 -159 91 -248.5t241 -89.5q119 0 216.5 55.5t151.5 147t54 197.5v616h33z" />
<glyph unicode="&#xfa;" horiz-adv-x="1212" d="M598 1194h-35l201 342h37zM1012 1024v-1024h-33v272q-36 -129 -152 -210.5t-276 -81.5t-259 96t-99 266v682h32v-678q0 -159 91 -248.5t241 -89.5q119 0 216.5 55.5t151.5 147t54 197.5v616h33z" />
<glyph unicode="&#xfb;" horiz-adv-x="1212" d="M379 1225h-41l237 291h33l238 -291h-41l-213 262zM1012 1024v-1024h-33v272q-36 -129 -152 -210.5t-276 -81.5t-259 96t-99 266v682h32v-678q0 -159 91 -248.5t241 -89.5q119 0 216.5 55.5t151.5 147t54 197.5v616h33z" />
<glyph unicode="&#xfc;" horiz-adv-x="1212" d="M401 1233q-22 0 -36.5 14.5t-14.5 36.5t14.5 36.5t36.5 14.5t37 -14.5t15 -36.5t-15 -36.5t-37 -14.5zM778 1233q-22 0 -36.5 14.5t-14.5 36.5t14.5 36.5t36.5 14.5t36.5 -14.5t14.5 -36.5t-14.5 -36.5t-36.5 -14.5zM1012 1024v-1024h-33v272q-36 -129 -152 -210.5 t-276 -81.5t-259 96t-99 266v682h32v-678q0 -159 91 -248.5t241 -89.5q119 0 216.5 55.5t151.5 147t54 197.5v616h33z" />
<glyph unicode="&#xfd;" horiz-adv-x="985" d="M512 1194h-35l201 342h37zM946 1024l-510 -1231q-54 -131 -117 -182t-161 -51q-116 0 -160 65l18 27q42 -64 144 -64q83 0 140 46t106 165l81 199l-436 1026h37l416 -987l405 987h37z" />
<glyph unicode="&#xfe;" horiz-adv-x="1271" d="M651 1044q221 0 345 -140.5t124 -391.5t-124 -391.5t-345 -140.5q-161 0 -270.5 85t-147.5 242v-737h-32v1925h32v-774q40 155 149.5 239t268.5 84zM645 8q209 0 325.5 133t116.5 371t-116.5 371t-325.5 133q-189 0 -300.5 -133.5t-111.5 -364.5v-14q0 -230 112 -363 t300 -133z" />
<glyph unicode="&#xff;" horiz-adv-x="985" d="M315 1233q-22 0 -36.5 14.5t-14.5 36.5t14.5 36.5t36.5 14.5t37 -14.5t15 -36.5t-15 -36.5t-37 -14.5zM692 1233q-22 0 -36.5 14.5t-14.5 36.5t14.5 36.5t36.5 14.5t36.5 -14.5t14.5 -36.5t-14.5 -36.5t-36.5 -14.5zM946 1024l-510 -1231q-54 -131 -117 -182t-161 -51 q-116 0 -160 65l18 27q42 -64 144 -64q83 0 140 46t106 165l81 199l-436 1026h37l416 -987l405 987h37z" />
<glyph unicode="&#x100;" horiz-adv-x="1191" d="M936 1606h-672v28h672v-28zM940 479h-688l-197 -479h-35l553 1352h45l553 -1352h-34zM928 508l-332 809l-332 -809h664z" />
<glyph unicode="&#x101;" horiz-adv-x="1105" d="M872 1278h-671v29h671v-29zM1016 8q54 0 78 19l-2 -29q-27 -18 -74 -18q-27 0 -50 7.5t-47 26t-37.5 58t-13.5 96.5v29q-27 -72 -96 -122.5t-151.5 -72.5t-171.5 -22q-151 0 -235.5 63.5t-84.5 177.5q0 121 88.5 190.5t288.5 106.5l362 68v127q0 144 -84 223.5t-241 79.5 q-140 0 -230 -59t-137 -183l-26 21q47 127 143 188t250 61q174 0 266 -85t92 -246v-557q0 -73 30 -110.5t83 -37.5zM461 8q64 0 132 18t131.5 52t104.5 94.5t41 136.5v248l-340 -63q-196 -36 -281 -102t-85 -171q0 -100 79 -156.5t218 -56.5z" />
<glyph unicode="&#x102;" horiz-adv-x="1191" d="M596 1530q-116 0 -181 65.5t-65 182.5h31q0 -103 57 -161t158 -58t158 58t57 161h31q0 -117 -65 -182.5t-181 -65.5zM940 479h-688l-197 -479h-35l553 1352h45l553 -1352h-34zM928 508l-332 809l-332 -809h664z" />
<glyph unicode="&#x103;" horiz-adv-x="1105" d="M532 1202q-116 0 -180.5 65.5t-64.5 182.5h30q0 -103 57 -161t158 -58t158.5 58t57.5 161h30q0 -117 -65 -182.5t-181 -65.5zM1016 8q54 0 78 19l-2 -29q-27 -18 -74 -18q-27 0 -50 7.5t-47 26t-37.5 58t-13.5 96.5v29q-27 -72 -96 -122.5t-151.5 -72.5t-171.5 -22 q-151 0 -235.5 63.5t-84.5 177.5q0 121 88.5 190.5t288.5 106.5l362 68v127q0 144 -84 223.5t-241 79.5q-140 0 -230 -59t-137 -183l-26 21q47 127 143 188t250 61q174 0 266 -85t92 -246v-557q0 -73 30 -110.5t83 -37.5zM461 8q64 0 132 18t131.5 52t104.5 94.5t41 136.5 v248l-340 -63q-196 -36 -281 -102t-85 -171q0 -100 79 -156.5t218 -56.5z" />
<glyph unicode="&#x104;" horiz-adv-x="1191" d="M1186 -344l12 -27q-62 -43 -147 -43q-78 0 -129.5 42t-51.5 118q0 81 60 144t203 120l-193 469h-688l-197 -479h-35l553 1352h45l553 -1352q-148 -57 -209 -116.5t-61 -137.5q0 -63 42.5 -97t107.5 -34q83 0 135 41zM928 508l-332 809l-332 -809h664z" />
<glyph unicode="&#x105;" horiz-adv-x="1105" d="M1106 -346l12 -27q-62 -43 -147 -43q-77 0 -128.5 42t-51.5 118q0 72 45.5 129.5t152.5 108.5q-119 17 -119 186v29q-27 -72 -96 -122.5t-151.5 -72.5t-171.5 -22q-151 0 -235.5 63.5t-84.5 177.5q0 121 88.5 190.5t288.5 106.5l362 68v127q0 144 -84 223.5t-241 79.5 q-140 0 -230 -59t-137 -183l-26 21q47 127 143 188t250 61q174 0 266 -85t92 -246v-557q0 -73 30 -110.5t83 -37.5q54 0 78 19l-2 -29q-11 -9 -39 -16q-126 -53 -179 -109t-53 -129q0 -63 42.5 -97t107.5 -34q83 0 135 41zM461 8q64 0 132 18t131.5 52t104.5 94.5t41 136.5 v248l-340 -63q-196 -36 -281 -102t-85 -171q0 -100 79 -156.5t218 -56.5z" />
<glyph unicode="&#x106;" horiz-adv-x="1363" d="M885 1825l-140 -303h-32l129 303h43zM1237 350l31 -12q-51 -170 -191 -264t-344 -94q-270 0 -435 188.5t-165 507.5t164 507.5t436 188.5q422 0 524 -356l-30 -15q-102 342 -494 342q-257 0 -412 -180.5t-155 -486.5q0 -305 156 -486.5t411 -181.5q193 0 325 89.5 t179 252.5z" />
<glyph unicode="&#x107;" horiz-adv-x="1138" d="M831 1536l-202 -342h-35l201 342h36zM623 1044q154 0 260.5 -73t142.5 -207l-29 -14q-34 127 -131.5 196.5t-242.5 69.5q-206 0 -322.5 -134.5t-116.5 -369.5q0 -236 113 -370t319 -134q146 0 257.5 77.5t132.5 205.5l28 -10q-26 -136 -143 -218.5t-275 -82.5 q-221 0 -342.5 140.5t-121.5 391.5q0 250 124.5 391t346.5 141z" />
<glyph unicode="&#x10c;" horiz-adv-x="1363" d="M729 1542h-33l-237 291h41l213 -262l213 262h41zM1237 350l31 -12q-51 -170 -191 -264t-344 -94q-270 0 -435 188.5t-165 507.5t164 507.5t436 188.5q422 0 524 -356l-30 -15q-102 342 -494 342q-257 0 -412 -180.5t-155 -486.5q0 -305 156 -486.5t411 -181.5 q193 0 325 89.5t179 252.5z" />
<glyph unicode="&#x10d;" horiz-adv-x="1138" d="M639 1214h-33l-237 291h41l213 -262l213 262h41zM623 1044q154 0 260.5 -73t142.5 -207l-29 -14q-34 127 -131.5 196.5t-242.5 69.5q-206 0 -322.5 -134.5t-116.5 -369.5q0 -236 113 -370t319 -134q146 0 257.5 77.5t132.5 205.5l28 -10q-26 -136 -143 -218.5t-275 -82.5 q-221 0 -342.5 140.5t-121.5 391.5q0 250 124.5 391t346.5 141z" />
<glyph unicode="&#x10e;" horiz-adv-x="1443" d="M643 1542l-237 291h40l213 -262l213 262h41l-237 -291h-33zM229 1352h416q328 0 497 -166.5t169 -489.5q0 -343 -169 -519.5t-497 -176.5h-416v1352zM262 29h383q312 0 472.5 169t160.5 498q0 309 -160.5 468t-472.5 159h-383v-1294z" />
<glyph unicode="&#x10f;" horiz-adv-x="1402" d="M1038 1495h33v-1495h-33v307q-38 -157 -147 -242t-270 -85q-221 0 -345 140.5t-124 391.5t124 391.5t345 140.5q159 0 268 -84t149 -239v774zM1333 1495l-43 -403h-30l40 403h33zM627 8q187 0 299 133t112 363v14q0 231 -111.5 364.5t-299.5 133.5q-209 0 -326 -133 t-117 -371t117 -371t326 -133z" />
<glyph unicode="&#x110;" horiz-adv-x="1443" d="M229 1352h416q328 0 497 -166.5t169 -489.5q0 -343 -169 -519.5t-497 -176.5h-416v707h-209v28h209v617zM262 29h383q312 0 472.5 169t160.5 498q0 309 -160.5 468t-472.5 159h-383v-588h424v-28h-424v-678z" />
<glyph unicode="&#x111;" horiz-adv-x="1271" d="M1249 1217h-178v-1217h-33v307q-38 -157 -147 -242t-270 -85q-221 0 -345 140.5t-124 391.5t124 391.5t345 140.5q159 0 268 -84t149 -239v496h-393v24h393v254h33v-254h178v-24zM627 8q187 0 299 133t112 363v14q0 231 -111.5 364.5t-299.5 133.5q-209 0 -326 -133 t-117 -371t117 -371t326 -133z" />
<glyph unicode="&#x112;" horiz-adv-x="1210" d="M1016 1606h-672v28h672v-28zM1159 29v-29h-930v1352h895v-29h-862v-618h692v-29h-692v-647h897z" />
<glyph unicode="&#x113;" horiz-adv-x="1144" d="M942 1278h-672v29h672v-29zM1042 489h-858q6 -227 120.5 -354t316.5 -127q129 0 232.5 61.5t154.5 168.5l26 -15q-54 -114 -163.5 -178.5t-249.5 -64.5q-221 0 -345 140.5t-124 391.5q0 250 121.5 391t336.5 141q203 0 317.5 -143.5t114.5 -396.5v-15zM610 1016 q-199 0 -311.5 -131.5t-114.5 -364.5h830q-5 234 -109.5 365t-294.5 131z" />
<glyph unicode="&#x116;" horiz-adv-x="1210" d="M676 1561q-22 0 -36.5 14.5t-14.5 36.5t14.5 36.5t36.5 14.5t36.5 -14.5t14.5 -36.5t-14.5 -36.5t-36.5 -14.5zM1159 29v-29h-930v1352h895v-29h-862v-618h692v-29h-692v-647h897z" />
<glyph unicode="&#x117;" horiz-adv-x="1144" d="M602 1233q-22 0 -36.5 14.5t-14.5 36.5t14.5 36.5t36.5 14.5t36.5 -14.5t14.5 -36.5t-14.5 -36.5t-36.5 -14.5zM1042 489h-858q6 -227 120.5 -354t316.5 -127q129 0 232.5 61.5t154.5 168.5l26 -15q-54 -114 -163.5 -178.5t-249.5 -64.5q-221 0 -345 140.5t-124 391.5 q0 250 121.5 391t336.5 141q203 0 317.5 -143.5t114.5 -396.5v-15zM610 1016q-199 0 -311.5 -131.5t-114.5 -364.5h830q-5 234 -109.5 365t-294.5 131z" />
<glyph unicode="&#x118;" horiz-adv-x="1210" d="M1174 -344l12 -27q-62 -43 -148 -43q-77 0 -128.5 42t-51.5 118q0 78 55.5 138.5t190.5 115.5h-875v1352h895v-29h-862v-618h692v-29h-692v-647h897v-29q-148 -57 -209 -116.5t-61 -137.5q0 -63 42 -97t107 -34q84 0 136 41z" />
<glyph unicode="&#x119;" horiz-adv-x="1144" d="M1042 489h-858q6 -227 120.5 -354t316.5 -127q129 0 232.5 61.5t154.5 168.5l26 -15q-35 -75 -97 -130.5t-142 -84.5q-143 -69 -198.5 -129.5t-55.5 -132.5q0 -63 42 -97t107 -34q83 0 135 41l13 -27q-62 -43 -148 -43q-77 0 -128.5 42t-51.5 118q0 68 41.5 124.5 t144.5 115.5q-38 -6 -75 -6q-221 0 -345 140.5t-124 391.5q0 250 121.5 391t336.5 141q203 0 317.5 -143.5t114.5 -396.5v-15zM610 1016q-199 0 -311.5 -131.5t-114.5 -364.5h830q-5 234 -109.5 365t-294.5 131z" />
<glyph unicode="&#x11a;" horiz-adv-x="1210" d="M659 1542l-237 291h41l213 -262l213 262h41l-238 -291h-33zM1159 29v-29h-930v1352h895v-29h-862v-618h692v-29h-692v-647h897z" />
<glyph unicode="&#x11b;" horiz-adv-x="1144" d="M586 1214l-238 291h41l213 -262l213 262h41l-238 -291h-32zM1042 489h-858q6 -227 120.5 -354t316.5 -127q129 0 232.5 61.5t154.5 168.5l26 -15q-54 -114 -163.5 -178.5t-249.5 -64.5q-221 0 -345 140.5t-124 391.5q0 250 121.5 391t336.5 141q203 0 317.5 -143.5 t114.5 -396.5v-15zM610 1016q-199 0 -311.5 -131.5t-114.5 -364.5h830q-5 234 -109.5 365t-294.5 131z" />
<glyph unicode="&#x11e;" horiz-adv-x="1404" d="M721 1530q-116 0 -181 65.5t-65 182.5h31q0 -103 57 -161t158 -58t158 58t57 161h31q0 -117 -65 -182.5t-181 -65.5zM1268 637v-637h-33v360q-43 -183 -174.5 -281.5t-335.5 -98.5q-270 0 -431 188t-161 508q0 319 164 507.5t436 188.5q422 0 524 -356l-28 -15 q-102 342 -496 342q-257 0 -412 -180.5t-155 -486.5t152.5 -487t406.5 -181q243 0 376.5 145t133.5 408v47h-494v29h527z" />
<glyph unicode="&#x11f;" horiz-adv-x="1044" d="M549 1202q-116 0 -181 65.5t-65 182.5h31q0 -103 57 -161t158 -58t158 58t57 161h31q0 -117 -65 -182.5t-181 -65.5zM446 76h302q125 0 199.5 -64t74.5 -159q0 -127 -128 -210t-333 -83q-210 0 -328 76t-118 194q0 88 64.5 148.5t166.5 78.5q-76 20 -122 67.5t-46 106.5 q0 73 54.5 126.5t150.5 70.5q-104 37 -164.5 115t-60.5 180q0 140 110.5 230.5t280.5 90.5q136 0 235 -61q7 103 77.5 166t174.5 63l11 -26q-102 0 -168 -59.5t-70 -157.5q61 -43 95 -107.5t34 -138.5q0 -140 -110 -231t-279 -91q-56 0 -113 13q-105 -11 -165 -61.5 t-60 -112.5q0 -68 63.5 -116t171.5 -48zM190 723q0 -127 102 -210t257 -83t255.5 82.5t100.5 210.5t-100.5 210.5t-255.5 82.5t-257 -83t-102 -210zM565 -412q187 0 305.5 74.5t118.5 185.5q0 87 -66 143t-180 56h-309q-113 0 -200 -62t-87 -151q0 -109 108 -177.5 t310 -68.5z" />
<glyph unicode="&#x122;" horiz-adv-x="1404" d="M1268 637v-637h-33v360q-43 -183 -174.5 -281.5t-335.5 -98.5q-270 0 -431 188t-161 508q0 319 164 507.5t436 188.5q422 0 524 -356l-28 -15q-102 342 -496 342q-257 0 -412 -180.5t-155 -486.5t152.5 -487t406.5 -181q243 0 376.5 145t133.5 408v47h-494v29h527z M788 -156h37l-112 -329h-27z" />
<glyph unicode="&#x123;" horiz-adv-x="1044" d="M565 1202h-37l123 391h27zM446 76h302q125 0 199.5 -64t74.5 -159q0 -127 -128 -210t-333 -83q-210 0 -328 76t-118 194q0 88 64.5 148.5t166.5 78.5q-76 20 -122 67.5t-46 106.5q0 73 54.5 126.5t150.5 70.5q-104 37 -164.5 115t-60.5 180q0 140 110.5 230.5t280.5 90.5 q136 0 235 -61q7 103 77.5 166t174.5 63l11 -26q-102 0 -168 -59.5t-70 -157.5q61 -43 95 -107.5t34 -138.5q0 -140 -110 -231t-279 -91q-56 0 -113 13q-105 -11 -165 -61.5t-60 -112.5q0 -68 63.5 -116t171.5 -48zM190 723q0 -127 102 -210t257 -83t255.5 82.5t100.5 210.5 t-100.5 210.5t-255.5 82.5t-257 -83t-102 -210zM565 -412q187 0 305.5 74.5t118.5 185.5q0 87 -66 143t-180 56h-309q-113 0 -200 -62t-87 -151q0 -109 108 -177.5t310 -68.5z" />
<glyph unicode="&#x12a;" horiz-adv-x="614" d="M520 1606h-416v28h416v-28zM262 0h-33v1352h33v-1352z" />
<glyph unicode="&#x12b;" horiz-adv-x="434" d="M393 1278h-344v29h344v-29zM233 0h-32v1024h32v-1024z" />
<glyph unicode="&#x12e;" horiz-adv-x="491" d="M324 -342l12 -27q-62 -45 -131 -45q-71 0 -122.5 46t-51.5 122q0 68 43.5 121.5t154.5 128.5v1348h33v-1352q-114 -79 -157.5 -130.5t-43.5 -115.5q0 -63 42.5 -101t101.5 -38q39 0 65 9.5t54 33.5z" />
<glyph unicode="&#x12f;" horiz-adv-x="434" d="M217 1233q-22 0 -36.5 14.5t-14.5 36.5t14.5 36.5t36.5 14.5t36.5 -14.5t14.5 -36.5t-14.5 -36.5t-36.5 -14.5zM324 -342l12 -27q-62 -45 -131 -45q-71 0 -122.5 46t-51.5 122q0 66 38 118.5t132 131.5v1020h32v-1024q-97 -83 -134.5 -133.5t-37.5 -112.5 q0 -63 42.5 -101t101.5 -38q39 0 65 9.5t54 33.5z" />
<glyph unicode="&#x130;" horiz-adv-x="491" d="M246 1663q22 0 36.5 -14.5t14.5 -36.5t-14.5 -36.5t-36.5 -14.5t-36.5 14.5t-14.5 36.5t14.5 36.5t36.5 14.5zM262 0h-33v1352h33v-1352z" />
<glyph unicode="&#x131;" horiz-adv-x="434" d="M233 0h-32v1024h32v-1024z" />
<glyph unicode="&#x136;" horiz-adv-x="1234" d="M1141 0h-43l-533 786l-303 -307v-479h-33v1352h33v-826l811 826h47l-530 -539zM649 -156h37l-113 -329h-26z" />
<glyph unicode="&#x137;" horiz-adv-x="1013" d="M995 0h-43l-409 621l-310 -318v-303h-32v1495h32v-1145l654 674h47l-369 -379zM582 -156h36l-112 -329h-27z" />
<glyph unicode="&#x139;" horiz-adv-x="1140" d="M279 1522h-33l129 303h43zM1114 29v-29h-885v1352h33v-1323h852z" />
<glyph unicode="&#x13a;" horiz-adv-x="561" d="M324 1905l-93 -281h-28l84 281h37zM233 1495v-1276q0 -110 41.5 -160.5t124.5 -50.5q43 0 68.5 7.5t56.5 25.5l-2 -33q-51 -28 -123 -28q-100 0 -149 57.5t-49 181.5v1276h32z" />
<glyph unicode="&#x13b;" horiz-adv-x="1140" d="M1114 29v-29h-885v1352h33v-1323h852zM674 -156h37l-113 -329h-27z" />
<glyph unicode="&#x13c;" horiz-adv-x="561" d="M233 1495v-1276q0 -110 41.5 -160.5t124.5 -50.5q43 0 68.5 7.5t56.5 25.5l-2 -33q-51 -28 -123 -28q-100 0 -149 57.5t-49 181.5v1276h32zM326 -485h-27l102 329h37z" />
<glyph unicode="&#x13d;" horiz-adv-x="1140" d="M512 1030h-31l41 404h33zM1114 29v-29h-885v1352h33v-1323h852z" />
<glyph unicode="&#x13e;" horiz-adv-x="561" d="M233 1495v-1276q0 -110 41.5 -160.5t124.5 -50.5q43 0 68.5 7.5t56.5 25.5l-2 -33q-51 -28 -123 -28q-100 0 -149 57.5t-49 181.5v1276h32zM479 1092h-30l40 403h33z" />
<glyph unicode="&#x141;" horiz-adv-x="1140" d="M1114 29v-29h-885v608l-206 -151v41l206 151v703h33v-680l426 311v-41l-426 -311v-602h852z" />
<glyph unicode="&#x142;" horiz-adv-x="602" d="M440 8q43 0 68.5 7.5t56.5 25.5l-2 -33q-51 -28 -123 -28q-100 0 -149 57.5t-49 181.5v494l-199 -152v41l199 152v741h32v-717l256 195v-41l-256 -195v-518q0 -110 41.5 -160.5t124.5 -50.5z" />
<glyph unicode="&#x143;" horiz-adv-x="1478" d="M772 1522h-33l129 303h43zM1249 1352v-1352h-49l-938 1317v-1317h-33v1352h50l938 -1317v1317h32z" />
<glyph unicode="&#x144;" horiz-adv-x="1232" d="M633 1194h-35l201 342h37zM631 1044q184 0 296.5 -99.5t112.5 -270.5v-674h-32v670q0 161 -105 253.5t-278 92.5q-107 0 -198 -55.5t-142.5 -147.5t-51.5 -197v-616h-32v1024h32v-270q36 128 144.5 209t253.5 81z" />
<glyph unicode="&#x145;" horiz-adv-x="1478" d="M1249 1352v-1352h-49l-938 1317v-1317h-33v1352h50l938 -1317v1317h32zM770 -156h37l-113 -329h-26z" />
<glyph unicode="&#x146;" horiz-adv-x="1232" d="M631 1044q184 0 296.5 -99.5t112.5 -270.5v-674h-32v670q0 161 -105 253.5t-278 92.5q-107 0 -198 -55.5t-142.5 -147.5t-51.5 -197v-616h-32v1024h32v-270q36 128 144.5 209t253.5 81zM657 -156h37l-112 -329h-27z" />
<glyph unicode="&#x147;" horiz-adv-x="1478" d="M723 1542l-238 291h41l213 -262l213 262h41l-237 -291h-33zM1249 1352v-1352h-49l-938 1317v-1317h-33v1352h50l938 -1317v1317h32z" />
<glyph unicode="&#x148;" horiz-adv-x="1232" d="M610 1214l-237 291h41l213 -262l213 262h41l-238 -291h-33zM631 1044q184 0 296.5 -99.5t112.5 -270.5v-674h-32v670q0 161 -105 253.5t-278 92.5q-107 0 -198 -55.5t-142.5 -147.5t-51.5 -197v-616h-32v1024h32v-270q36 128 144.5 209t253.5 81z" />
<glyph unicode="&#x14c;" horiz-adv-x="1499" d="M1087 1606h-671v28h671v-28zM750 1372q284 0 450 -187.5t166 -508.5t-166 -508.5t-450 -187.5t-450.5 187.5t-166.5 508.5t166.5 508.5t450.5 187.5zM750 1343q-269 0 -426.5 -180t-157.5 -487t157.5 -487.5t426.5 -180.5q268 0 425.5 180t157.5 488q0 307 -157 487 t-426 180z" />
<glyph unicode="&#x14d;" horiz-adv-x="1259" d="M971 1278h-672v29h672v-29zM631 1044q223 0 350 -141.5t127 -390.5t-127 -390.5t-350 -141.5t-351 141.5t-128 390.5t128 390.5t351 141.5zM631 1016q-207 0 -327 -135t-120 -369t120 -369t327 -135t325.5 134.5t118.5 369.5t-118.5 369.5t-325.5 134.5z" />
<glyph unicode="&#x150;" horiz-adv-x="1581" d="M764 1825l-139 -303h-33l129 303h43zM1044 1825l-139 -303h-33l129 303h43zM750 1372q284 0 450 -187.5t166 -508.5t-166 -508.5t-450 -187.5t-450.5 187.5t-166.5 508.5t166.5 508.5t450.5 187.5zM750 1343q-269 0 -426.5 -180t-157.5 -487t157.5 -487.5t426.5 -180.5 q268 0 425.5 180t157.5 488q0 307 -157 487t-426 180z" />
<glyph unicode="&#x151;" horiz-adv-x="1259" d="M682 1536l-203 -342h-35l201 342h37zM950 1536l-202 -342h-35l200 342h37zM631 1044q223 0 350 -141.5t127 -390.5t-127 -390.5t-350 -141.5t-351 141.5t-128 390.5t128 390.5t351 141.5zM631 1016q-207 0 -327 -135t-120 -369t120 -369t327 -135t325.5 134.5 t118.5 369.5t-118.5 369.5t-325.5 134.5z" />
<glyph unicode="&#x152;" horiz-adv-x="2095" d="M2044 29v-29h-877v152q-149 -172 -434 -172q-270 0 -435 188.5t-165 507.5t164 507.5t436 188.5q296 0 434 -172v152h842v-29h-809v-618h662v-29h-662v-647h844zM733 8q143 0 254.5 51t179.5 146v934q-128 204 -434 204q-257 0 -412 -180.5t-155 -486.5 q0 -305 156 -486.5t411 -181.5z" />
<glyph unicode="&#x153;" horiz-adv-x="2070" d="M1968 489h-860q6 -227 121 -354t317 -127q129 0 232.5 61.5t154.5 168.5l27 -15q-54 -114 -164 -178.5t-250 -64.5q-182 0 -299.5 97t-154.5 275q-37 -177 -157 -274.5t-304 -97.5q-223 0 -351 141.5t-128 390.5t128 390.5t351 141.5q184 0 304 -97.5t157 -274.5 q37 178 151.5 275t292.5 97q203 0 317.5 -143.5t114.5 -396.5v-15zM631 8q207 0 325.5 134.5t118.5 369.5t-118.5 369.5t-325.5 134.5t-327 -135t-120 -369t120 -369t327 -135zM1536 1016q-200 0 -313.5 -131.5t-114.5 -364.5h831q-5 234 -109 365t-294 131z" />
<glyph unicode="&#x154;" horiz-adv-x="1392" d="M659 1522h-32l129 303h43zM1169 0l-409 616l-41 -2h-457v-614h-33v1352h490q198 0 313 -99t115 -270q0 -153 -92 -249t-256 -116l407 -618h-37zM262 643h457q186 0 290.5 90t104.5 250t-104.5 250t-290.5 90h-457v-680z" />
<glyph unicode="&#x155;" horiz-adv-x="727" d="M432 1194h-35l201 342h37zM569 1044q97 0 146 -49l-19 -24q-45 45 -131 45q-100 0 -177.5 -61t-116 -155.5t-38.5 -203.5v-596h-32v1024h32v-276q32 130 121.5 213t214.5 83z" />
<glyph unicode="&#x156;" horiz-adv-x="1392" d="M1169 0l-409 616l-41 -2h-457v-614h-33v1352h490q198 0 313 -99t115 -270q0 -153 -92 -249t-256 -116l407 -618h-37zM262 643h457q186 0 290.5 90t104.5 250t-104.5 250t-290.5 90h-457v-680zM705 -156h36l-112 -329h-27z" />
<glyph unicode="&#x157;" horiz-adv-x="727" d="M569 1044q97 0 146 -49l-19 -24q-45 45 -131 45q-100 0 -177.5 -61t-116 -155.5t-38.5 -203.5v-596h-32v1024h32v-276q32 130 121.5 213t214.5 83zM203 -156h37l-113 -329h-27z" />
<glyph unicode="&#x158;" horiz-adv-x="1392" d="M610 1542l-237 291h41l213 -262l213 262h41l-238 -291h-33zM1169 0l-409 616l-41 -2h-457v-614h-33v1352h490q198 0 313 -99t115 -270q0 -153 -92 -249t-256 -116l407 -618h-37zM262 643h457q186 0 290.5 90t104.5 250t-104.5 250t-290.5 90h-457v-680z" />
<glyph unicode="&#x159;" horiz-adv-x="727" d="M410 1214l-238 291h41l213 -262l213 262h41l-238 -291h-32zM569 1044q97 0 146 -49l-19 -24q-45 45 -131 45q-100 0 -177.5 -61t-116 -155.5t-38.5 -203.5v-596h-32v1024h32v-276q32 130 121.5 213t214.5 83z" />
<glyph unicode="&#x15a;" horiz-adv-x="1429" d="M881 1825l-140 -303h-32l129 303h43zM719 1372q402 0 493 -313l-26 -21q-80 305 -467 305q-202 0 -325.5 -95.5t-123.5 -239.5q0 -76 33 -132t88.5 -88.5t128 -54.5t152 -37.5t159.5 -31t152.5 -39.5t128 -59.5t88.5 -95.5t33 -142q0 -155 -132.5 -251.5t-352.5 -96.5 q-210 0 -354.5 94t-186.5 266l31 16q36 -166 173.5 -257t336.5 -91q127 0 228 36.5t162.5 110t61.5 173.5q0 75 -33 130t-88.5 87t-127.5 54.5t-152 38l-160 31t-152 40.5t-127.5 60.5t-88.5 96t-33 142.5q0 151 131 257.5t350 106.5z" />
<glyph unicode="&#x15b;" horiz-adv-x="976" d="M696 1536l-202 -342h-35l200 342h37zM498 1044q325 0 381 -256l-29 -16q-51 244 -352 244q-150 0 -248 -69.5t-98 -172.5q0 -75 40.5 -125.5t105 -74.5t142 -40.5t155.5 -33t142.5 -41.5t105 -76.5t40.5 -128.5q0 -127 -106 -200.5t-288 -73.5q-164 0 -275 63.5 t-140 183.5l30 15q26 -114 130 -174t262 -60q163 0 258.5 66.5t95.5 179.5q0 70 -40.5 116t-105 69t-142.5 38.5t-155.5 32.5t-142 43.5t-105 80t-40.5 132.5q0 119 107.5 198.5t271.5 79.5z" />
<glyph unicode="&#x15e;" horiz-adv-x="1429" d="M1233 328q0 -155 -132 -251.5t-351 -96.5q92 -51 128.5 -102.5t36.5 -119.5q0 -77 -48.5 -123.5t-127.5 -46.5q-123 0 -196 84l16 25q74 -82 180 -82q66 0 106 38.5t40 102.5q0 62 -39.5 113t-145.5 113q-192 9 -323 102t-170 256l31 16q36 -166 173.5 -257t336.5 -91 q127 0 228 36.5t162.5 110t61.5 173.5q0 75 -33 130t-88.5 87t-127.5 54.5t-152 38l-160 31t-152 40.5t-127.5 60.5t-88.5 96t-33 142.5q0 151 131 257.5t350 106.5q402 0 493 -313l-26 -21q-80 305 -467 305q-202 0 -325.5 -95.5t-123.5 -239.5q0 -76 33 -132t88.5 -88.5 t128 -54.5t152 -37.5t159.5 -31t152.5 -39.5t128 -59.5t88.5 -95.5t33 -142z" />
<glyph unicode="&#x15f;" horiz-adv-x="976" d="M883 254q0 -123 -99.5 -196t-271.5 -78q92 -51 129 -103t37 -119q0 -77 -48.5 -123.5t-127.5 -46.5q-124 0 -197 84l17 25q74 -82 180 -82q66 0 105.5 38.5t39.5 102.5q0 62 -39 113t-143 111q-155 5 -259.5 68t-131.5 179l30 15q26 -114 130 -174t262 -60 q163 0 258.5 66.5t95.5 179.5q0 70 -40.5 116t-105 69t-142.5 38.5t-155.5 32.5t-142 43.5t-105 80t-40.5 132.5q0 119 107.5 198.5t271.5 79.5q325 0 381 -256l-29 -16q-51 244 -352 244q-150 0 -248 -69.5t-98 -172.5q0 -75 40.5 -125.5t105 -74.5t142 -40.5t155.5 -33 t142.5 -41.5t105 -76.5t40.5 -128.5z" />
<glyph unicode="&#x160;" horiz-adv-x="1429" d="M725 1542h-33l-237 291h41l213 -262l213 262h41zM719 1372q402 0 493 -313l-26 -21q-80 305 -467 305q-202 0 -325.5 -95.5t-123.5 -239.5q0 -76 33 -132t88.5 -88.5t128 -54.5t152 -37.5t159.5 -31t152.5 -39.5t128 -59.5t88.5 -95.5t33 -142q0 -155 -132.5 -251.5 t-352.5 -96.5q-210 0 -354.5 94t-186.5 266l31 16q36 -166 173.5 -257t336.5 -91q127 0 228 36.5t162.5 110t61.5 173.5q0 75 -33 130t-88.5 87t-127.5 54.5t-152 38l-160 31t-152 40.5t-127.5 60.5t-88.5 96t-33 142.5q0 151 131 257.5t350 106.5z" />
<glyph unicode="&#x161;" horiz-adv-x="976" d="M504 1214h-33l-238 291h41l213 -262l213 262h41zM498 1044q325 0 381 -256l-29 -16q-51 244 -352 244q-150 0 -248 -69.5t-98 -172.5q0 -75 40.5 -125.5t105 -74.5t142 -40.5t155.5 -33t142.5 -41.5t105 -76.5t40.5 -128.5q0 -127 -106 -200.5t-288 -73.5 q-164 0 -275 63.5t-140 183.5l30 15q26 -114 130 -174t262 -60q163 0 258.5 66.5t95.5 179.5q0 70 -40.5 116t-105 69t-142.5 38.5t-155.5 32.5t-142 43.5t-105 80t-40.5 132.5q0 119 107.5 198.5t271.5 79.5z" />
<glyph unicode="&#x162;" horiz-adv-x="1148" d="M592 1323v-1319q89 -54 129.5 -110.5t40.5 -133.5q0 -78 -49.5 -125t-132.5 -47q-67 0 -107.5 22.5t-75.5 67.5l15 23q36 -44 72.5 -65t95.5 -21q69 0 110 39.5t41 105.5q0 73 -40.5 128t-131.5 112v1323h-520v29h1071v-29h-518z" />
<glyph unicode="&#x163;" horiz-adv-x="784" d="M692 84l17 -27q-32 -34 -85 -55.5t-112 -21.5q-31 0 -45 2q90 -54 128 -106.5t38 -117.5q0 -77 -48.5 -123.5t-127.5 -46.5q-124 0 -197 84l16 25q74 -82 181 -82q66 0 105.5 38.5t39.5 102.5t-41.5 118t-154.5 124q-138 52 -138 260l-2 737h-205v29h205v266l33 10v-276 h395v-29h-395v-737q0 -250 213 -250q110 0 180 76z" />
<glyph unicode="&#x164;" horiz-adv-x="1148" d="M559 1542l-237 291h40l213 -262l213 262h41l-237 -291h-33zM1110 1323h-518v-1323h-33v1323h-520v29h1071v-29z" />
<glyph unicode="&#x165;" horiz-adv-x="784" d="M535 1167h-31l41 404h33zM692 84l17 -27q-32 -34 -85 -55.5t-112 -21.5q-244 0 -244 278l-2 737h-205v29h205v266l33 10v-276h395v-29h-395v-737q0 -250 213 -250q110 0 180 76z" />
<glyph unicode="&#x16a;" horiz-adv-x="1433" d="M1057 1606h-672v28h672v-28zM1227 1352v-871q0 -240 -134.5 -370.5t-375.5 -130.5t-375.5 130.5t-134.5 370.5v871h33v-871q0 -225 126 -349t351 -124t351 124t126 349v871h33z" />
<glyph unicode="&#x16b;" horiz-adv-x="1212" d="M932 1278h-672v29h672v-29zM1012 1024v-1024h-33v272q-36 -129 -152 -210.5t-276 -81.5t-259 96t-99 266v682h32v-678q0 -159 91 -248.5t241 -89.5q119 0 216.5 55.5t151.5 147t54 197.5v616h33z" />
<glyph unicode="&#x16e;" horiz-adv-x="1433" d="M717 1708q87 0 141.5 -53.5t54.5 -138.5t-54.5 -139t-141.5 -54t-142 54t-55 139t54.5 138.5t142.5 53.5zM717 1679q-72 0 -118 -45.5t-46 -117.5t46 -118t118 -46t118 46t46 118t-46 117.5t-118 45.5zM1227 1352v-871q0 -240 -134.5 -370.5t-375.5 -130.5t-375.5 130.5 t-134.5 370.5v871h33v-871q0 -225 126 -349t351 -124t351 124t126 349v871h33z" />
<glyph unicode="&#x16f;" horiz-adv-x="1212" d="M588 1192q-88 0 -142.5 53.5t-54.5 138.5t55 139t142 54t141.5 -54t54.5 -139t-54.5 -138.5t-141.5 -53.5zM588 1548q-72 0 -118 -46t-46 -118t46 -117.5t118 -45.5t118 45.5t46 117.5t-46 118t-118 46zM1012 1024v-1024h-33v272q-36 -129 -152 -210.5t-276 -81.5 t-259 96t-99 266v682h32v-678q0 -159 91 -248.5t241 -89.5q119 0 216.5 55.5t151.5 147t54 197.5v616h33z" />
<glyph unicode="&#x170;" horiz-adv-x="1433" d="M713 1825l-140 -303h-32l129 303h43zM999 1825l-139 -303h-33l129 303h43zM1227 1352v-871q0 -240 -134.5 -370.5t-375.5 -130.5t-375.5 130.5t-134.5 370.5v871h33v-871q0 -225 126 -349t351 -124t351 124t126 349v871h33z" />
<glyph unicode="&#x171;" horiz-adv-x="1212" d="M440 1194h-34l200 342h37zM709 1194h-35l200 342h37zM1012 1024v-1024h-33v272q-36 -129 -152 -210.5t-276 -81.5t-259 96t-99 266v682h32v-678q0 -159 91 -248.5t241 -89.5q119 0 216.5 55.5t151.5 147t54 197.5v616h33z" />
<glyph unicode="&#x172;" horiz-adv-x="1433" d="M1227 1352v-871q0 -185 -81 -306t-231 -167q-149 -65 -208.5 -126t-59.5 -136q0 -63 42.5 -97t107.5 -34q93 0 145 41l12 -27q-62 -43 -157 -43q-78 0 -129.5 42t-51.5 118q0 70 44 126.5t149 113.5q-43 -6 -92 -6q-241 0 -375.5 130.5t-134.5 370.5v871h33v-871 q0 -225 126 -349t351 -124t351 124t126 349v871h33z" />
<glyph unicode="&#x173;" horiz-adv-x="1212" d="M1044 -344l17 -21q-60 -49 -150 -49q-79 0 -129.5 43.5t-50.5 120.5q0 87 53.5 140.5t194.5 123.5v258q-36 -129 -152 -210.5t-276 -81.5t-259 96t-99 266v682h32v-678q0 -159 91 -248.5t241 -89.5q119 0 216.5 55.5t151.5 147t54 197.5v616h33v-1024 q-144 -69 -197 -118.5t-53 -131.5q0 -64 41 -99.5t108 -35.5q89 0 133 41z" />
<glyph unicode="&#x178;" horiz-adv-x="1097" d="M358 1561q-22 0 -36.5 14.5t-14.5 36.5t14.5 36.5t36.5 14.5t37 -14.5t15 -36.5t-15 -36.5t-37 -14.5zM735 1561q-22 0 -36.5 14.5t-14.5 36.5t14.5 36.5t36.5 14.5t36.5 -14.5t14.5 -36.5t-14.5 -36.5t-36.5 -14.5zM1040 1352l-475 -828v-524h-33v524l-475 828h39 l453 -793l452 793h39z" />
<glyph unicode="&#x179;" d="M639 1522h-33l129 303h43zM1120 29v-29h-1022v29l955 1294h-932v29h971v-29l-951 -1294h979z" />
<glyph unicode="&#x17a;" horiz-adv-x="991" d="M500 1194h-35l201 342h36zM934 29v-29h-858v29l801 966h-797v29h835v-29l-798 -966h817z" />
<glyph unicode="&#x17b;" d="M606 1561q-22 0 -36.5 14.5t-14.5 36.5t14.5 36.5t36.5 14.5t36.5 -14.5t14.5 -36.5t-14.5 -36.5t-36.5 -14.5zM1120 29v-29h-1022v29l955 1294h-932v29h971v-29l-951 -1294h979z" />
<glyph unicode="&#x17c;" horiz-adv-x="991" d="M494 1233q-22 0 -37 14.5t-15 36.5t15 36.5t37 14.5t36.5 -14.5t14.5 -36.5t-14.5 -36.5t-36.5 -14.5zM934 29v-29h-858v29l801 966h-797v29h835v-29l-798 -966h817z" />
<glyph unicode="&#x17d;" d="M590 1542l-238 291h41l213 -262l213 262h41l-237 -291h-33zM1120 29v-29h-1022v29l955 1294h-932v29h971v-29l-951 -1294h979z" />
<glyph unicode="&#x17e;" horiz-adv-x="991" d="M477 1214l-237 291h41l213 -262l213 262h41l-238 -291h-33zM934 29v-29h-858v29l801 966h-797v29h835v-29l-798 -966h817z" />
<glyph unicode="&#x192;" horiz-adv-x="983" d="M831 1477q-103 0 -163 -63.5t-82 -196.5l-31 -193h356v-29h-360l-150 -966q-47 -291 -272 -291q-70 0 -129 35l12 22q43 -28 117 -28q197 0 238 262l149 966h-313v29h319l29 190q23 149 88 220t176 71q69 0 127 -26l-4 -29q-56 27 -107 27z" />
<glyph unicode="&#x218;" horiz-adv-x="1429" d="M719 1372q402 0 493 -313l-26 -21q-80 305 -467 305q-202 0 -325.5 -95.5t-123.5 -239.5q0 -76 33 -132t88.5 -88.5t128 -54.5t152 -37.5t159.5 -31t152.5 -39.5t128 -59.5t88.5 -95.5t33 -142q0 -155 -132.5 -251.5t-352.5 -96.5q-210 0 -354.5 94t-186.5 266l31 16 q36 -166 173.5 -257t336.5 -91q127 0 228 36.5t162.5 110t61.5 173.5q0 75 -33 130t-88.5 87t-127.5 54.5t-152 38l-160 31t-152 40.5t-127.5 60.5t-88.5 96t-33 142.5q0 151 131 257.5t350 106.5zM645 -485h-27l103 329h37z" />
<glyph unicode="&#x219;" horiz-adv-x="976" d="M498 1044q325 0 381 -256l-29 -16q-51 244 -352 244q-150 0 -248 -69.5t-98 -172.5q0 -75 40.5 -125.5t105 -74.5t142 -40.5t155.5 -33t142.5 -41.5t105 -76.5t40.5 -128.5q0 -127 -106 -200.5t-288 -73.5q-164 0 -275 63.5t-140 183.5l30 15q26 -114 130 -174t262 -60 q163 0 258.5 66.5t95.5 179.5q0 70 -40.5 116t-105 69t-142.5 38.5t-155.5 32.5t-142 43.5t-105 80t-40.5 132.5q0 119 107.5 198.5t271.5 79.5zM408 -485h-27l102 329h37z" />
<glyph unicode="&#x21a;" horiz-adv-x="1148" d="M1110 1323h-518v-1323h-33v1323h-520v29h1071v-29zM553 -156h37l-113 -329h-26z" />
<glyph unicode="&#x21b;" horiz-adv-x="866" d="M692 84l17 -27q-32 -34 -85 -55.5t-112 -21.5q-244 0 -244 278l-2 737h-205v29h205v266l33 10v-276h395v-29h-395v-737q0 -250 213 -250q110 0 180 76zM459 -156h37l-113 -329h-27z" />
<glyph unicode="&#x2c6;" horiz-adv-x="1024" d="M725 1225l-213 262l-213 -262h-41l238 291h32l238 -291h-41z" />
<glyph unicode="&#x2c7;" horiz-adv-x="1126" d="M528 1214h-32l-238 291h41l213 -262l213 262h41z" />
<glyph unicode="&#x2c9;" horiz-adv-x="1126" d="M856 1278h-672v29h672v-29z" />
<glyph unicode="&#x2d8;" horiz-adv-x="1126" d="M737 1450h31q0 -117 -65 -182.5t-181 -65.5t-181 65.5t-65 182.5h31q0 -103 57 -161t158 -58t158 58t57 161z" />
<glyph unicode="&#x2d9;" horiz-adv-x="1126" d="M563 1335q22 0 36.5 -14.5t14.5 -36.5t-14.5 -36.5t-36.5 -14.5t-36.5 14.5t-14.5 36.5t14.5 36.5t36.5 14.5z" />
<glyph unicode="&#x2da;" horiz-adv-x="1126" d="M514 1577q87 0 142 -54t55 -139t-54.5 -138.5t-142.5 -53.5t-142.5 53.5t-54.5 138.5t55 139t142 54zM514 1548q-72 0 -118 -46t-46 -118t46 -117.5t118 -45.5t118 45.5t46 117.5t-46 118t-118 46z" />
<glyph unicode="&#x2db;" horiz-adv-x="1351" d="M582 14l30 -14q-148 -57 -209 -116.5t-61 -137.5q0 -63 42.5 -97t107.5 -34q83 0 135 41l12 -27q-62 -43 -147 -43q-78 0 -129.5 42t-51.5 118q0 82 61.5 146t209.5 122z" />
<glyph unicode="&#x2dc;" horiz-adv-x="1126" d="M815 1444h29q-18 -99 -59.5 -147t-120.5 -48q-40 0 -73 16.5t-56.5 40.5t-46.5 48t-53.5 40.5t-67.5 16.5q-70 0 -102 -39t-48 -123h-29q18 99 60 147t121 48q39 0 72 -16.5t56.5 -40.5t46.5 -48t53.5 -40.5t66.5 -16.5q70 0 102.5 39t48.5 123z" />
<glyph unicode="&#x2dd;" horiz-adv-x="1024" d="M508 1536l-203 -342h-35l201 342h37zM776 1536l-203 -342h-34l200 342h37z" />
<glyph unicode="&#x326;" horiz-adv-x="0" d="M176 -485h-26l102 329h37z" />
<glyph unicode="&#x3c0;" horiz-adv-x="1437" d="M1051 995v-802q0 -164 229 -164l-6 -29q-115 0 -185.5 45.5t-70.5 147.5v802h-600v-995h-33v995h-340v29h1348v-29h-342z" />
<glyph unicode="&#x902;" horiz-adv-x="0" d="M-324 1907q54 0 88.5 -34.5t34.5 -88.5t-34.5 -88.5t-88.5 -34.5q-53 0 -87.5 34.5t-34.5 88.5t34.5 88.5t87.5 34.5z" />
<glyph unicode="&#x905;" horiz-adv-x="1638" d="M1659 1237h-285v-1237h-143v596q-109 -31 -230 -31q-50 0 -157 29q65 -77 65 -182q0 -167 -109.5 -255.5t-307.5 -88.5q-47 0 -94.5 10.5t-97 34.5t-90.5 60.5t-75 93t-51 126.5l121 51q22 -138 104 -196t215 -58q122 0 183 60t61 160q0 54 -19 98.5t-59.5 81t-111 57 t-166.5 21.5v110q88 1 150 23.5t94.5 61t46.5 82t14 95.5q0 86 -47 137.5t-150 51.5q-88 0 -131.5 -37.5t-62.5 -110.5l-121 43q15 97 109 162.5t210 65.5q152 0 244 -80.5t92 -235.5q0 -110 -60.5 -187t-176.5 -114q73 -9 205 -34t182 -25q123 0 221 35v526h-268v115h696 v-115z" />
<glyph unicode="&#x907;" horiz-adv-x="1220" d="M965 903h-521q-125 0 -125 -125q0 -82 72.5 -125t163.5 -43q60 0 165 31t161 31q71 0 137.5 -72.5t66.5 -187.5q0 -83 -33.5 -150.5t-85 -109.5t-119 -70t-131.5 -39.5t-126 -11.5h-33q200 -185 367 -162l-56 -117q-67 -14 -135.5 6t-139 76.5t-112.5 97.5t-110 115 q-107 22 -203 109q-58 52 -44.5 119t69.5 81t120 -41q8 -9 47 -58.5t70 -86.5q64 -20 160 -20q177 0 270.5 69.5t93.5 194.5q0 59 -30 91t-82 32q-27 0 -125.5 -28t-177.5 -28q-90 0 -170.5 35t-132.5 102.5t-52 153.5q0 109 63.5 177.5t186.5 68.5h387v219h-841v115h1261 v-115h-276v-334z" />
<glyph unicode="&#x908;" horiz-adv-x="1220" d="M965 903h-521q-125 0 -125 -125q0 -82 72.5 -125t163.5 -43q60 0 165 31t161 31q71 0 137.5 -72.5t66.5 -187.5q0 -83 -33.5 -150.5t-85 -109.5t-119 -70t-131.5 -39.5t-126 -11.5h-33q200 -185 367 -162l-56 -117q-67 -14 -135.5 6t-139 76.5t-112.5 97.5t-110 115 q-107 22 -203 109q-58 52 -44.5 119t69.5 81t120 -41q8 -9 47 -58.5t70 -86.5q64 -20 160 -20q177 0 270.5 69.5t93.5 194.5q0 59 -30 91t-82 32q-27 0 -125.5 -28t-177.5 -28q-90 0 -170.5 35t-132.5 102.5t-52 153.5q0 109 63.5 177.5t186.5 68.5h387v219h-841v115h839 l-119 182q-46 71 -48 146.5t32.5 135t95 102.5t131.5 58.5t150.5 -6t144.5 -82.5l-59 -106q-44 38 -96.5 53.5t-99.5 9t-86 -31t-60 -62t-17.5 -90t37.5 -107.5l125 -202h291v-115h-276v-334z" />
<glyph unicode="&#x909;" horiz-adv-x="1126" d="M1147 1237h-344q123 -79 123 -244q0 -92 -58.5 -160.5t-169.5 -103.5q271 -70 271 -330q0 -144 -104.5 -237.5t-301.5 -93.5q-94 0 -179 31.5t-164.5 109.5t-129.5 197l115 63q97 -279 373 -279q262 0 262 218q0 113 -98 186.5t-259 73.5v110q305 5 305 232 q0 101 -70.5 164t-187.5 63h-550v115h1167v-115z" />
<glyph unicode="&#x90f;" horiz-adv-x="1200" d="M1221 1237h-355q79 -58 126.5 -151.5t47.5 -206.5q0 -76 -18.5 -136.5t-46.5 -99.5t-74.5 -72t-87 -52t-100.5 -40l-80 113q68 19 111.5 38t83.5 50t58.5 78t18.5 112q0 118 -61 215t-172 152h-305l2 -645q0 -49 5.5 -80t24 -67.5t59.5 -68t107 -63.5 q150 -70 246.5 -127.5t143 -105t62 -83.5t15.5 -79q0 -126 -119 -211l-104 60q84 76 84 141q0 59 -85.5 118.5t-383.5 219.5q-115 63 -158 133t-43 162v696h-243v115h1241v-115z" />
<glyph unicode="&#x913;" horiz-adv-x="2310" d="M2331 1237h-285v-1237h-143v1237h-529v-1237h-143v596q-109 -31 -230 -31q-50 0 -157 29q65 -77 65 -182q0 -167 -109.5 -255.5t-307.5 -88.5q-47 0 -94.5 10.5t-97 34.5t-90.5 60.5t-75 93t-51 126.5l121 51q22 -138 104 -196t215 -58q122 0 183 60t61 160 q0 54 -19 98.5t-59.5 81t-111 57t-166.5 21.5v110q88 1 150 23.5t94.5 61t46.5 82t14 95.5q0 86 -47 137.5t-150 51.5q-88 0 -131.5 -37.5t-62.5 -110.5l-121 43q15 97 109 162.5t210 65.5q152 0 244 -80.5t92 -235.5q0 -110 -60.5 -187t-176.5 -114q73 -9 205 -34t182 -25 q123 0 221 35v526h-268v115h944l-613 549l105 100l651 -649h281v-115z" />
<glyph unicode="&#x914;" horiz-adv-x="2310" d="M2331 1237h-285v-1237h-143v1237h-529v-1237h-143v596q-109 -31 -230 -31q-50 0 -157 29q65 -77 65 -182q0 -167 -109.5 -255.5t-307.5 -88.5q-47 0 -94.5 10.5t-97 34.5t-90.5 60.5t-75 93t-51 126.5l121 51q22 -138 104 -196t215 -58q122 0 183 60t61 160 q0 54 -19 98.5t-59.5 81t-111 57t-166.5 21.5v110q88 1 150 23.5t94.5 61t46.5 82t14 95.5q0 86 -47 137.5t-150 51.5q-88 0 -131.5 -37.5t-62.5 -110.5l-121 43q15 97 109 162.5t210 65.5q152 0 244 -80.5t92 -235.5q0 -110 -60.5 -187t-176.5 -114q73 -9 205 -34t182 -25 q123 0 221 35v526h-268v115h835l-594 469l94 114l621 -561l-322 641l144 64l303 -727h287v-115z" />
<glyph unicode="&#x915;" horiz-adv-x="1867" d="M1016 1237v-387q112 172 336 172q152 0 259 -102.5t107 -264.5q0 -184 -102.5 -293.5t-253.5 -109.5q-65 0 -106 13t-78 42l57 115q52 -49 129 -49q85 0 150 70t65 186q0 128 -69.5 199t-184.5 71q-108 0 -184.5 -65t-124.5 -170v-664h-144v424q-56 -89 -140 -129.5 t-216 -40.5q-146 0 -256 103t-110 255q0 182 104.5 292t271.5 110q67 0 110.5 -16t82.5 -54l-57 -98q-47 47 -134 47q-99 0 -169 -66t-70 -190q0 -123 79 -191.5t193 -68.5q197 0 311 233v627h-892v115h1908v-115h-872z" />
<glyph unicode="&#x916;" horiz-adv-x="1931" d="M1952 1237h-283v-1227h-143v191q-95 -102 -209 -146.5t-277 -44.5t-307.5 57t-260.5 163t-208.5 246t-165.5 317l115 49l2 -6l2 2q37 -74 97.5 -110.5t119.5 -12.5q49 20 67.5 70t18.5 149v303h-540v115h1972v-115zM1526 1237h-862v-303q0 -121 -33 -194.5t-107 -112.5 q-106 -53 -198 -11q286 -483 729 -483q113 0 243.5 52t227.5 161v227q-126 -174 -330 -174q-151 0 -242.5 90.5t-91.5 239.5t95 238.5t253 89.5q120 0 179 -88l-62 -86q-52 59 -139 53q-85 -5 -136 -58.5t-51 -142.5q0 -100 58.5 -156.5t159.5 -56.5q191 0 307 223v492z" />
<glyph unicode="&#x921;" horiz-adv-x="1306" d="M1028 903h-520q-58 0 -91.5 -31t-33.5 -96q0 -93 68.5 -139.5t166.5 -46.5q63 0 164 30.5t150 30.5q82 0 149.5 -73.5t67.5 -190.5q0 -76 -30 -137.5t-80 -101.5t-119 -67t-143 -38.5t-156 -11.5q-184 0 -321.5 76t-207.5 229l115 74q55 -129 163 -194.5t246 -65.5 q193 0 297.5 62.5t104.5 176.5q0 60 -30 93.5t-81 33.5q-37 0 -136 -27.5t-177 -27.5q-140 0 -243 86t-103 223q0 109 63.5 178.5t186.5 69.5h387v219h-905v115h1347v-115h-299v-334z" />
<glyph unicode="&#x924;" horiz-adv-x="1402" d="M1423 1237h-282v-1237h-144v801h-442q-279 0 -279 -254q0 -280 402 -438l-72 -109q-234 87 -352.5 224t-118.5 349q0 165 93.5 253.5t277.5 88.5h491v322h-1017v115h1443v-115z" />
<glyph unicode="&#x925;" horiz-adv-x="1497" d="M1518 1237h-281v-1237h-143v438q-150 -213 -467 -213q-232 0 -372.5 108t-174.5 351q301 60 426 147t125 222q0 88 -44.5 137t-129.5 49q-78 0 -125 -44.5t-47 -100.5q0 -99 67 -166l-100 -41q-51 37 -79 90t-28 113q0 123 85 197.5t235 74.5q152 0 227.5 -85.5 t75.5 -221.5q0 -72 -29 -136t-90.5 -124.5t-169.5 -110.5t-256 -84q10 -99 124.5 -175.5t287.5 -76.5q163 0 290 89t169 227v573h-174v115h598v-115z" />
<glyph unicode="&#x926;" horiz-adv-x="1267" d="M991 856h-424q-145 0 -222 -66.5t-77 -183.5q0 -71 25.5 -125.5t69.5 -86t97 -47t113 -15.5q68 0 140 14.5t110 42.5q-10 52 -10 74q-4 85 57 130t125 18.5t68 -115.5q3 -104 -113 -187q11 -30 28 -63t28.5 -54.5t41 -64t38 -54.5t49 -65.5t45.5 -60.5l-152 -33 q-103 176 -166 348q-125 -53 -280 -53q-213 0 -336.5 105t-120.5 282q3 186 113 283.5t284 97.5h326v260h-868v115h1308v-115h-297v-381z" />
<glyph unicode="&#x927;" horiz-adv-x="1472" d="M1493 1237h-281v-1237h-143v410q-104 -86 -239.5 -137.5t-284.5 -51.5q-184 0 -295 80.5t-111 235.5q0 184 189 268q-96 41 -150.5 110t-54.5 162q0 123 83 204t218 81q119 0 179.5 -56t47.5 -171l-104 -48q3 61 -33 106.5t-102 45.5t-109 -44.5t-43 -107.5 q0 -101 91 -166.5t251 -66.5l35 -109q-363 -4 -363 -200q0 -96 72 -148.5t219 -52.5q158 0 278.5 50t225.5 153v690h-268v115h692v-115z" />
<glyph unicode="&#x92a;" horiz-adv-x="1357" d="M1378 1237h-280v-1237h-144v535q-124 -179 -374 -179q-154 0 -253.5 86.5t-99.5 251.5v543h-247v115h1398v-115zM954 1237h-583v-487q0 -143 65 -207t191 -64q106 0 194 75t133 200v483z" />
<glyph unicode="&#x92d;" horiz-adv-x="1515" d="M1536 1237h-285v-1237h-143v571h-520v-106q0 -29 -25 -50t-56.5 -23t-60.5 18q-32 27 -76.5 72t-64.5 73q-26 36 7 83.5t83 47.5h49v356q0 97 -28 138t-97 41q-55 0 -88.5 -33t-33.5 -78q0 -48 35.5 -78t105.5 -33l-43 -102q-104 1 -163.5 65t-59.5 160q0 109 73.5 169.5 t188.5 60.5q254 0 254 -312v-354h520v551h-289v115h717v-115z" />
<glyph unicode="&#x935;" horiz-adv-x="1335" d="M1356 1237h-281v-1237h-143v453q-63 -106 -153.5 -159.5t-225.5 -53.5q-175 0 -290.5 108.5t-115.5 286.5q0 173 114 281t282 108q150 0 229 -100l-86 -97q-55 70 -147 70q-102 0 -175 -68t-73 -190q0 -131 80.5 -204t195.5 -73q242 0 365 297v578h-952v115h1376v-115z " />
<glyph unicode="&#x937;" horiz-adv-x="1357" d="M1405 1237h-281v-1237h-143v535q-124 -179 -375 -179q-154 0 -253 86.5t-99 251.5v543h-248v115h1399v-115zM981 1237h-580l580 -479v479zM653 479q77 0 147 41.5t120 114.5l-523 432v-317q0 -143 65 -207t191 -64z" />
<glyph unicode="&#x93e;" horiz-adv-x="671" d="M692 1237h-284v-1237h-144v1237h-284v115h712v-115z" />
<glyph unicode="&#x947;" horiz-adv-x="0" d="M-938 2001l670 -668l-66 -67l-708 635z" />
<glyph unicode="&#x948;" horiz-adv-x="0" d="M-346 1290l-8 15l-37 -48l-713 564l94 114l621 -561l-322 641l144 64l313 -750z" />
<glyph unicode="&#x94b;" horiz-adv-x="671" d="M692 1237h-284v-1237h-144v1237h-284v115h288l-612 549l104 100l652 -649h280v-115z" />
<glyph unicode="&#x94c;" horiz-adv-x="671" d="M692 1237h-284v-1237h-144v1237h-284v115h180l-594 469l94 114l621 -561l-322 641l143 64l304 -727h286v-115z" />
<glyph unicode="&#x2000;" horiz-adv-x="1039" />
<glyph unicode="&#x2001;" horiz-adv-x="2079" />
<glyph unicode="&#x2002;" horiz-adv-x="1039" />
<glyph unicode="&#x2003;" horiz-adv-x="2079" />
<glyph unicode="&#x2004;" horiz-adv-x="693" />
<glyph unicode="&#x2005;" horiz-adv-x="519" />
<glyph unicode="&#x2006;" horiz-adv-x="346" />
<glyph unicode="&#x2007;" horiz-adv-x="346" />
<glyph unicode="&#x2008;" horiz-adv-x="259" />
<glyph unicode="&#x2009;" horiz-adv-x="415" />
<glyph unicode="&#x200a;" horiz-adv-x="115" />
<glyph unicode="&#x2010;" horiz-adv-x="821" d="M698 537h-575v32h575v-32z" />
<glyph unicode="&#x2011;" horiz-adv-x="821" d="M698 537h-575v32h575v-32z" />
<glyph unicode="&#x2012;" horiz-adv-x="821" d="M698 537h-575v32h575v-32z" />
<glyph unicode="&#x2013;" horiz-adv-x="1026" d="M997 537h-968v32h968v-32z" />
<glyph unicode="&#x2014;" horiz-adv-x="1890" d="M1767 537h-1644v32h1644v-32z" />
<glyph unicode="&#x2018;" horiz-adv-x="331" d="M143 1081q-33 0 -50 30.5t-17 74.5q0 61 31.5 118.5t89.5 88.5l24 -19q-63 -26 -98.5 -94.5t-13.5 -118.5h4q10 23 37 23q20 0 33.5 -14.5t13.5 -36.5t-15 -37t-39 -15z" />
<glyph unicode="&#x2019;" horiz-adv-x="331" d="M188 1393q33 0 50.5 -31t17.5 -74q0 -61 -31.5 -118.5t-89.5 -88.5l-24 19q63 26 98.5 94.5t13.5 118.5h-4q-10 -23 -37 -23q-20 0 -33.5 14.5t-13.5 36.5t14.5 37t38.5 15z" />
<glyph unicode="&#x201a;" horiz-adv-x="333" d="M182 92q33 0 50.5 -30.5t17.5 -73.5q0 -61 -31.5 -118.5t-89.5 -88.5l-25 18q63 26 99 94.5t14 118.5h-4q-9 -22 -37 -22q-20 0 -33.5 14.5t-13.5 36.5t14.5 36.5t38.5 14.5z" />
<glyph unicode="&#x201c;" horiz-adv-x="552" d="M143 1081q-33 0 -50 30.5t-17 74.5q0 61 31.5 118.5t89.5 88.5l24 -19q-63 -26 -98.5 -94.5t-13.5 -118.5h4q10 23 37 23q20 0 33.5 -14.5t13.5 -36.5t-15 -37t-39 -15zM365 1081q-33 0 -50.5 31t-17.5 74q0 61 31.5 118.5t89.5 88.5l24 -19q-63 -26 -98.5 -94.5 t-13.5 -118.5h4q10 23 37 23q20 0 33.5 -14.5t13.5 -36.5t-14.5 -37t-38.5 -15z" />
<glyph unicode="&#x201d;" horiz-adv-x="552" d="M188 1393q33 0 50.5 -31t17.5 -74q0 -61 -31.5 -118.5t-89.5 -88.5l-24 19q63 26 98.5 94.5t13.5 118.5h-4q-10 -23 -37 -23q-20 0 -33.5 14.5t-13.5 36.5t14.5 37t38.5 15zM410 1393q33 0 50 -30.5t17 -74.5q0 -61 -31.5 -118.5t-89.5 -88.5l-24 19q63 26 98.5 94.5 t13.5 118.5h-4q-10 -23 -37 -23q-20 0 -33.5 14.5t-13.5 36.5t15 37t39 15z" />
<glyph unicode="&#x201e;" horiz-adv-x="555" d="M182 92q33 0 50.5 -30.5t17.5 -73.5q0 -61 -31.5 -118.5t-89.5 -88.5l-25 18q63 26 99 94.5t14 118.5h-4q-9 -22 -37 -22q-20 0 -33.5 14.5t-13.5 36.5t14.5 36.5t38.5 14.5zM403 92q33 0 50.5 -30.5t17.5 -73.5q0 -61 -31.5 -118.5t-89.5 -88.5l-24 18q63 26 98.5 94.5 t13.5 118.5h-4q-9 -22 -37 -22q-20 0 -33.5 14.5t-13.5 36.5t14.5 36.5t38.5 14.5z" />
<glyph unicode="&#x2020;" horiz-adv-x="1202" d="M1022 856h-404v-1286h-32v1286h-406v27h406v469h32v-469h404v-27z" />
<glyph unicode="&#x2021;" horiz-adv-x="1202" d="M618 854v-799h404v-28h-404v-457h-32v457h-406v28h406v799h-406v29h406v469h32v-469h404v-29h-404z" />
<glyph unicode="&#x2022;" horiz-adv-x="880" d="M440 795q44 0 73.5 -29.5t29.5 -73.5t-29.5 -73t-73.5 -29t-73 29t-29 73t29 73.5t73 29.5z" />
<glyph unicode="&#x2026;" horiz-adv-x="1619" d="M190 92q22 0 38 -15t16 -36t-16 -36t-38 -15t-35.5 14.5t-13.5 36.5t13.5 36.5t35.5 14.5zM809 92q22 0 37.5 -14.5t15.5 -36.5t-15.5 -36.5t-37.5 -14.5t-35.5 14.5t-13.5 36.5t13.5 36.5t35.5 14.5zM1425 92q22 0 38 -15t16 -36t-16 -36t-38 -15t-35.5 14.5t-13.5 36.5 t13.5 36.5t35.5 14.5z" />
<glyph unicode="&#x202f;" horiz-adv-x="415" />
<glyph unicode="&#x2030;" horiz-adv-x="2379" d="M387 0h-37l916 1352h39zM420 1348q73 0 128.5 -29t88 -78.5t49 -109t16.5 -127.5t-16 -127t-49 -107t-88.5 -76t-128.5 -28q-96 0 -162.5 49.5t-94.5 123.5t-28 165q0 68 16.5 127.5t49.5 109t89.5 78.5t129.5 29zM420 1319q-124 0 -188 -90.5t-64 -224.5 q0 -86 25.5 -154t84 -112t142.5 -44q64 0 113 25t78.5 68.5t44 98.5t14.5 118t-15 118.5t-44.5 100t-78.5 70.5t-112 26zM1266 698q73 0 128.5 -28.5t88 -77.5t49 -108.5t16.5 -127.5t-16.5 -127t-49 -107.5t-88 -77t-128.5 -28.5q-96 0 -163 50t-95.5 124.5t-28.5 165.5 q0 68 17 127.5t50 108.5t90 77.5t130 28.5zM1962 698q73 0 128.5 -28.5t88.5 -77.5t49.5 -108.5t16.5 -127.5t-16.5 -127t-49.5 -107.5t-88.5 -77t-128.5 -28.5q-96 0 -163 50t-95.5 124.5t-28.5 165.5q0 68 17 127.5t50 108.5t90 77.5t130 28.5zM1266 670q-64 0 -114 -25.5 t-80 -70t-45 -100t-15 -118.5t15.5 -118t45.5 -98.5t79.5 -69t113.5 -25.5q123 0 186.5 89t63.5 222t-63.5 223.5t-186.5 90.5zM1962 670q-64 0 -114 -25.5t-80 -70t-45 -100t-15 -118.5t15.5 -118t45.5 -98.5t79.5 -69t113.5 -25.5q123 0 186.5 89t63.5 222t-63.5 223.5 t-186.5 90.5z" />
<glyph unicode="&#x2039;" horiz-adv-x="634" d="M537 909l22 -24l-385 -373l385 -373l-22 -24l-412 397z" />
<glyph unicode="&#x203a;" horiz-adv-x="634" d="M98 115l-22 24l385 373l-385 373l22 24l412 -397z" />
<glyph unicode="&#x2044;" horiz-adv-x="954" d="M37 0h-37l915 1352h39z" />
<glyph unicode="&#x205f;" horiz-adv-x="519" />
<glyph unicode="&#x2070;" horiz-adv-x="737" d="M369 1372q142 0 219.5 -97t77.5 -276t-77.5 -275.5t-219.5 -96.5t-219.5 96.5t-77.5 275.5t77.5 276t219.5 97zM369 1343q-127 0 -196 -87.5t-69 -256.5t69 -256.5t196 -87.5t195.5 87.5t68.5 256.5t-68.5 256.5t-195.5 87.5z" />
<glyph unicode="&#x2074;" horiz-adv-x="636" d="M588 874h-168v-247h-33v247h-303v29l297 449h39v-449h168v-29zM387 903v418l-27 -51l-200 -309l-45 -58h272z" />
<glyph unicode="&#x20ac;" horiz-adv-x="1196" d="M1135 360l28 -14q-44 -177 -165.5 -271.5t-274.5 -94.5q-212 0 -347 132.5t-173 374.5h-191v31h187q-11 90 -11 158q0 74 9 141h-185v31h189q34 250 169.5 387t350.5 137q160 0 269.5 -74.5t156.5 -216.5l-25 -20q-96 282 -401 282q-200 0 -327 -129.5t-161 -365.5h455 v-31h-459q-8 -60 -8 -141q0 -76 10 -158h457v-31h-452q37 -228 164 -353.5t323 -125.5q145 0 258 91t154 261z" />
<glyph unicode="&#x20ba;" horiz-adv-x="1241" d="M1098 526h30q0 -247 -130.5 -386.5t-362.5 -139.5h-279v573l-239 -69v31l239 69v238l-239 -72v31l239 71v480h33v-469l465 137v-31l-465 -137v-238l465 138v-31l-465 -137v-555h227q226 0 354 132t128 365z" />
<glyph unicode="&#x20bd;" horiz-adv-x="1247" d="M262 596v-203h481v-28h-481v-365h-33v365h-188v28h188v203h-188v29h188v727h418q217 0 339 -100.5t122 -278.5t-122 -277.5t-339 -99.5h-385zM262 625h385q201 0 314.5 92t113.5 256t-113.5 257t-314.5 93h-385v-698z" />
<glyph unicode="&#x2113;" horiz-adv-x="698" d="M582 49l2 -33q-48 -36 -144 -36q-111 0 -161 55t-50 178v311q-66 -47 -153 -86v35q86 36 153 86v592q0 221 168 221q166 0 166 -211q0 -178 -80 -338t-221 -274v-336q0 -106 44.5 -153.5t142.5 -47.5q84 0 133 37zM262 1151v-567q126 102 197 253t71 324q0 182 -133 182 q-135 0 -135 -192z" />
<glyph unicode="&#x2122;" horiz-adv-x="1538" d="M594 1352v-29h-260v-647h-33v647h-262v29h555zM1356 1352v-676h-33v426l4 215l-270 -641h-39l-270 641l4 -215v-426h-33v676h49l270 -631l269 631h49z" />
<glyph unicode="&#x2126;" horiz-adv-x="1497" d="M1366 29v-27l-477 -2v27q205 75 323.5 244t118.5 425q0 295 -158.5 471t-422.5 176q-266 0 -425 -176t-159 -471q0 -256 118.5 -425t323.5 -244v-27l-477 2v27l414 -2q-194 87 -303 255.5t-109 413.5q0 308 168 492t449 184q280 0 447 -184t167 -492 q0 -245 -109.5 -413.5t-304.5 -255.5z" />
<glyph unicode="&#x212e;" horiz-adv-x="1546" d="M1481 655h-1145q-10 0 -10 -8v-399q0 -24 16 -43q164 -185 432 -185q135 0 263 62.5t212 167.5h84q-99 -124 -246 -196t-315 -72q-143 0 -274 54.5t-225.5 147.5t-150.5 221.5t-56 270.5t56 271t150.5 222t225.5 148t274 55q115 0 223.5 -35t195.5 -99.5t152.5 -150 t101.5 -191.5t36 -220v-21zM1221 707v401q0 25 -17 45q-164 176 -430 176q-268 0 -432 -182q-16 -19 -16 -47v-393q0 -4 3 -8.5t7 -4.5h876q9 0 9 13z" />
<glyph unicode="&#x2202;" horiz-adv-x="1202" d="M551 1372q257 0 379.5 -170t122.5 -526q0 -336 -125 -516t-357 -180q-193 0 -315.5 122t-122.5 316q0 191 119 309.5t309 120.5q166 -2 284.5 -73.5t170.5 -203.5q4 66 4 105q0 341 -115 504t-354 163q-198 0 -289 -137l-24 23q114 143 313 143zM569 8q190 0 303.5 131 t139.5 379q-46 146 -165.5 222.5t-287.5 78.5q-173 -1 -283 -113t-110 -286q0 -182 112.5 -297t290.5 -115z" />
<glyph unicode="&#x2206;" horiz-adv-x="1263" d="M1194 29v-29h-1124v29l540 1323h47zM106 29h1053l-526 1298z" />
<glyph unicode="&#x220f;" horiz-adv-x="1245" d="M1102 1352v-1614h-33v1585h-893v-1585h-33v1614h959z" />
<glyph unicode="&#x2211;" horiz-adv-x="1392" d="M1223 1323h-971l709 -739l-715 -817h977v-29h-1016v29l711 817l-711 739v29h1016v-29z" />
<glyph unicode="&#x2212;" d="M1065 586h-948v28h948v-28z" />
<glyph unicode="&#x2215;" horiz-adv-x="954" d="M37 0h-37l915 1352h39z" />
<glyph unicode="&#x2219;" horiz-adv-x="1064" d="M530 604q22 0 38 -15t16 -36t-16 -36t-38 -15t-35.5 14.5t-13.5 36.5t13.5 36.5t35.5 14.5z" />
<glyph unicode="&#x221a;" horiz-adv-x="1150" d="M1206 1675l-643 -1675h-59l-260 670h-213v28h235l269 -671l641 1648h30z" />
<glyph unicode="&#x221e;" horiz-adv-x="1695" d="M1315 973q126 0 211.5 -105t85.5 -290q0 -183 -85.5 -288.5t-211.5 -105.5h-54t-46.5 8t-41 13.5t-43.5 29.5t-48 43t-61.5 67.5t-76 88t-98.5 119.5q-64 -80 -95.5 -118t-74 -87t-60 -67.5t-47.5 -43t-44 -30.5t-41 -14t-47 -8.5t-54 -0.5q-127 0 -213 105t-86 289 q0 185 86 290t213 105q35 0 53.5 -0.5t45.5 -7.5t41 -13t43.5 -29.5t48 -43t60 -66t75 -87.5t96.5 -118l2 -2q81 98 121.5 146.5t87.5 98.5t69.5 67.5t57.5 33.5t61 18.5t70 2.5zM389 213q38 0 56 1.5t48.5 14.5t51 31t65.5 65t89.5 101t125.5 152q-62 76 -97 118.5t-75 88 t-59.5 66.5t-46.5 43t-39.5 28.5t-35.5 13.5t-38.5 7.5t-44.5 0.5q-112 0 -192 -102t-80 -264q0 -161 80 -263t192 -102zM1307 213q112 -3 192 100t80 265t-79.5 264t-190.5 102q-66 0 -113.5 -23.5t-120 -97.5t-207.5 -241q81 -99 125 -151.5t89.5 -100.5t66.5 -65.5 t51.5 -32.5t50 -16.5t56.5 -2.5z" />
<glyph unicode="&#x222b;" horiz-adv-x="714" d="M367 6v1278q0 133 67 200.5t191 67.5q84 0 133 -34l-10 -27q-44 33 -123 33q-108 0 -167 -60.5t-59 -179.5v-1278q0 -268 -256 -268q-84 0 -143 41l12 24q56 -36 123 -36q115 0 173.5 57.5t58.5 181.5z" />
<glyph unicode="&#x2248;" d="M342 868q58 0 128.5 -22.5t126 -49t125 -49t126.5 -22.5q120 0 242 117v-39q-119 -107 -244 -107q-55 0 -123.5 22.5t-124 49.5t-126.5 49.5t-130 22.5q-72 0 -128.5 -28t-121.5 -89v39q67 58 123 82t127 24zM342 532q58 0 128.5 -22.5t126 -49t125 -49t126.5 -22.5 q120 0 242 117v-39q-119 -107 -244 -107q-55 0 -123.5 22.5t-124 49.5t-126.5 49.5t-130 22.5q-72 0 -128.5 -28t-121.5 -89v39q67 58 123 82t127 24z" />
<glyph unicode="&#x2260;" d="M711 815l-205 -420h549v-28h-563l-121 -246h-37l121 246h-328v28h342l207 420h-549v29h563l121 246h35l-121 -246h330v-29h-344z" />
<glyph unicode="&#x2264;" d="M1053 279l-926 520v39l926 499v-37l-897 -483l897 -502v-36zM1065 96v-28h-948v28h948z" />
<glyph unicode="&#x2265;" d="M1055 799l-926 -520v36l897 502l-897 483v37l926 -499v-39zM1065 96v-28h-948v28h948z" />
<glyph unicode="&#x25ca;" d="M993 676l-381 -676h-47l-377 676l377 676h47zM956 676l-366 651l-365 -651l365 -651z" />
<glyph unicode="&#x25fc;" horiz-adv-x="1024" d="M0 1024h1024v-1024h-1024v1024z" />
<glyph horiz-adv-x="1191" d="M940 479h-688l-197 -479h-35l553 1352h45l553 -1352h-34zM928 508l-332 809l-332 -809h664z" />
<glyph horiz-adv-x="1249" d="M1049 1022v-1006q0 -215 -124 -335.5t-345 -120.5q-172 0 -283.5 68t-136.5 188l33 14q20 -114 122 -178t265 -64q205 0 320.5 113t115.5 313v289q-38 -155 -148 -239t-270 -84q-221 0 -345 140.5t-124 391.5t124 391.5t345 140.5q159 0 268.5 -84t149.5 -239v301h33z M604 8q188 0 300 133t112 363v26q-1 224 -113.5 355t-298.5 131q-209 0 -325.5 -133t-116.5 -371t116.5 -371t325.5 -133z" />
<glyph horiz-adv-x="1425" d="M1178 944h-623q-117 0 -117 -96q0 -58 69 -88.5t165 -30.5q60 0 202.5 33t198.5 33q37 0 65.5 -6.5t57.5 -24.5t45 -57t16 -97q0 -102 -67.5 -173.5t-177.5 -104.5t-252 -33q-154 0 -275 31q-67 -25 -67 -82q0 -52 67.5 -86.5t186.5 -34.5q60 0 202.5 33t198.5 33 q37 0 65.5 -6.5t57.5 -24.5t45 -57t16 -97q0 -102 -67.5 -173.5t-177.5 -104.5t-252 -33q-134 0 -240.5 22t-184.5 64.5t-132.5 94t-102.5 122.5l88 70q81 -140 216 -202.5t352 -62.5q167 0 271 50t106 118q1 52 -22.5 71t-76.5 19q-25 0 -168 -29.5t-235 -29.5 q-85 0 -160 22.5t-129.5 75.5t-54.5 129q0 92 84 138q-161 69 -271 233l88 70q81 -140 216 -202t352 -62q167 0 271 49.5t106 117.5q1 52 -23 71.5t-76 19.5q-25 0 -168 -30t-235 -30q-62 0 -119.5 14t-107 42.5t-79.5 78.5t-30 115q0 88 63 145.5t187 57.5h489v178h-1054 v115h1466v-115h-268v-293z" />
<glyph horiz-adv-x="0" d="M-27 1888l-59 -106q-44 38 -96.5 53.5t-99.5 9t-86 -31t-60 -62t-17.5 -90t37.5 -107.5l142 -229h-131l-135 209q-46 71 -48 146.5t32 135t94.5 102.5t131.5 58.5t150.5 -6t144.5 -82.5z" />
<glyph horiz-adv-x="0" d="M-27 1888l-59 -106q-44 38 -96.5 53.5t-99.5 9t-86 -31t-60 -62t-17.5 -90t37.5 -107.5l142 -229h-131l-135 209q-46 71 -48 146.5t32 135t94.5 102.5t131.5 58.5t150.5 -6t144.5 -82.5zM-207 1704q41 0 66.5 -25.5t25.5 -66.5q0 -40 -25.5 -66t-66.5 -26 q-39 0 -65.5 26.5t-26.5 65.5q0 41 26.5 66.5t65.5 25.5z" />
<glyph horiz-adv-x="1095" d="M684 1825l-139 -303h-33l129 303h43z" />
<glyph horiz-adv-x="538" d="M172 1092h-31l41 403h33z" />
<glyph horiz-adv-x="1005" d="M514 1522h-33l-139 303h43z" />
<glyph horiz-adv-x="671" d="M692 1237h-284v-1237h-144v1237h-284v115h235l-612 549l104 100l651 -649h334v-115zM250 1690q-53 0 -88 34t-35 88t35 88.5t88 34.5q54 0 88.5 -34.5t34.5 -88.5t-34.5 -88t-88.5 -34z" />
<glyph horiz-adv-x="671" d="M692 1237h-284v-1237h-144v1237h-284v115h274l-590 549l115 112l383 -430q-21 74 -17.5 137.5t33 111.5t72 82t98.5 49.5t113 14t115.5 -24.5t105.5 -65l-59 -106q-44 38 -96 54t-98.5 10.5t-85.5 -29.5t-60.5 -61.5t-19 -90.5t33.5 -111l111 -202h284v-115z" />
<glyph horiz-adv-x="671" d="M692 1237h-284v-1237h-144v1237h-284v115h239l-590 549l115 112l383 -430q-21 74 -17.5 137.5t33 111.5t72 82t98.5 49.5t113 14t115.5 -24.5t105.5 -65l-59 -106q-44 38 -96 54t-98.5 10.5t-85.5 -29.5t-60.5 -61.5t-19 -90.5t33.5 -111l111 -202h319v-115zM377 1612 q0 41 26 66.5t66 25.5t66 -25.5t26 -66.5q0 -40 -26 -66t-66 -26t-66 26t-26 66z" />
<glyph horiz-adv-x="671" d="M692 1237h-284v-1237h-144v1237h-284v115h182l-594 469l94 114l621 -561l-322 641l143 64l304 -727h284v-115zM489 1681q-53 0 -87.5 34.5t-34.5 88.5t34.5 88.5t87.5 34.5q54 0 88.5 -34.5t34.5 -88.5t-34.5 -88.5t-88.5 -34.5z" />
<glyph horiz-adv-x="671" d="M416 1352h276v-115h-284v-1237h-144v1237h-284v115h159l-616 399l86 133l665 -532h7l-433 585l125 99l191 -340q-5 67 25 128t85.5 99.5t123.5 54t147 -6.5t149 -83l-59 -106q-44 38 -95.5 54t-97.5 10.5t-84 -30t-59.5 -61.5t-20.5 -89.5t31 -109.5zM424 1612 q0 41 26 66.5t66 25.5t66 -25.5t26 -66.5q0 -40 -26 -66t-66 -26t-66 26t-26 66z" />
<glyph horiz-adv-x="671" d="M692 1237h-284v-1237h-144v1237h-284v115h155l-616 399l86 133l665 -532h6l-432 585l125 99l191 -340q-5 67 25 128t85.5 99.5t123.5 54t147 -6.5t149 -83l-59 -106q-44 38 -95.5 54t-97.5 10.5t-84 -30t-59.5 -61.5t-20.5 -89.5t31 -109.5l107 -204h280v-115z" />
<glyph horiz-adv-x="0" d="M-938 2001l670 -668l-66 -67l-708 635zM-395 1935q54 0 88.5 -34.5t34.5 -88.5t-34.5 -88t-88.5 -34q-53 0 -88 34t-35 88t35 88.5t88 34.5z" />
<glyph horiz-adv-x="0" d="M-565 2079l313 -750l-92 -39l-8 15l-37 -48l-713 564l94 114l621 -561l-322 641zM-180 1927q54 0 88.5 -34.5t34.5 -88.5t-34.5 -88.5t-88.5 -34.5q-53 0 -88 34.5t-35 88.5t35 88.5t88 34.5z" />
<glyph horiz-adv-x="0" d="M-698 2036l190 -340q-5 67 25 128t85.5 99.5t123.5 54t147.5 -6.5t149.5 -83l-60 -106q-44 38 -95.5 54t-97 10.5t-84 -30t-59.5 -61.5t-20 -89.5t31 -109.5l120 -231h-59l4 -6l-51 -25l-14 21l-37 -49l-750 485l86 133l682 -545l-442 598zM-158 1704q41 0 66.5 -25.5 t25.5 -66.5q0 -40 -25.5 -66t-66.5 -26q-39 0 -65.5 26.5t-26.5 65.5q0 41 26.5 66.5t65.5 25.5z" />
<glyph horiz-adv-x="0" d="M-901 2013l383 -430q-21 74 -17.5 137.5t33 111.5t72 82t98.5 49.5t113 14t115.5 -24.5t105.5 -65l-59 -106q-44 38 -96 54t-98.5 10.5t-85.5 -29.5t-60.5 -61.5t-19 -90.5t33.5 -111l125 -229h-33l23 -25l-51 -47l-697 648zM-178 1704q41 0 66.5 -25.5t25.5 -66.5 q0 -40 -25.5 -66t-66.5 -26q-39 0 -65.5 26.5t-26.5 65.5q0 41 26.5 66.5t65.5 25.5z" />
<glyph horiz-adv-x="0" d="M-700 2036l190 -340q-5 67 25 128t85.5 99.5t123.5 54t147 -6.5t149 -83l-59 -106q-44 38 -95.5 54t-97.5 10.5t-84 -30t-59.5 -61.5t-20.5 -89.5t31 -109.5l121 -231h-59l4 -6l-51 -25l-15 21l-36 -49l-750 485l86 133l682 -545l-442 598z" />
<glyph horiz-adv-x="0" d="M-920 2013l383 -430q-21 74 -17.5 137.5t33 111.5t72 82t99 49.5t113.5 14t115.5 -24.5t105.5 -65l-60 -106q-44 38 -96 54t-98.5 10.5t-85 -29.5t-60 -61.5t-19 -90.5t33.5 -111l125 -229h-33l22 -25l-51 -47l-696 648z" />
</font>
</defs>
</svg>
